<svg width="460" height="550" viewBox="0 0 460 550" fill="none" xmlns="http://www.w3.org/2000/svg">
<g filter="url(#filter0_i_12_3)">
<circle cx="250.472" cy="280" r="200" fill="url(#paint0_linear_12_3)"/>
</g>
<mask id="path-2-inside-1_12_3" fill="white">
<path fill-rule="evenodd" clip-rule="evenodd" d="M289.172 430L140.742 430C67.983 430 9 369.558 9 295C9 220.442 67.983 160 140.742 160C199.248 160 248.846 199.08 266.034 253.156C273.406 251.098 281.164 250 289.172 250C337.678 250 377 290.294 377 340C377 389.706 337.678 430 289.172 430Z"/>
</mask>
<g filter="url(#filter1_i_12_3)">
<path fill-rule="evenodd" clip-rule="evenodd" d="M289.172 430L140.742 430C67.983 430 9 369.558 9 295C9 220.442 67.983 160 140.742 160C199.248 160 248.846 199.08 266.034 253.156C273.406 251.098 281.164 250 289.172 250C337.678 250 377 290.294 377 340C377 389.706 337.678 430 289.172 430Z" fill="url(#paint1_linear_12_3)"/>
</g>
<path d="M140.742 430V429V430ZM289.172 430V431V430ZM266.034 253.156L265.081 253.459L265.373 254.379L266.303 254.119L266.034 253.156ZM140.742 431L289.172 431V429L140.742 429V431ZM8 295C8 370.087 67.4078 431 140.742 431V429C68.5582 429 10 369.029 10 295H8ZM140.742 159C67.4078 159 8 219.912 8 295H10C10 220.971 68.5582 161 140.742 161V159ZM266.987 252.853C249.676 198.388 199.71 159 140.742 159V161C198.787 161 248.017 199.773 265.081 253.459L266.987 252.853ZM266.303 254.119C273.588 252.086 281.255 251 289.172 251V249C281.072 249 273.223 250.111 265.765 252.193L266.303 254.119ZM289.172 251C337.103 251 376 290.823 376 340H378C378 289.765 338.253 249 289.172 249V251ZM376 340C376 389.176 337.103 429 289.172 429V431C338.253 431 378 390.235 378 340H376Z" fill="black" fill-opacity="0.05" mask="url(#path-2-inside-1_12_3)"/>
<defs>
<filter id="filter0_i_12_3" x="50.4719" y="80" width="400" height="420" filterUnits="userSpaceOnUse" color-interpolation-filters="sRGB">
<feFlood flood-opacity="0" result="BackgroundImageFix"/>
<feBlend mode="normal" in="SourceGraphic" in2="BackgroundImageFix" result="shape"/>
<feColorMatrix in="SourceAlpha" type="matrix" values="0 0 0 0 0 0 0 0 0 0 0 0 0 0 0 0 0 0 127 0" result="hardAlpha"/>
<feOffset dy="20"/>
<feGaussianBlur stdDeviation="35"/>
<feComposite in2="hardAlpha" operator="arithmetic" k2="-1" k3="1"/>
<feColorMatrix type="matrix" values="0 0 0 0 1 0 0 0 0 1 0 0 0 0 1 0 0 0 1 0"/>
<feBlend mode="overlay" in2="shape" result="effect1_innerShadow_12_3"/>
</filter>
<filter id="filter1_i_12_3" x="9" y="160" width="368" height="318.647" filterUnits="userSpaceOnUse" color-interpolation-filters="sRGB">
<feFlood flood-opacity="0" result="BackgroundImageFix"/>
<feBlend mode="normal" in="SourceGraphic" in2="BackgroundImageFix" result="shape"/>
<feColorMatrix in="SourceAlpha" type="matrix" values="0 0 0 0 0 0 0 0 0 0 0 0 0 0 0 0 0 0 127 0" result="hardAlpha"/>
<feOffset dy="48.6468"/>
<feGaussianBlur stdDeviation="30"/>
<feComposite in2="hardAlpha" operator="arithmetic" k2="-1" k3="1"/>
<feColorMatrix type="matrix" values="0 0 0 0 1 0 0 0 0 1 0 0 0 0 1 0 0 0 1 0"/>
<feBlend mode="normal" in2="shape" result="effect1_innerShadow_12_3"/>
</filter>
<linearGradient id="paint0_linear_12_3" x1="250.472" y1="80" x2="250.472" y2="480" gradientUnits="userSpaceOnUse">
<stop stop-color="#FFD358"/>
<stop offset="1" stop-color="#FA6C21"/>
</linearGradient>
<linearGradient id="paint1_linear_12_3" x1="34.7804" y1="160" x2="383.314" y2="421.735" gradientUnits="userSpaceOnUse">
<stop stop-color="white"/>
<stop offset="1" stop-color="#C1C1C1"/>
</linearGradient>
</defs>
</svg>
