<svg width="463" height="550" viewBox="0 0 463 550" fill="none" xmlns="http://www.w3.org/2000/svg">
<g filter="url(#filter0_di_30_551)">
<path fill-rule="evenodd" clip-rule="evenodd" d="M295.835 51.9308C286.351 50.658 276.661 50 266.811 50C151.913 50 58.7692 139.543 58.7692 250C58.7692 360.457 151.913 450 266.811 450C353.227 450 427.337 399.349 458.769 327.244C456.741 327.303 454.705 327.333 452.662 327.333C347.721 327.333 262.65 248.535 262.65 151.333C262.65 114.449 274.899 80.2152 295.835 51.9308Z" fill="url(#paint0_linear_30_551)"/>
</g>
<mask id="path-2-inside-1_30_551" fill="white">
<path fill-rule="evenodd" clip-rule="evenodd" d="M284.172 410L135.742 410C62.983 410 4 349.558 4 275C4 200.442 62.983 140 135.742 140C194.248 140 243.846 179.08 261.034 233.156C268.406 231.098 276.164 230 284.172 230C332.678 230 372 270.294 372 320C372 369.706 332.678 410 284.172 410Z"/>
</mask>
<g filter="url(#filter1_i_30_551)">
<path fill-rule="evenodd" clip-rule="evenodd" d="M284.172 410L135.742 410C62.983 410 4 349.558 4 275C4 200.442 62.983 140 135.742 140C194.248 140 243.846 179.08 261.034 233.156C268.406 231.098 276.164 230 284.172 230C332.678 230 372 270.294 372 320C372 369.706 332.678 410 284.172 410Z" fill="url(#paint1_linear_30_551)"/>
</g>
<path d="M135.742 410V409V410ZM284.172 410V411V410ZM261.034 233.156L260.081 233.459L260.373 234.379L261.303 234.119L261.034 233.156ZM135.742 411L284.172 411V409L135.742 409V411ZM3 275C3 350.087 62.4078 411 135.742 411V409C63.5582 409 5 349.029 5 275H3ZM135.742 139C62.4078 139 3 199.912 3 275H5C5 200.971 63.5582 141 135.742 141V139ZM261.987 232.853C244.676 178.388 194.71 139 135.742 139V141C193.787 141 243.017 179.773 260.081 233.459L261.987 232.853ZM261.303 234.119C268.588 232.086 276.255 231 284.172 231V229C276.072 229 268.223 230.111 260.765 232.193L261.303 234.119ZM284.172 231C332.103 231 371 270.823 371 320H373C373 269.765 333.253 229 284.172 229V231ZM371 320C371 369.176 332.103 409 284.172 409V411C333.253 411 373 370.235 373 320H371Z" fill="black" fill-opacity="0.05" mask="url(#path-2-inside-1_30_551)"/>
<defs>
<filter id="filter0_di_30_551" x="33.7692" y="50" width="429" height="415" filterUnits="userSpaceOnUse" color-interpolation-filters="sRGB">
<feFlood flood-opacity="0" result="BackgroundImageFix"/>
<feColorMatrix in="SourceAlpha" type="matrix" values="0 0 0 0 0 0 0 0 0 0 0 0 0 0 0 0 0 0 127 0" result="hardAlpha"/>
<feOffset dy="4"/>
<feGaussianBlur stdDeviation="2"/>
<feComposite in2="hardAlpha" operator="out"/>
<feColorMatrix type="matrix" values="0 0 0 0 0 0 0 0 0 0 0 0 0 0 0 0 0 0 0.25 0"/>
<feBlend mode="normal" in2="BackgroundImageFix" result="effect1_dropShadow_30_551"/>
<feBlend mode="normal" in="SourceGraphic" in2="effect1_dropShadow_30_551" result="shape"/>
<feColorMatrix in="SourceAlpha" type="matrix" values="0 0 0 0 0 0 0 0 0 0 0 0 0 0 0 0 0 0 127 0" result="hardAlpha"/>
<feOffset dx="-25" dy="15"/>
<feGaussianBlur stdDeviation="12.5"/>
<feComposite in2="hardAlpha" operator="arithmetic" k2="-1" k3="1"/>
<feColorMatrix type="matrix" values="0 0 0 0 0.607843 0 0 0 0 0.529412 0 0 0 0 0.921569 0 0 0 1 0"/>
<feBlend mode="normal" in2="shape" result="effect2_innerShadow_30_551"/>
</filter>
<filter id="filter1_i_30_551" x="4" y="140" width="368" height="318.647" filterUnits="userSpaceOnUse" color-interpolation-filters="sRGB">
<feFlood flood-opacity="0" result="BackgroundImageFix"/>
<feBlend mode="normal" in="SourceGraphic" in2="BackgroundImageFix" result="shape"/>
<feColorMatrix in="SourceAlpha" type="matrix" values="0 0 0 0 0 0 0 0 0 0 0 0 0 0 0 0 0 0 127 0" result="hardAlpha"/>
<feOffset dy="48.6468"/>
<feGaussianBlur stdDeviation="30"/>
<feComposite in2="hardAlpha" operator="arithmetic" k2="-1" k3="1"/>
<feColorMatrix type="matrix" values="0 0 0 0 1 0 0 0 0 1 0 0 0 0 1 0 0 0 1 0"/>
<feBlend mode="normal" in2="shape" result="effect1_innerShadow_30_551"/>
</filter>
<linearGradient id="paint0_linear_30_551" x1="82.3473" y1="50" x2="366.684" y2="516.144" gradientUnits="userSpaceOnUse">
<stop stop-color="#9B87EB"/>
<stop offset="0.659096" stop-color="#3010AC"/>
</linearGradient>
<linearGradient id="paint1_linear_30_551" x1="29.7804" y1="140" x2="378.314" y2="401.735" gradientUnits="userSpaceOnUse">
<stop stop-color="white"/>
<stop offset="1" stop-color="#C1C1C1"/>
</linearGradient>
</defs>
</svg>
