<svg width="460" height="550" viewBox="0 0 460 550" fill="none" xmlns="http://www.w3.org/2000/svg">
<g style="mix-blend-mode:color-burn" opacity="0.5" filter="url(#filter0_f_30_560)">
<path fill-rule="evenodd" clip-rule="evenodd" d="M266.874 507.912C262.621 516.773 254 522.835 244.057 522.835C229.897 522.835 218.418 510.541 218.418 495.375C218.418 493.2 218.645 491.002 219.076 488.769C217.012 494.048 215.854 499.085 215.854 504.001C215.854 519.167 227.333 531.461 241.493 531.461C254.414 531.461 265.102 521.225 266.874 507.912Z" fill="url(#paint0_radial_30_560)" fill-opacity="0.3"/>
</g>
<path opacity="0.5" d="M266.876 503.865C266.876 519.031 255.397 531.325 241.237 531.325C227.077 531.325 215.598 519.031 215.598 503.865C215.598 488.699 226.622 472.38 241.237 451.389C253.544 471.804 266.876 488.699 266.876 503.865Z" fill="url(#paint1_radial_30_560)"/>
<g style="mix-blend-mode:screen" opacity="0.3">
<ellipse cx="247.775" cy="481.293" rx="26.2802" ry="28.754" fill="url(#paint2_radial_30_560)"/>
</g>
<g style="mix-blend-mode:screen" opacity="0.3">
<ellipse cx="232.904" cy="512.635" rx="26.2802" ry="28.754" fill="url(#paint3_radial_30_560)"/>
</g>
<g style="mix-blend-mode:color-burn" opacity="0.5" filter="url(#filter1_f_30_560)">
<path fill-rule="evenodd" clip-rule="evenodd" d="M192.025 434.194C188.227 441.593 180.53 446.654 171.652 446.654C159.009 446.654 148.76 436.389 148.76 423.726C148.76 421.91 148.962 420.075 149.347 418.211C147.505 422.618 146.471 426.824 146.471 430.929C146.471 443.591 156.72 453.856 169.363 453.856C180.899 453.856 190.442 445.31 192.025 434.194Z" fill="url(#paint4_radial_30_560)" fill-opacity="0.3"/>
</g>
<path opacity="0.5" d="M192.026 430.815C192.026 443.478 181.777 453.743 169.134 453.743C156.491 453.743 146.242 443.478 146.242 430.815C146.242 418.152 156.085 404.526 169.134 387C180.122 404.046 192.026 418.152 192.026 430.815Z" fill="url(#paint5_radial_30_560)"/>
<g style="mix-blend-mode:screen" opacity="0.3">
<ellipse cx="174.971" cy="411.969" rx="23.4645" ry="24.0083" fill="url(#paint6_radial_30_560)"/>
</g>
<g style="mix-blend-mode:screen" opacity="0.3">
<ellipse cx="161.694" cy="438.138" rx="23.4645" ry="24.0083" fill="url(#paint7_radial_30_560)"/>
</g>
<g style="mix-blend-mode:color-burn" opacity="0.5" filter="url(#filter2_f_30_560)">
<path fill-rule="evenodd" clip-rule="evenodd" d="M336.52 434.194C332.723 441.592 325.025 446.654 316.148 446.654C303.505 446.654 293.255 436.389 293.255 423.726C293.255 421.91 293.458 420.074 293.843 418.21C292 422.618 290.966 426.824 290.966 430.928C290.966 443.591 301.215 453.856 313.858 453.856C325.394 453.856 334.938 445.31 336.52 434.194Z" fill="url(#paint8_radial_30_560)" fill-opacity="0.3"/>
</g>
<path opacity="0.5" d="M336.521 430.815C336.521 443.478 326.272 453.743 313.629 453.743C300.986 453.743 290.737 443.478 290.737 430.815C290.737 418.152 300.581 404.526 313.629 387C324.617 404.046 336.521 418.152 336.521 430.815Z" fill="url(#paint9_radial_30_560)"/>
<g style="mix-blend-mode:screen" opacity="0.3">
<ellipse cx="319.467" cy="411.969" rx="23.4645" ry="24.0083" fill="url(#paint10_radial_30_560)"/>
</g>
<g style="mix-blend-mode:screen" opacity="0.3">
<ellipse cx="306.189" cy="438.138" rx="23.4645" ry="24.0083" fill="url(#paint11_radial_30_560)"/>
</g>
<g filter="url(#filter3_di_30_560)">
<path fill-rule="evenodd" clip-rule="evenodd" d="M344.51 11.0861C339.359 10.3701 334.096 10 328.747 10C266.345 10 215.759 60.368 215.759 122.5C215.759 184.632 266.345 235 328.747 235C375.68 235 415.929 206.509 433 165.95C431.899 165.983 430.793 166 429.683 166C372.69 166 326.487 121.676 326.487 67C326.487 46.2527 333.14 26.996 344.51 11.0861Z" fill="url(#paint12_linear_30_560)"/>
</g>
<mask id="path-14-inside-1_30_560" fill="white">
<path fill-rule="evenodd" clip-rule="evenodd" d="M322.761 377L153.358 377C70.3176 377 3 309.843 3 227C3 144.157 70.3176 77 153.358 77C220.131 77 276.738 120.423 296.354 180.507C304.767 178.22 313.622 177 322.761 177C378.122 177 423 221.772 423 277C423 332.228 378.122 377 322.761 377Z"/>
</mask>
<g filter="url(#filter4_i_30_560)">
<path fill-rule="evenodd" clip-rule="evenodd" d="M322.761 377L153.358 377C70.3176 377 3 309.843 3 227C3 144.157 70.3176 77 153.358 77C220.131 77 276.738 120.423 296.354 180.507C304.767 178.22 313.622 177 322.761 177C378.122 177 423 221.772 423 277C423 332.228 378.122 377 322.761 377Z" fill="url(#paint13_linear_30_560)"/>
</g>
<path d="M153.358 377V376V377ZM322.761 377V378V377ZM296.354 180.507L295.403 180.817L295.698 181.721L296.616 181.472L296.354 180.507ZM153.358 378L322.761 378V376L153.358 376V378ZM2 227C2 310.397 69.7675 378 153.358 378V376C70.8676 376 4 309.288 4 227H2ZM153.358 76C69.7675 76 2 143.603 2 227H4C4 144.712 70.8676 78 153.358 78V76ZM297.304 180.196C277.558 119.712 220.575 76 153.358 76V78C219.687 78 275.918 121.133 295.403 180.817L297.304 180.196ZM296.616 181.472C304.945 179.208 313.711 178 322.761 178V176C313.532 176 304.59 177.232 296.091 179.542L296.616 181.472ZM322.761 178C377.572 178 422 222.326 422 277H424C424 221.217 378.672 176 322.761 176V178ZM422 277C422 331.674 377.572 376 322.761 376V378C378.672 378 424 332.783 424 277H422Z" fill="black" fill-opacity="0.05" mask="url(#path-14-inside-1_30_560)"/>
<defs>
<filter id="filter0_f_30_560" x="207.854" y="480.769" width="67.0205" height="58.6917" filterUnits="userSpaceOnUse" color-interpolation-filters="sRGB">
<feFlood flood-opacity="0" result="BackgroundImageFix"/>
<feBlend mode="normal" in="SourceGraphic" in2="BackgroundImageFix" result="shape"/>
<feGaussianBlur stdDeviation="4" result="effect1_foregroundBlur_30_560"/>
</filter>
<filter id="filter1_f_30_560" x="138.471" y="410.211" width="61.554" height="51.6457" filterUnits="userSpaceOnUse" color-interpolation-filters="sRGB">
<feFlood flood-opacity="0" result="BackgroundImageFix"/>
<feBlend mode="normal" in="SourceGraphic" in2="BackgroundImageFix" result="shape"/>
<feGaussianBlur stdDeviation="4" result="effect1_foregroundBlur_30_560"/>
</filter>
<filter id="filter2_f_30_560" x="282.966" y="410.21" width="61.554" height="51.6459" filterUnits="userSpaceOnUse" color-interpolation-filters="sRGB">
<feFlood flood-opacity="0" result="BackgroundImageFix"/>
<feBlend mode="normal" in="SourceGraphic" in2="BackgroundImageFix" result="shape"/>
<feGaussianBlur stdDeviation="4" result="effect1_foregroundBlur_30_560"/>
</filter>
<filter id="filter3_di_30_560" x="190.759" y="10" width="246.241" height="240" filterUnits="userSpaceOnUse" color-interpolation-filters="sRGB">
<feFlood flood-opacity="0" result="BackgroundImageFix"/>
<feColorMatrix in="SourceAlpha" type="matrix" values="0 0 0 0 0 0 0 0 0 0 0 0 0 0 0 0 0 0 127 0" result="hardAlpha"/>
<feOffset dy="4"/>
<feGaussianBlur stdDeviation="2"/>
<feComposite in2="hardAlpha" operator="out"/>
<feColorMatrix type="matrix" values="0 0 0 0 0 0 0 0 0 0 0 0 0 0 0 0 0 0 0.25 0"/>
<feBlend mode="normal" in2="BackgroundImageFix" result="effect1_dropShadow_30_560"/>
<feBlend mode="normal" in="SourceGraphic" in2="effect1_dropShadow_30_560" result="shape"/>
<feColorMatrix in="SourceAlpha" type="matrix" values="0 0 0 0 0 0 0 0 0 0 0 0 0 0 0 0 0 0 127 0" result="hardAlpha"/>
<feOffset dx="-25" dy="15"/>
<feGaussianBlur stdDeviation="12.5"/>
<feComposite in2="hardAlpha" operator="arithmetic" k2="-1" k3="1"/>
<feColorMatrix type="matrix" values="0 0 0 0 0.607843 0 0 0 0 0.529412 0 0 0 0 0.921569 0 0 0 1 0"/>
<feBlend mode="normal" in2="shape" result="effect2_innerShadow_30_560"/>
</filter>
<filter id="filter4_i_30_560" x="3" y="77" width="420" height="348.647" filterUnits="userSpaceOnUse" color-interpolation-filters="sRGB">
<feFlood flood-opacity="0" result="BackgroundImageFix"/>
<feBlend mode="normal" in="SourceGraphic" in2="BackgroundImageFix" result="shape"/>
<feColorMatrix in="SourceAlpha" type="matrix" values="0 0 0 0 0 0 0 0 0 0 0 0 0 0 0 0 0 0 127 0" result="hardAlpha"/>
<feOffset dy="48.6468"/>
<feGaussianBlur stdDeviation="30"/>
<feComposite in2="hardAlpha" operator="arithmetic" k2="-1" k3="1"/>
<feColorMatrix type="matrix" values="0 0 0 0 1 0 0 0 0 1 0 0 0 0 1 0 0 0 1 0"/>
<feBlend mode="normal" in2="shape" result="effect1_innerShadow_30_560"/>
</filter>
<radialGradient id="paint0_radial_30_560" cx="0" cy="0" r="1" gradientUnits="userSpaceOnUse" gradientTransform="translate(241.493 505.87) rotate(-40.9122) scale(44.7839 32.9571)">
<stop stop-color="#3CC7F5"/>
<stop offset="0.0001" stop-color="#3CC7F5"/>
<stop offset="1" stop-color="#004DFF"/>
</radialGradient>
<radialGradient id="paint1_radial_30_560" cx="0" cy="0" r="1" gradientUnits="userSpaceOnUse" gradientTransform="translate(241.237 505.734) rotate(-40.9122) scale(44.7839 32.9571)">
<stop stop-color="#3CC7F5"/>
<stop offset="0.0001" stop-color="#3CC7F5"/>
<stop offset="1" stop-color="#004DFF"/>
</radialGradient>
<radialGradient id="paint2_radial_30_560" cx="0" cy="0" r="1" gradientUnits="userSpaceOnUse" gradientTransform="translate(247.775 481.293) rotate(58.9731) scale(39.2592 10.9306)">
<stop stop-color="white"/>
<stop offset="0.555017" stop-color="#BDDBF1" stop-opacity="0.25"/>
<stop offset="1" stop-color="#5686F5" stop-opacity="0"/>
</radialGradient>
<radialGradient id="paint3_radial_30_560" cx="0" cy="0" r="1" gradientUnits="userSpaceOnUse" gradientTransform="translate(231.494 512.635) rotate(52.9232) scale(21.2638 10.0805)">
<stop stop-color="white"/>
<stop offset="0.673987" stop-color="#BDDBF1" stop-opacity="0.25"/>
<stop offset="1" stop-color="#5686F5" stop-opacity="0"/>
</radialGradient>
<radialGradient id="paint4_radial_30_560" cx="0" cy="0" r="1" gradientUnits="userSpaceOnUse" gradientTransform="translate(169.363 432.489) rotate(-39.0214) scale(38.8946 28.2895)">
<stop stop-color="#3CC7F5"/>
<stop offset="0.0001" stop-color="#3CC7F5"/>
<stop offset="1" stop-color="#004DFF"/>
</radialGradient>
<radialGradient id="paint5_radial_30_560" cx="0" cy="0" r="1" gradientUnits="userSpaceOnUse" gradientTransform="translate(169.134 432.376) rotate(-39.0214) scale(38.8946 28.2895)">
<stop stop-color="#3CC7F5"/>
<stop offset="0.0001" stop-color="#3CC7F5"/>
<stop offset="1" stop-color="#004DFF"/>
</radialGradient>
<radialGradient id="paint6_radial_30_560" cx="0" cy="0" r="1" gradientUnits="userSpaceOnUse" gradientTransform="translate(174.971 411.969) rotate(57.2503) scale(33.3987 9.57856)">
<stop stop-color="white"/>
<stop offset="0.555017" stop-color="#BDDBF1" stop-opacity="0.25"/>
<stop offset="1" stop-color="#5686F5" stop-opacity="0"/>
</radialGradient>
<radialGradient id="paint7_radial_30_560" cx="0" cy="0" r="1" gradientUnits="userSpaceOnUse" gradientTransform="translate(160.435 438.138) rotate(51.0597) scale(18.2114 8.77451)">
<stop stop-color="white"/>
<stop offset="0.673987" stop-color="#BDDBF1" stop-opacity="0.25"/>
<stop offset="1" stop-color="#5686F5" stop-opacity="0"/>
</radialGradient>
<radialGradient id="paint8_radial_30_560" cx="0" cy="0" r="1" gradientUnits="userSpaceOnUse" gradientTransform="translate(313.858 432.489) rotate(-39.0217) scale(38.8948 28.2897)">
<stop stop-color="#3CC7F5"/>
<stop offset="0.0001" stop-color="#3CC7F5"/>
<stop offset="1" stop-color="#004DFF"/>
</radialGradient>
<radialGradient id="paint9_radial_30_560" cx="0" cy="0" r="1" gradientUnits="userSpaceOnUse" gradientTransform="translate(313.629 432.376) rotate(-39.0214) scale(38.8946 28.2895)">
<stop stop-color="#3CC7F5"/>
<stop offset="0.0001" stop-color="#3CC7F5"/>
<stop offset="1" stop-color="#004DFF"/>
</radialGradient>
<radialGradient id="paint10_radial_30_560" cx="0" cy="0" r="1" gradientUnits="userSpaceOnUse" gradientTransform="translate(319.467 411.969) rotate(57.2503) scale(33.3987 9.57856)">
<stop stop-color="white"/>
<stop offset="0.555017" stop-color="#BDDBF1" stop-opacity="0.25"/>
<stop offset="1" stop-color="#5686F5" stop-opacity="0"/>
</radialGradient>
<radialGradient id="paint11_radial_30_560" cx="0" cy="0" r="1" gradientUnits="userSpaceOnUse" gradientTransform="translate(304.93 438.138) rotate(51.0597) scale(18.2114 8.77451)">
<stop stop-color="white"/>
<stop offset="0.673987" stop-color="#BDDBF1" stop-opacity="0.25"/>
<stop offset="1" stop-color="#5686F5" stop-opacity="0"/>
</radialGradient>
<linearGradient id="paint12_linear_30_560" x1="228.564" y1="9.99997" x2="391.013" y2="267.137" gradientUnits="userSpaceOnUse">
<stop stop-color="#9B87EB"/>
<stop offset="0.659096" stop-color="#3010AC"/>
</linearGradient>
<linearGradient id="paint13_linear_30_560" x1="32.4233" y1="77" x2="422.459" y2="377.861" gradientUnits="userSpaceOnUse">
<stop stop-color="white"/>
<stop offset="1" stop-color="#C1C1C1"/>
</linearGradient>
</defs>
</svg>
