<svg width="460" height="550" viewBox="0 0 460 550" fill="none" xmlns="http://www.w3.org/2000/svg">
<g filter="url(#filter0_f_30_678)">
<path fill-rule="evenodd" clip-rule="evenodd" d="M281.898 321H217.108L187.468 419.638H220.36L192.978 521L283.798 397.565L235.441 397.565L281.898 321Z" fill="url(#paint0_linear_30_678)"/>
</g>
<g style="mix-blend-mode:color-burn" opacity="0.5" filter="url(#filter1_f_30_678)">
<path fill-rule="evenodd" clip-rule="evenodd" d="M182.502 452.804C178.704 460.203 171.007 465.265 162.129 465.265C149.486 465.265 139.237 454.999 139.237 442.337C139.237 440.521 139.439 438.685 139.825 436.821C137.982 441.229 136.948 445.434 136.948 449.539C136.948 462.202 147.197 472.467 159.84 472.467C171.376 472.467 180.919 463.921 182.502 452.804Z" fill="url(#paint1_radial_30_678)" fill-opacity="0.3"/>
</g>
<path opacity="0.5" d="M182.503 449.426C182.503 462.089 172.254 472.354 159.611 472.354C146.968 472.354 136.719 462.089 136.719 449.426C136.719 436.763 146.562 423.137 159.611 405.611C170.599 422.657 182.503 436.763 182.503 449.426Z" fill="url(#paint2_radial_30_678)"/>
<g style="mix-blend-mode:screen" opacity="0.3">
<ellipse cx="165.448" cy="430.579" rx="23.4645" ry="24.0083" fill="url(#paint3_radial_30_678)"/>
</g>
<g style="mix-blend-mode:screen" opacity="0.3">
<ellipse cx="152.171" cy="456.749" rx="23.4645" ry="24.0083" fill="url(#paint4_radial_30_678)"/>
</g>
<g style="mix-blend-mode:color-burn" opacity="0.5" filter="url(#filter2_f_30_678)">
<path fill-rule="evenodd" clip-rule="evenodd" d="M326.997 452.804C323.2 460.203 315.502 465.265 306.624 465.265C293.981 465.265 283.732 454.999 283.732 442.337C283.732 440.521 283.935 438.685 284.32 436.822C282.477 441.229 281.443 445.434 281.443 449.539C281.443 462.202 291.692 472.467 304.335 472.467C315.872 472.467 325.415 463.92 326.997 452.804Z" fill="url(#paint5_radial_30_678)" fill-opacity="0.3"/>
</g>
<path opacity="0.5" d="M326.999 449.426C326.999 462.089 316.749 472.354 304.106 472.354C291.463 472.354 281.214 462.089 281.214 449.426C281.214 436.763 291.058 423.137 304.106 405.611C315.095 422.657 326.999 436.763 326.999 449.426Z" fill="url(#paint6_radial_30_678)"/>
<g style="mix-blend-mode:screen" opacity="0.3">
<ellipse cx="309.944" cy="430.579" rx="23.4645" ry="24.0083" fill="url(#paint7_radial_30_678)"/>
</g>
<g style="mix-blend-mode:screen" opacity="0.3">
<ellipse cx="296.666" cy="456.749" rx="23.4645" ry="24.0083" fill="url(#paint8_radial_30_678)"/>
</g>
<g filter="url(#filter3_di_30_678)">
<path fill-rule="evenodd" clip-rule="evenodd" d="M347.51 15.0861C342.359 14.3701 337.096 14 331.747 14C269.345 14 218.759 64.368 218.759 126.5C218.759 188.632 269.345 239 331.747 239C378.68 239 418.929 210.509 436 169.95C434.899 169.983 433.793 170 432.683 170C375.689 170 329.487 125.676 329.487 71C329.487 50.2527 336.14 30.996 347.51 15.0861Z" fill="url(#paint9_linear_30_678)"/>
</g>
<mask id="path-11-inside-1_30_678" fill="white">
<path fill-rule="evenodd" clip-rule="evenodd" d="M335.761 381L166.358 381C83.3176 381 16 313.843 16 231C16 148.157 83.3176 81 166.358 81C233.131 81 289.738 124.423 309.354 184.507C317.767 182.22 326.622 181 335.761 181C391.122 181 436 225.772 436 281C436 336.228 391.122 381 335.761 381Z"/>
</mask>
<g filter="url(#filter4_i_30_678)">
<path fill-rule="evenodd" clip-rule="evenodd" d="M335.761 381L166.358 381C83.3176 381 16 313.843 16 231C16 148.157 83.3176 81 166.358 81C233.131 81 289.738 124.423 309.354 184.507C317.767 182.22 326.622 181 335.761 181C391.122 181 436 225.772 436 281C436 336.228 391.122 381 335.761 381Z" fill="url(#paint10_linear_30_678)"/>
</g>
<path d="M166.358 381V380V381ZM335.761 381V382V381ZM309.354 184.507L308.403 184.817L308.698 185.721L309.616 185.472L309.354 184.507ZM166.358 382L335.761 382V380L166.358 380V382ZM15 231C15 314.397 82.7675 382 166.358 382V380C83.8676 380 17 313.288 17 231H15ZM166.358 80C82.7675 80 15 147.603 15 231H17C17 148.712 83.8676 82 166.358 82V80ZM310.304 184.196C290.558 123.712 233.575 80 166.358 80V82C232.687 82 288.918 125.133 308.403 184.817L310.304 184.196ZM309.616 185.472C317.945 183.208 326.711 182 335.761 182V180C326.532 180 317.59 181.232 309.091 183.542L309.616 185.472ZM335.761 182C390.572 182 435 226.326 435 281H437C437 225.217 391.672 180 335.761 180V182ZM435 281C435 335.674 390.572 380 335.761 380V382C391.672 382 437 336.783 437 281H435Z" fill="black" fill-opacity="0.05" mask="url(#path-11-inside-1_30_678)"/>
<defs>
<filter id="filter0_f_30_678" x="182.468" y="316" width="106.33" height="210" filterUnits="userSpaceOnUse" color-interpolation-filters="sRGB">
<feFlood flood-opacity="0" result="BackgroundImageFix"/>
<feBlend mode="normal" in="SourceGraphic" in2="BackgroundImageFix" result="shape"/>
<feGaussianBlur stdDeviation="2.5" result="effect1_foregroundBlur_30_678"/>
</filter>
<filter id="filter1_f_30_678" x="128.948" y="428.821" width="61.554" height="51.6458" filterUnits="userSpaceOnUse" color-interpolation-filters="sRGB">
<feFlood flood-opacity="0" result="BackgroundImageFix"/>
<feBlend mode="normal" in="SourceGraphic" in2="BackgroundImageFix" result="shape"/>
<feGaussianBlur stdDeviation="4" result="effect1_foregroundBlur_30_678"/>
</filter>
<filter id="filter2_f_30_678" x="273.443" y="428.822" width="61.554" height="51.6455" filterUnits="userSpaceOnUse" color-interpolation-filters="sRGB">
<feFlood flood-opacity="0" result="BackgroundImageFix"/>
<feBlend mode="normal" in="SourceGraphic" in2="BackgroundImageFix" result="shape"/>
<feGaussianBlur stdDeviation="4" result="effect1_foregroundBlur_30_678"/>
</filter>
<filter id="filter3_di_30_678" x="193.759" y="14" width="246.241" height="240" filterUnits="userSpaceOnUse" color-interpolation-filters="sRGB">
<feFlood flood-opacity="0" result="BackgroundImageFix"/>
<feColorMatrix in="SourceAlpha" type="matrix" values="0 0 0 0 0 0 0 0 0 0 0 0 0 0 0 0 0 0 127 0" result="hardAlpha"/>
<feOffset dy="4"/>
<feGaussianBlur stdDeviation="2"/>
<feComposite in2="hardAlpha" operator="out"/>
<feColorMatrix type="matrix" values="0 0 0 0 0 0 0 0 0 0 0 0 0 0 0 0 0 0 0.25 0"/>
<feBlend mode="normal" in2="BackgroundImageFix" result="effect1_dropShadow_30_678"/>
<feBlend mode="normal" in="SourceGraphic" in2="effect1_dropShadow_30_678" result="shape"/>
<feColorMatrix in="SourceAlpha" type="matrix" values="0 0 0 0 0 0 0 0 0 0 0 0 0 0 0 0 0 0 127 0" result="hardAlpha"/>
<feOffset dx="-25" dy="15"/>
<feGaussianBlur stdDeviation="12.5"/>
<feComposite in2="hardAlpha" operator="arithmetic" k2="-1" k3="1"/>
<feColorMatrix type="matrix" values="0 0 0 0 0.607843 0 0 0 0 0.529412 0 0 0 0 0.921569 0 0 0 1 0"/>
<feBlend mode="normal" in2="shape" result="effect2_innerShadow_30_678"/>
</filter>
<filter id="filter4_i_30_678" x="16" y="81" width="420" height="348.647" filterUnits="userSpaceOnUse" color-interpolation-filters="sRGB">
<feFlood flood-opacity="0" result="BackgroundImageFix"/>
<feBlend mode="normal" in="SourceGraphic" in2="BackgroundImageFix" result="shape"/>
<feColorMatrix in="SourceAlpha" type="matrix" values="0 0 0 0 0 0 0 0 0 0 0 0 0 0 0 0 0 0 127 0" result="hardAlpha"/>
<feOffset dy="48.6468"/>
<feGaussianBlur stdDeviation="30"/>
<feComposite in2="hardAlpha" operator="arithmetic" k2="-1" k3="1"/>
<feColorMatrix type="matrix" values="0 0 0 0 1 0 0 0 0 1 0 0 0 0 1 0 0 0 1 0"/>
<feBlend mode="normal" in2="shape" result="effect1_innerShadow_30_678"/>
</filter>
<linearGradient id="paint0_linear_30_678" x1="235.633" y1="321" x2="235.633" y2="521" gradientUnits="userSpaceOnUse">
<stop stop-color="#FFE176"/>
<stop offset="0.47859" stop-color="#FEC255"/>
<stop offset="1" stop-color="#FEA031"/>
</linearGradient>
<radialGradient id="paint1_radial_30_678" cx="0" cy="0" r="1" gradientUnits="userSpaceOnUse" gradientTransform="translate(159.84 451.099) rotate(-39.0214) scale(38.8946 28.2895)">
<stop stop-color="#3CC7F5"/>
<stop offset="0.0001" stop-color="#3CC7F5"/>
<stop offset="1" stop-color="#004DFF"/>
</radialGradient>
<radialGradient id="paint2_radial_30_678" cx="0" cy="0" r="1" gradientUnits="userSpaceOnUse" gradientTransform="translate(159.611 450.986) rotate(-39.0214) scale(38.8946 28.2895)">
<stop stop-color="#3CC7F5"/>
<stop offset="0.0001" stop-color="#3CC7F5"/>
<stop offset="1" stop-color="#004DFF"/>
</radialGradient>
<radialGradient id="paint3_radial_30_678" cx="0" cy="0" r="1" gradientUnits="userSpaceOnUse" gradientTransform="translate(165.448 430.579) rotate(57.2503) scale(33.3987 9.57856)">
<stop stop-color="white"/>
<stop offset="0.555017" stop-color="#BDDBF1" stop-opacity="0.25"/>
<stop offset="1" stop-color="#5686F5" stop-opacity="0"/>
</radialGradient>
<radialGradient id="paint4_radial_30_678" cx="0" cy="0" r="1" gradientUnits="userSpaceOnUse" gradientTransform="translate(150.912 456.749) rotate(51.0597) scale(18.2114 8.77451)">
<stop stop-color="white"/>
<stop offset="0.673987" stop-color="#BDDBF1" stop-opacity="0.25"/>
<stop offset="1" stop-color="#5686F5" stop-opacity="0"/>
</radialGradient>
<radialGradient id="paint5_radial_30_678" cx="0" cy="0" r="1" gradientUnits="userSpaceOnUse" gradientTransform="translate(304.335 451.1) rotate(-39.0214) scale(38.8946 28.2895)">
<stop stop-color="#3CC7F5"/>
<stop offset="0.0001" stop-color="#3CC7F5"/>
<stop offset="1" stop-color="#004DFF"/>
</radialGradient>
<radialGradient id="paint6_radial_30_678" cx="0" cy="0" r="1" gradientUnits="userSpaceOnUse" gradientTransform="translate(304.106 450.986) rotate(-39.0214) scale(38.8946 28.2895)">
<stop stop-color="#3CC7F5"/>
<stop offset="0.0001" stop-color="#3CC7F5"/>
<stop offset="1" stop-color="#004DFF"/>
</radialGradient>
<radialGradient id="paint7_radial_30_678" cx="0" cy="0" r="1" gradientUnits="userSpaceOnUse" gradientTransform="translate(309.944 430.579) rotate(57.2503) scale(33.3987 9.57856)">
<stop stop-color="white"/>
<stop offset="0.555017" stop-color="#BDDBF1" stop-opacity="0.25"/>
<stop offset="1" stop-color="#5686F5" stop-opacity="0"/>
</radialGradient>
<radialGradient id="paint8_radial_30_678" cx="0" cy="0" r="1" gradientUnits="userSpaceOnUse" gradientTransform="translate(295.407 456.749) rotate(51.0597) scale(18.2114 8.77451)">
<stop stop-color="white"/>
<stop offset="0.673987" stop-color="#BDDBF1" stop-opacity="0.25"/>
<stop offset="1" stop-color="#5686F5" stop-opacity="0"/>
</radialGradient>
<linearGradient id="paint9_linear_30_678" x1="231.564" y1="14" x2="394.013" y2="271.137" gradientUnits="userSpaceOnUse">
<stop stop-color="#9B87EB"/>
<stop offset="0.659096" stop-color="#3010AC"/>
</linearGradient>
<linearGradient id="paint10_linear_30_678" x1="45.4233" y1="81" x2="435.459" y2="381.861" gradientUnits="userSpaceOnUse">
<stop stop-color="white"/>
<stop offset="1" stop-color="#C1C1C1"/>
</linearGradient>
</defs>
</svg>
