<svg width="460" height="550" viewBox="0 0 460 550" fill="none" xmlns="http://www.w3.org/2000/svg">
<g filter="url(#filter0_i_38_902)">
<circle cx="226.598" cy="225" r="150" fill="url(#paint0_linear_38_902)"/>
</g>
<path d="M20 323.146C90 306.006 160 306.006 230 323.146C300 340.285 370 340.285 440 323.146" stroke="url(#paint1_linear_38_902)" stroke-width="27.7134" stroke-linecap="round"/>
<path d="M17 379.854C87 362.715 157 362.715 227 379.854C297 396.993 367 396.993 437 379.854" stroke="url(#paint2_linear_38_902)" stroke-width="27.7134" stroke-linecap="round"/>
<path d="M17 433.854C87 416.715 157 416.715 227 433.854C297 450.993 367 450.993 437 433.854" stroke="url(#paint3_linear_38_902)" stroke-width="27.7134" stroke-linecap="round"/>
<defs>
<filter id="filter0_i_38_902" x="76.5975" y="75" width="300" height="321.124" filterUnits="userSpaceOnUse" color-interpolation-filters="sRGB">
<feFlood flood-opacity="0" result="BackgroundImageFix"/>
<feBlend mode="normal" in="SourceGraphic" in2="BackgroundImageFix" result="shape"/>
<feColorMatrix in="SourceAlpha" type="matrix" values="0 0 0 0 0 0 0 0 0 0 0 0 0 0 0 0 0 0 127 0" result="hardAlpha"/>
<feOffset dy="21.1238"/>
<feGaussianBlur stdDeviation="36.9666"/>
<feComposite in2="hardAlpha" operator="arithmetic" k2="-1" k3="1"/>
<feColorMatrix type="matrix" values="0 0 0 0 1 0 0 0 0 1 0 0 0 0 1 0 0 0 1 0"/>
<feBlend mode="overlay" in2="shape" result="effect1_innerShadow_38_902"/>
</filter>
<linearGradient id="paint0_linear_38_902" x1="226.598" y1="75" x2="226.598" y2="375" gradientUnits="userSpaceOnUse">
<stop stop-color="#FFD358"/>
<stop offset="1" stop-color="#FA6C21"/>
</linearGradient>
<linearGradient id="paint1_linear_38_902" x1="-6.50001" y1="310" x2="423.5" y2="336" gradientUnits="userSpaceOnUse">
<stop stop-color="#F2F2F2"/>
<stop offset="1" stop-color="#CFCFCF"/>
</linearGradient>
<linearGradient id="paint2_linear_38_902" x1="-9.50001" y1="366.709" x2="420.5" y2="392.709" gradientUnits="userSpaceOnUse">
<stop stop-color="#F2F2F2"/>
<stop offset="1" stop-color="#CFCFCF"/>
</linearGradient>
<linearGradient id="paint3_linear_38_902" x1="-9.50001" y1="420.709" x2="420.5" y2="446.709" gradientUnits="userSpaceOnUse">
<stop stop-color="#F2F2F2"/>
<stop offset="1" stop-color="#CFCFCF"/>
</linearGradient>
</defs>
</svg>
