<svg width="460" height="550" viewBox="0 0 460 550" fill="none" xmlns="http://www.w3.org/2000/svg">
<g filter="url(#filter0_di_43_1083)">
<path fill-rule="evenodd" clip-rule="evenodd" d="M250.8 108.448C243.686 107.494 236.419 107 229.032 107C142.858 107 73 174.157 73 257C73 339.843 142.858 407 229.032 407C293.843 407 349.426 369.012 373 314.933C371.479 314.978 369.952 315 368.42 315C289.714 315 225.911 255.902 225.911 183C225.911 155.337 235.098 129.661 250.8 108.448Z" fill="url(#paint0_linear_43_1083)"/>
</g>
<path d="M23 307.146C93 290.006 163 290.006 233 307.146C303 324.285 373 324.285 443 307.146" stroke="url(#paint1_linear_43_1083)" stroke-width="27.7134" stroke-linecap="round"/>
<path d="M20 363.854C90 346.715 160 346.715 230 363.854C300 380.993 370 380.993 440 363.854" stroke="url(#paint2_linear_43_1083)" stroke-width="27.7134" stroke-linecap="round"/>
<path d="M20 417.854C90 400.715 160 400.715 230 417.854C300 434.993 370 434.993 440 417.854" stroke="url(#paint3_linear_43_1083)" stroke-width="27.7134" stroke-linecap="round"/>
<defs>
<filter id="filter0_di_43_1083" x="48" y="107" width="329" height="315" filterUnits="userSpaceOnUse" color-interpolation-filters="sRGB">
<feFlood flood-opacity="0" result="BackgroundImageFix"/>
<feColorMatrix in="SourceAlpha" type="matrix" values="0 0 0 0 0 0 0 0 0 0 0 0 0 0 0 0 0 0 127 0" result="hardAlpha"/>
<feOffset dy="4"/>
<feGaussianBlur stdDeviation="2"/>
<feComposite in2="hardAlpha" operator="out"/>
<feColorMatrix type="matrix" values="0 0 0 0 0 0 0 0 0 0 0 0 0 0 0 0 0 0 0.25 0"/>
<feBlend mode="normal" in2="BackgroundImageFix" result="effect1_dropShadow_43_1083"/>
<feBlend mode="normal" in="SourceGraphic" in2="effect1_dropShadow_43_1083" result="shape"/>
<feColorMatrix in="SourceAlpha" type="matrix" values="0 0 0 0 0 0 0 0 0 0 0 0 0 0 0 0 0 0 127 0" result="hardAlpha"/>
<feOffset dx="-25" dy="15"/>
<feGaussianBlur stdDeviation="12.5"/>
<feComposite in2="hardAlpha" operator="arithmetic" k2="-1" k3="1"/>
<feColorMatrix type="matrix" values="0 0 0 0 0.607843 0 0 0 0 0.529412 0 0 0 0 0.921569 0 0 0 1 0"/>
<feBlend mode="normal" in2="shape" result="effect2_innerShadow_43_1083"/>
</filter>
<linearGradient id="paint0_linear_43_1083" x1="90.6836" y1="107" x2="303.936" y2="456.608" gradientUnits="userSpaceOnUse">
<stop stop-color="#9B87EB"/>
<stop offset="0.659096" stop-color="#3010AC"/>
</linearGradient>
<linearGradient id="paint1_linear_43_1083" x1="-3.50001" y1="294" x2="426.5" y2="320" gradientUnits="userSpaceOnUse">
<stop stop-color="#F2F2F2"/>
<stop offset="1" stop-color="#CFCFCF"/>
</linearGradient>
<linearGradient id="paint2_linear_43_1083" x1="-6.50001" y1="350.709" x2="423.5" y2="376.709" gradientUnits="userSpaceOnUse">
<stop stop-color="#F2F2F2"/>
<stop offset="1" stop-color="#CFCFCF"/>
</linearGradient>
<linearGradient id="paint3_linear_43_1083" x1="-6.50001" y1="404.709" x2="423.5" y2="430.709" gradientUnits="userSpaceOnUse">
<stop stop-color="#F2F2F2"/>
<stop offset="1" stop-color="#CFCFCF"/>
</linearGradient>
</defs>
</svg>
