<svg width="72" height="90" viewBox="0 0 72 90" fill="none" xmlns="http://www.w3.org/2000/svg">
<g style="mix-blend-mode:color-burn" opacity="0.5" filter="url(#filter0_f_29_509)">
<path fill-rule="evenodd" clip-rule="evenodd" d="M63.2966 56.5222C58.8709 65.3836 49.9 71.4456 39.5535 71.4456C24.8188 71.4456 12.874 59.1513 12.874 43.9855C12.874 41.8109 13.1099 39.6126 13.5588 37.3801C11.4115 42.6584 10.2061 47.6957 10.2061 52.6116C10.2061 67.7774 22.1509 80.0717 36.8855 80.0717C50.3303 80.0717 61.4523 69.8357 63.2966 56.5222Z" fill="url(#paint0_radial_29_509)" fill-opacity="0.3"/>
</g>
<path opacity="0.5" d="M63.2983 52.476C63.2983 67.6418 51.3535 79.9361 36.6188 79.9361C21.8841 79.9361 9.93933 67.6418 9.93933 52.476C9.93933 37.3103 21.4115 20.9904 36.6188 0C49.425 20.4153 63.2983 37.3103 63.2983 52.476Z" fill="url(#paint1_radial_29_509)"/>
<g style="mix-blend-mode:screen" opacity="0.3">
<ellipse cx="43.422" cy="29.9043" rx="27.3465" ry="28.754" fill="url(#paint2_radial_29_509)"/>
</g>
<g style="mix-blend-mode:screen" opacity="0.3">
<ellipse cx="27.9479" cy="61.2461" rx="27.3465" ry="28.754" fill="url(#paint3_radial_29_509)"/>
</g>
<defs>
<filter id="filter0_f_29_509" x="2.20605" y="29.3801" width="69.0905" height="58.6916" filterUnits="userSpaceOnUse" color-interpolation-filters="sRGB">
<feFlood flood-opacity="0" result="BackgroundImageFix"/>
<feBlend mode="normal" in="SourceGraphic" in2="BackgroundImageFix" result="shape"/>
<feGaussianBlur stdDeviation="4" result="effect1_foregroundBlur_29_509"/>
</filter>
<radialGradient id="paint0_radial_29_509" cx="0" cy="0" r="1" gradientUnits="userSpaceOnUse" gradientTransform="translate(36.8855 54.4807) rotate(-39.7879) scale(45.8304 33.5111)">
<stop stop-color="#3CC7F5"/>
<stop offset="0.0001" stop-color="#3CC7F5"/>
<stop offset="1" stop-color="#004DFF"/>
</radialGradient>
<radialGradient id="paint1_radial_29_509" cx="0" cy="0" r="1" gradientUnits="userSpaceOnUse" gradientTransform="translate(36.6188 54.3451) rotate(-39.7879) scale(45.8304 33.5111)">
<stop stop-color="#3CC7F5"/>
<stop offset="0.0001" stop-color="#3CC7F5"/>
<stop offset="1" stop-color="#004DFF"/>
</radialGradient>
<radialGradient id="paint2_radial_29_509" cx="0" cy="0" r="1" gradientUnits="userSpaceOnUse" gradientTransform="translate(43.422 29.9043) rotate(57.9574) scale(39.6886 11.251)">
<stop stop-color="white"/>
<stop offset="0.555017" stop-color="#BDDBF1" stop-opacity="0.25"/>
<stop offset="1" stop-color="#5686F5" stop-opacity="0"/>
</radialGradient>
<radialGradient id="paint3_radial_29_509" cx="0" cy="0" r="1" gradientUnits="userSpaceOnUse" gradientTransform="translate(26.4805 61.2461) rotate(51.8214) scale(21.5814 10.3351)">
<stop stop-color="white"/>
<stop offset="0.673987" stop-color="#BDDBF1" stop-opacity="0.25"/>
<stop offset="1" stop-color="#5686F5" stop-opacity="0"/>
</radialGradient>
</defs>
</svg>
