<svg width="40" height="37" viewBox="0 0 40 37" fill="none" xmlns="http://www.w3.org/2000/svg">
<path d="M7.25209 35.3321C4.6756 32.5647 2.92099 29.0389 2.21014 25.2005C1.49929 21.3621 1.86412 17.3835 3.25851 13.7678C4.65289 10.1521 7.0142 7.0617 10.0438 4.88742C13.0735 2.71313 16.6353 1.55261 20.279 1.55261C23.9227 1.55261 27.4846 2.71313 30.5142 4.88742C33.5439 7.0617 35.9052 10.1521 37.2996 13.7678C38.6939 17.3835 39.0588 21.3621 38.3479 25.2005C37.6371 29.0389 35.8825 32.5647 33.306 35.3321" stroke="white" stroke-width="2"/>
<path d="M23.6907 25.4341C23.6907 27.3183 22.1632 28.8458 20.279 28.8458C18.3948 28.8458 16.8674 27.3183 16.8674 25.4341C16.8674 23.5499 18.3948 22.0225 20.279 22.0225C22.1632 22.0225 23.6907 23.5499 23.6907 25.4341Z" fill="white"/>
<path d="M20.2789 24.0695L15.5376 8.68284" stroke="white"/>
</svg>
