<svg width="28" height="36" viewBox="0 0 28 36" fill="none" xmlns="http://www.w3.org/2000/svg">
<path d="M0.0918353 19.2989C-0.128082 17.4067 0.0551824 15.5799 0.553661 13.8915C2.21037 8.28037 7.40775 4.15388 13.5728 4.0811V0.413121C13.5728 0.209344 13.8293 0.100177 13.9979 0.223899L21.5997 5.76954C21.7244 5.86415 21.7244 6.05337 21.5997 6.14071L14.0053 11.6864C13.8293 11.8101 13.5801 11.7009 13.5801 11.4971V7.83642C9.52628 7.90192 6.06625 10.3836 4.57815 13.8915C4.01369 15.2161 3.7278 16.6789 3.80844 18.2145C3.91839 20.325 4.71743 22.2682 5.97829 23.8402C6.6527 24.6771 6.49143 25.8998 5.61909 26.533C4.79073 27.137 3.6325 26.9696 2.99474 26.1691C1.43333 24.2332 0.392389 21.8752 0.0918353 19.2989ZM22.0396 12.254C23.3078 13.8187 24.1068 15.7692 24.2094 17.8797C24.2901 19.4226 23.9968 20.8854 23.4397 22.2027C21.9516 25.7106 18.4916 28.1996 14.4378 28.2578V24.5971C14.4378 24.3933 14.1812 24.2841 14.0126 24.4079L6.41079 29.9535C6.28617 30.0481 6.28617 30.2373 6.41079 30.3247L14.0053 35.8703C14.1812 35.994 14.4304 35.8849 14.4304 35.6811V32.0131C20.5954 31.9476 25.8002 27.8211 27.4495 22.2027C27.948 20.5143 28.1239 18.6875 27.9114 16.7953C27.6181 14.219 26.5772 11.861 25.0158 9.92514C24.3707 9.12458 23.2198 8.9572 22.3914 9.56125C21.5264 10.1944 21.3652 11.4171 22.0396 12.254Z" fill="#510F4E"/>
</svg>
