<svg width="460" height="550" viewBox="0 0 460 550" fill="none" xmlns="http://www.w3.org/2000/svg">
<g filter="url(#filter0_f_29_285)">
<path fill-rule="evenodd" clip-rule="evenodd" d="M226.519 287H159.1L128.258 385.638H162.485L133.991 487L228.496 363.565L178.177 363.565L226.519 287Z" fill="url(#paint0_linear_29_285)"/>
</g>
<g style="mix-blend-mode:color-burn" opacity="0.5" filter="url(#filter1_f_29_285)">
<path fill-rule="evenodd" clip-rule="evenodd" d="M269.269 400.547C266.108 406.652 259.7 410.828 252.31 410.828C241.785 410.828 233.253 402.359 233.253 391.911C233.253 390.414 233.421 388.9 233.742 387.363C232.208 390.999 231.347 394.468 231.347 397.855C231.347 408.302 239.879 416.771 250.404 416.771C260.008 416.771 267.953 409.719 269.269 400.547Z" fill="url(#paint1_radial_29_285)" fill-opacity="0.3"/>
</g>
<path opacity="0.5" d="M269.27 397.761C269.27 408.209 260.738 416.678 250.214 416.678C239.689 416.678 231.157 408.209 231.157 397.761C231.157 387.313 239.351 376.071 250.214 361.611C259.361 375.675 269.27 387.313 269.27 397.761Z" fill="url(#paint2_radial_29_285)"/>
<g style="mix-blend-mode:screen" opacity="0.3">
<ellipse cx="255.073" cy="382.212" rx="19.5332" ry="19.8083" fill="url(#paint3_radial_29_285)"/>
</g>
<g style="mix-blend-mode:screen" opacity="0.3">
<ellipse cx="244.02" cy="403.802" rx="19.5332" ry="19.8083" fill="url(#paint4_radial_29_285)"/>
</g>
<g style="mix-blend-mode:color-burn" opacity="0.5" filter="url(#filter2_f_29_285)">
<path fill-rule="evenodd" clip-rule="evenodd" d="M361.489 412.432C358.328 418.832 351.92 423.21 344.529 423.21C334.005 423.21 325.473 414.331 325.473 403.378C325.473 401.807 325.641 400.22 325.962 398.608C324.428 402.42 323.567 406.058 323.567 409.608C323.567 420.561 332.099 429.44 342.624 429.44C352.227 429.44 360.172 422.047 361.489 412.432Z" fill="url(#paint5_radial_29_285)" fill-opacity="0.3"/>
</g>
<path opacity="0.5" d="M361.49 409.51C361.49 420.463 352.958 429.342 342.433 429.342C331.908 429.342 323.376 420.463 323.376 409.51C323.376 398.557 331.571 386.771 342.433 371.611C351.58 386.355 361.49 398.557 361.49 409.51Z" fill="url(#paint6_radial_29_285)"/>
<g style="mix-blend-mode:screen" opacity="0.3">
<ellipse cx="347.293" cy="393.208" rx="19.5332" ry="20.7668" fill="url(#paint7_radial_29_285)"/>
</g>
<g style="mix-blend-mode:screen" opacity="0.3">
<ellipse cx="336.24" cy="415.844" rx="19.5332" ry="20.7668" fill="url(#paint8_radial_29_285)"/>
</g>
<g style="mix-blend-mode:color-burn" opacity="0.5" filter="url(#filter3_f_29_285)">
<path fill-rule="evenodd" clip-rule="evenodd" d="M319.792 478.853C315.683 486.73 307.352 492.118 297.745 492.118C284.063 492.118 272.971 481.19 272.971 467.709C272.971 465.776 273.19 463.822 273.607 461.838C271.613 466.53 270.494 471.007 270.494 475.377C270.494 488.858 281.585 499.786 295.268 499.786C307.752 499.786 318.08 490.687 319.792 478.853Z" fill="url(#paint9_radial_29_285)" fill-opacity="0.3"/>
</g>
<path opacity="0.5" d="M319.794 475.256C319.794 488.737 308.702 499.665 295.02 499.665C281.338 499.665 270.246 488.737 270.246 475.256C270.246 461.776 280.899 447.269 295.02 428.611C306.911 446.758 319.794 461.776 319.794 475.256Z" fill="url(#paint10_radial_29_285)"/>
<g style="mix-blend-mode:screen" opacity="0.3">
<ellipse cx="301.337" cy="455.192" rx="25.3932" ry="25.5591" fill="url(#paint11_radial_29_285)"/>
</g>
<g style="mix-blend-mode:screen" opacity="0.3">
<ellipse cx="286.968" cy="483.052" rx="25.3932" ry="25.5591" fill="url(#paint12_radial_29_285)"/>
</g>
<g filter="url(#filter4_i_29_285)">
<ellipse cx="351.291" cy="134.67" rx="87.7088" ry="87.6702" fill="url(#paint13_linear_29_285)"/>
</g>
<mask id="path-15-inside-1_29_285" fill="white">
<path fill-rule="evenodd" clip-rule="evenodd" d="M340.761 354.584L171.358 354.584C88.3176 354.584 21 287.296 21 204.292C21 121.288 88.3176 54 171.358 54C238.131 54 294.738 97.5071 314.354 157.708C322.767 155.417 331.621 154.195 340.761 154.195C396.122 154.195 441 199.053 441 254.389C441 309.725 396.122 354.584 340.761 354.584Z"/>
</mask>
<g filter="url(#filter5_i_29_285)">
<path fill-rule="evenodd" clip-rule="evenodd" d="M340.761 354.584L171.358 354.584C88.3176 354.584 21 287.296 21 204.292C21 121.288 88.3176 54 171.358 54C238.131 54 294.738 97.5071 314.354 157.708C322.767 155.417 331.621 154.195 340.761 154.195C396.122 154.195 441 199.053 441 254.389C441 309.725 396.122 354.584 340.761 354.584Z" fill="url(#paint14_linear_29_285)"/>
</g>
<path d="M171.358 354.584V353.584V354.584ZM340.761 354.584V355.584V354.584ZM314.354 157.708L313.403 158.018L313.698 158.923L314.616 158.673L314.354 157.708ZM171.358 355.584L340.761 355.584V353.584L171.358 353.584V355.584ZM20 204.292C20 287.849 87.7657 355.584 171.358 355.584V353.584C88.8694 353.584 22 286.743 22 204.292H20ZM171.358 53C87.7657 53 20 120.735 20 204.292H22C22 121.841 88.8694 55 171.358 55V53ZM315.304 157.398C295.558 96.7976 238.576 53 171.358 53V55C237.686 55 293.917 98.2166 313.403 158.018L315.304 157.398ZM314.616 158.673C322.945 156.405 331.711 155.195 340.761 155.195V153.195C331.532 153.195 322.589 154.429 314.091 156.743L314.616 158.673ZM340.761 155.195C395.57 155.195 440 199.606 440 254.389H442C442 198.501 396.673 153.195 340.761 153.195V155.195ZM440 254.389C440 309.173 395.57 353.584 340.761 353.584V355.584C396.673 355.584 442 310.278 442 254.389H440Z" fill="black" fill-opacity="0.05" mask="url(#path-15-inside-1_29_285)"/>
<defs>
<filter id="filter0_f_29_285" x="123.258" y="282" width="110.239" height="210" filterUnits="userSpaceOnUse" color-interpolation-filters="sRGB">
<feFlood flood-opacity="0" result="BackgroundImageFix"/>
<feBlend mode="normal" in="SourceGraphic" in2="BackgroundImageFix" result="shape"/>
<feGaussianBlur stdDeviation="2.5" result="effect1_foregroundBlur_29_285"/>
</filter>
<filter id="filter1_f_29_285" x="223.347" y="379.363" width="53.922" height="45.4087" filterUnits="userSpaceOnUse" color-interpolation-filters="sRGB">
<feFlood flood-opacity="0" result="BackgroundImageFix"/>
<feBlend mode="normal" in="SourceGraphic" in2="BackgroundImageFix" result="shape"/>
<feGaussianBlur stdDeviation="4" result="effect1_foregroundBlur_29_285"/>
</filter>
<filter id="filter2_f_29_285" x="315.567" y="390.608" width="53.9219" height="46.8326" filterUnits="userSpaceOnUse" color-interpolation-filters="sRGB">
<feFlood flood-opacity="0" result="BackgroundImageFix"/>
<feBlend mode="normal" in="SourceGraphic" in2="BackgroundImageFix" result="shape"/>
<feGaussianBlur stdDeviation="4" result="effect1_foregroundBlur_29_285"/>
</filter>
<filter id="filter3_f_29_285" x="262.494" y="453.838" width="65.2983" height="53.948" filterUnits="userSpaceOnUse" color-interpolation-filters="sRGB">
<feFlood flood-opacity="0" result="BackgroundImageFix"/>
<feBlend mode="normal" in="SourceGraphic" in2="BackgroundImageFix" result="shape"/>
<feGaussianBlur stdDeviation="4" result="effect1_foregroundBlur_29_285"/>
</filter>
<filter id="filter4_i_29_285" x="263.582" y="47" width="175.418" height="195.34" filterUnits="userSpaceOnUse" color-interpolation-filters="sRGB">
<feFlood flood-opacity="0" result="BackgroundImageFix"/>
<feBlend mode="normal" in="SourceGraphic" in2="BackgroundImageFix" result="shape"/>
<feColorMatrix in="SourceAlpha" type="matrix" values="0 0 0 0 0 0 0 0 0 0 0 0 0 0 0 0 0 0 127 0" result="hardAlpha"/>
<feOffset dy="20"/>
<feGaussianBlur stdDeviation="35"/>
<feComposite in2="hardAlpha" operator="arithmetic" k2="-1" k3="1"/>
<feColorMatrix type="matrix" values="0 0 0 0 1 0 0 0 0 1 0 0 0 0 1 0 0 0 1 0"/>
<feBlend mode="overlay" in2="shape" result="effect1_innerShadow_29_285"/>
</filter>
<filter id="filter5_i_29_285" x="21" y="54" width="420" height="349.231" filterUnits="userSpaceOnUse" color-interpolation-filters="sRGB">
<feFlood flood-opacity="0" result="BackgroundImageFix"/>
<feBlend mode="normal" in="SourceGraphic" in2="BackgroundImageFix" result="shape"/>
<feColorMatrix in="SourceAlpha" type="matrix" values="0 0 0 0 0 0 0 0 0 0 0 0 0 0 0 0 0 0 127 0" result="hardAlpha"/>
<feOffset dy="48.6468"/>
<feGaussianBlur stdDeviation="30"/>
<feComposite in2="hardAlpha" operator="arithmetic" k2="-1" k3="1"/>
<feColorMatrix type="matrix" values="0 0 0 0 1 0 0 0 0 1 0 0 0 0 1 0 0 0 1 0"/>
<feBlend mode="normal" in2="shape" result="effect1_innerShadow_29_285"/>
</filter>
<linearGradient id="paint0_linear_29_285" x1="178.377" y1="287" x2="178.377" y2="487" gradientUnits="userSpaceOnUse">
<stop stop-color="#FFE176"/>
<stop offset="0.47859" stop-color="#FEC255"/>
<stop offset="1" stop-color="#FEA031"/>
</linearGradient>
<radialGradient id="paint1_radial_29_285" cx="0" cy="0" r="1" gradientUnits="userSpaceOnUse" gradientTransform="translate(250.404 399.143) rotate(-38.7703) scale(32.264 23.4224)">
<stop stop-color="#3CC7F5"/>
<stop offset="0.0001" stop-color="#3CC7F5"/>
<stop offset="1" stop-color="#004DFF"/>
</radialGradient>
<radialGradient id="paint2_radial_29_285" cx="0" cy="0" r="1" gradientUnits="userSpaceOnUse" gradientTransform="translate(250.214 399.049) rotate(-38.7715) scale(32.2644 23.4229)">
<stop stop-color="#3CC7F5"/>
<stop offset="0.0001" stop-color="#3CC7F5"/>
<stop offset="1" stop-color="#004DFF"/>
</radialGradient>
<radialGradient id="paint3_radial_29_285" cx="0" cy="0" r="1" gradientUnits="userSpaceOnUse" gradientTransform="translate(255.073 382.212) rotate(57.0173) scale(27.6285 7.95282)">
<stop stop-color="white"/>
<stop offset="0.555017" stop-color="#BDDBF1" stop-opacity="0.25"/>
<stop offset="1" stop-color="#5686F5" stop-opacity="0"/>
</radialGradient>
<radialGradient id="paint4_radial_29_285" cx="0" cy="0" r="1" gradientUnits="userSpaceOnUse" gradientTransform="translate(242.972 403.802) rotate(50.8095) scale(15.0789 7.27856)">
<stop stop-color="white"/>
<stop offset="0.673987" stop-color="#BDDBF1" stop-opacity="0.25"/>
<stop offset="1" stop-color="#5686F5" stop-opacity="0"/>
</radialGradient>
<radialGradient id="paint5_radial_29_285" cx="0" cy="0" r="1" gradientUnits="userSpaceOnUse" gradientTransform="translate(342.624 410.958) rotate(-40.0996) scale(32.8855 24.0925)">
<stop stop-color="#3CC7F5"/>
<stop offset="0.0001" stop-color="#3CC7F5"/>
<stop offset="1" stop-color="#004DFF"/>
</radialGradient>
<radialGradient id="paint6_radial_29_285" cx="0" cy="0" r="1" gradientUnits="userSpaceOnUse" gradientTransform="translate(342.433 410.86) rotate(-40.0996) scale(32.8855 24.0925)">
<stop stop-color="#3CC7F5"/>
<stop offset="0.0001" stop-color="#3CC7F5"/>
<stop offset="1" stop-color="#004DFF"/>
</radialGradient>
<radialGradient id="paint7_radial_29_285" cx="0" cy="0" r="1" gradientUnits="userSpaceOnUse" gradientTransform="translate(347.293 393.208) rotate(58.2414) scale(28.5757 8.06127)">
<stop stop-color="white"/>
<stop offset="0.555017" stop-color="#BDDBF1" stop-opacity="0.25"/>
<stop offset="1" stop-color="#5686F5" stop-opacity="0"/>
</radialGradient>
<radialGradient id="paint8_radial_29_285" cx="0" cy="0" r="1" gradientUnits="userSpaceOnUse" gradientTransform="translate(335.192 415.844) rotate(52.1287) scale(15.5213 7.41325)">
<stop stop-color="white"/>
<stop offset="0.673987" stop-color="#BDDBF1" stop-opacity="0.25"/>
<stop offset="1" stop-color="#5686F5" stop-opacity="0"/>
</radialGradient>
<radialGradient id="paint9_radial_29_285" cx="0" cy="0" r="1" gradientUnits="userSpaceOnUse" gradientTransform="translate(295.268 477.038) rotate(-38.5624) scale(41.8215 30.3112)">
<stop stop-color="#3CC7F5"/>
<stop offset="0.0001" stop-color="#3CC7F5"/>
<stop offset="1" stop-color="#004DFF"/>
</radialGradient>
<radialGradient id="paint10_radial_29_285" cx="0" cy="0" r="1" gradientUnits="userSpaceOnUse" gradientTransform="translate(295.02 476.918) rotate(-38.5626) scale(41.8216 30.3114)">
<stop stop-color="#3CC7F5"/>
<stop offset="0.0001" stop-color="#3CC7F5"/>
<stop offset="1" stop-color="#004DFF"/>
</radialGradient>
<radialGradient id="paint11_radial_29_285" cx="0" cy="0" r="1" gradientUnits="userSpaceOnUse" gradientTransform="translate(301.337 455.192) rotate(56.8215) scale(35.7291 10.3157)">
<stop stop-color="white"/>
<stop offset="0.555017" stop-color="#BDDBF1" stop-opacity="0.25"/>
<stop offset="1" stop-color="#5686F5" stop-opacity="0"/>
</radialGradient>
<radialGradient id="paint12_radial_29_285" cx="0" cy="0" r="1" gradientUnits="userSpaceOnUse" gradientTransform="translate(285.606 483.052) rotate(50.5996) scale(19.5151 9.43382)">
<stop stop-color="white"/>
<stop offset="0.673987" stop-color="#BDDBF1" stop-opacity="0.25"/>
<stop offset="1" stop-color="#5686F5" stop-opacity="0"/>
</radialGradient>
<linearGradient id="paint13_linear_29_285" x1="351.291" y1="47" x2="351.291" y2="222.34" gradientUnits="userSpaceOnUse">
<stop stop-color="#FFD358"/>
<stop offset="1" stop-color="#FA6C21"/>
</linearGradient>
<linearGradient id="paint14_linear_29_285" x1="50.4233" y1="54" x2="441.025" y2="354.712" gradientUnits="userSpaceOnUse">
<stop stop-color="white"/>
<stop offset="1" stop-color="#C1C1C1"/>
</linearGradient>
</defs>
</svg>
