<svg width="460" height="550" viewBox="0 0 460 550" fill="none" xmlns="http://www.w3.org/2000/svg">
<g filter="url(#filter0_i_1_364)">
<circle cx="226.598" cy="223" r="150" fill="url(#paint0_linear_1_364)"/>
</g>
<path d="M20 321.146C90 304.006 160 304.006 230 321.146C300 338.285 370 338.285 440 321.146" stroke="url(#paint1_linear_1_364)" stroke-width="27.7134" stroke-linecap="round"/>
<path d="M17 377.854C87 360.715 157 360.715 227 377.854C297 394.993 367 394.993 437 377.854" stroke="url(#paint2_linear_1_364)" stroke-width="27.7134" stroke-linecap="round"/>
<path d="M17 431.854C87 414.715 157 414.715 227 431.854C297 448.993 367 448.993 437 431.854" stroke="url(#paint3_linear_1_364)" stroke-width="27.7134" stroke-linecap="round"/>
<defs>
<filter id="filter0_i_1_364" x="76.5975" y="73" width="300" height="321.124" filterUnits="userSpaceOnUse" color-interpolation-filters="sRGB">
<feFlood flood-opacity="0" result="BackgroundImageFix"/>
<feBlend mode="normal" in="SourceGraphic" in2="BackgroundImageFix" result="shape"/>
<feColorMatrix in="SourceAlpha" type="matrix" values="0 0 0 0 0 0 0 0 0 0 0 0 0 0 0 0 0 0 127 0" result="hardAlpha"/>
<feOffset dy="21.1238"/>
<feGaussianBlur stdDeviation="36.9666"/>
<feComposite in2="hardAlpha" operator="arithmetic" k2="-1" k3="1"/>
<feColorMatrix type="matrix" values="0 0 0 0 1 0 0 0 0 1 0 0 0 0 1 0 0 0 1 0"/>
<feBlend mode="overlay" in2="shape" result="effect1_innerShadow_1_364"/>
</filter>
<linearGradient id="paint0_linear_1_364" x1="226.598" y1="73" x2="226.598" y2="373" gradientUnits="userSpaceOnUse">
<stop stop-color="#FFD358"/>
<stop offset="1" stop-color="#FA6C21"/>
</linearGradient>
<linearGradient id="paint1_linear_1_364" x1="-6.50001" y1="308" x2="423.5" y2="334" gradientUnits="userSpaceOnUse">
<stop stop-color="#F2F2F2"/>
<stop offset="1" stop-color="#CFCFCF"/>
</linearGradient>
<linearGradient id="paint2_linear_1_364" x1="-9.50001" y1="364.709" x2="420.5" y2="390.709" gradientUnits="userSpaceOnUse">
<stop stop-color="#F2F2F2"/>
<stop offset="1" stop-color="#CFCFCF"/>
</linearGradient>
<linearGradient id="paint3_linear_1_364" x1="-9.50001" y1="418.709" x2="420.5" y2="444.709" gradientUnits="userSpaceOnUse">
<stop stop-color="#F2F2F2"/>
<stop offset="1" stop-color="#CFCFCF"/>
</linearGradient>
</defs>
</svg>
