<svg width="460" height="550" viewBox="0 0 460 550" fill="none" xmlns="http://www.w3.org/2000/svg">
<g filter="url(#filter0_di_1_372)">
<path fill-rule="evenodd" clip-rule="evenodd" d="M248.8 90.4481C241.686 89.4935 234.419 89 227.032 89C140.858 89 71 156.157 71 239C71 321.843 140.858 389 227.032 389C291.843 389 347.426 351.012 371 296.933C369.479 296.978 367.952 297 366.42 297C287.714 297 223.911 237.902 223.911 165C223.911 137.337 233.098 111.661 248.8 90.4481Z" fill="url(#paint0_linear_1_372)"/>
</g>
<path d="M21 289.146C91 272.006 161 272.006 231 289.146C301 306.285 371 306.285 441 289.146" stroke="url(#paint1_linear_1_372)" stroke-width="27.7134" stroke-linecap="round"/>
<path d="M18 345.854C88 328.715 158 328.715 228 345.854C298 362.993 368 362.993 438 345.854" stroke="url(#paint2_linear_1_372)" stroke-width="27.7134" stroke-linecap="round"/>
<path d="M18 399.854C88 382.715 158 382.715 228 399.854C298 416.993 368 416.993 438 399.854" stroke="url(#paint3_linear_1_372)" stroke-width="27.7134" stroke-linecap="round"/>
<defs>
<filter id="filter0_di_1_372" x="46" y="89" width="329" height="315" filterUnits="userSpaceOnUse" color-interpolation-filters="sRGB">
<feFlood flood-opacity="0" result="BackgroundImageFix"/>
<feColorMatrix in="SourceAlpha" type="matrix" values="0 0 0 0 0 0 0 0 0 0 0 0 0 0 0 0 0 0 127 0" result="hardAlpha"/>
<feOffset dy="4"/>
<feGaussianBlur stdDeviation="2"/>
<feComposite in2="hardAlpha" operator="out"/>
<feColorMatrix type="matrix" values="0 0 0 0 0 0 0 0 0 0 0 0 0 0 0 0 0 0 0.25 0"/>
<feBlend mode="normal" in2="BackgroundImageFix" result="effect1_dropShadow_1_372"/>
<feBlend mode="normal" in="SourceGraphic" in2="effect1_dropShadow_1_372" result="shape"/>
<feColorMatrix in="SourceAlpha" type="matrix" values="0 0 0 0 0 0 0 0 0 0 0 0 0 0 0 0 0 0 127 0" result="hardAlpha"/>
<feOffset dx="-25" dy="15"/>
<feGaussianBlur stdDeviation="12.5"/>
<feComposite in2="hardAlpha" operator="arithmetic" k2="-1" k3="1"/>
<feColorMatrix type="matrix" values="0 0 0 0 0.607843 0 0 0 0 0.529412 0 0 0 0 0.921569 0 0 0 1 0"/>
<feBlend mode="normal" in2="shape" result="effect2_innerShadow_1_372"/>
</filter>
<linearGradient id="paint0_linear_1_372" x1="88.6836" y1="89" x2="301.936" y2="438.608" gradientUnits="userSpaceOnUse">
<stop stop-color="#9B87EB"/>
<stop offset="0.659096" stop-color="#3010AC"/>
</linearGradient>
<linearGradient id="paint1_linear_1_372" x1="-5.50001" y1="276" x2="424.5" y2="302" gradientUnits="userSpaceOnUse">
<stop stop-color="#F2F2F2"/>
<stop offset="1" stop-color="#CFCFCF"/>
</linearGradient>
<linearGradient id="paint2_linear_1_372" x1="-8.50001" y1="332.709" x2="421.5" y2="358.709" gradientUnits="userSpaceOnUse">
<stop stop-color="#F2F2F2"/>
<stop offset="1" stop-color="#CFCFCF"/>
</linearGradient>
<linearGradient id="paint3_linear_1_372" x1="-8.50001" y1="386.709" x2="421.5" y2="412.709" gradientUnits="userSpaceOnUse">
<stop stop-color="#F2F2F2"/>
<stop offset="1" stop-color="#CFCFCF"/>
</linearGradient>
</defs>
</svg>
