<svg width="461" height="550" viewBox="0 0 461 550" fill="none" xmlns="http://www.w3.org/2000/svg">
<g filter="url(#filter0_di_4_788)">
<path fill-rule="evenodd" clip-rule="evenodd" d="M362.949 94.0861C357.798 93.3701 352.535 93 347.186 93C284.784 93 234.198 143.368 234.198 205.5C234.198 267.632 284.784 318 347.186 318C394.119 318 434.368 289.509 451.439 248.95C450.338 248.983 449.232 249 448.122 249C391.129 249 344.926 204.676 344.926 150C344.926 129.253 351.579 109.996 362.949 94.0861Z" fill="url(#paint0_linear_4_788)"/>
</g>
<mask id="path-2-inside-1_4_788" fill="white">
<path fill-rule="evenodd" clip-rule="evenodd" d="M341.201 425L171.797 425C88.7569 425 21.4393 357.843 21.4393 275C21.4393 192.157 88.7569 125 171.797 125C238.57 125 295.177 168.423 314.793 228.507C323.207 226.22 332.061 225 341.201 225C396.561 225 441.439 269.772 441.439 325C441.439 380.228 396.561 425 341.201 425Z"/>
</mask>
<g filter="url(#filter1_i_4_788)">
<path fill-rule="evenodd" clip-rule="evenodd" d="M341.201 425L171.797 425C88.7569 425 21.4393 357.843 21.4393 275C21.4393 192.157 88.7569 125 171.797 125C238.57 125 295.177 168.423 314.793 228.507C323.207 226.22 332.061 225 341.201 225C396.561 225 441.439 269.772 441.439 325C441.439 380.228 396.561 425 341.201 425Z" fill="url(#paint1_linear_4_788)"/>
</g>
<path d="M171.797 425V424V425ZM341.201 425V426V425ZM314.793 228.507L313.842 228.817L314.138 229.721L315.055 229.472L314.793 228.507ZM171.797 426L341.201 426V424L171.797 424V426ZM20.4393 275C20.4393 358.397 88.2068 426 171.797 426V424C89.3069 424 22.4393 357.288 22.4393 275H20.4393ZM171.797 124C88.2068 124 20.4393 191.603 20.4393 275H22.4393C22.4393 192.712 89.3069 126 171.797 126V124ZM315.744 228.196C295.997 167.712 239.014 124 171.797 124V126C238.126 126 294.357 169.133 313.842 228.817L315.744 228.196ZM315.055 229.472C323.384 227.208 332.15 226 341.201 226V224C331.971 224 323.029 225.232 314.531 227.542L315.055 229.472ZM341.201 226C396.011 226 440.439 270.326 440.439 325H442.439C442.439 269.217 397.111 224 341.201 224V226ZM440.439 325C440.439 379.674 396.011 424 341.201 424V426C397.111 426 442.439 380.783 442.439 325H440.439Z" fill="black" fill-opacity="0.05" mask="url(#path-2-inside-1_4_788)"/>
<path d="M33.7581 319.025C82.7919 304.325 131.826 304.325 180.86 319.025C229.893 333.724 278.927 333.724 327.961 319.025" stroke="url(#paint2_linear_4_788)" stroke-width="27.7134" stroke-linecap="round"/>
<path d="M31.6567 367.662C80.6906 352.962 129.724 352.962 178.758 367.662C227.792 382.361 276.826 382.361 325.86 367.662" stroke="url(#paint3_linear_4_788)" stroke-width="27.7134" stroke-linecap="round"/>
<path d="M31.6567 413.975C80.6906 399.276 129.724 399.276 178.758 413.975C227.792 428.675 276.826 428.675 325.86 413.975" stroke="url(#paint4_linear_4_788)" stroke-width="27.7134" stroke-linecap="round"/>
<defs>
<filter id="filter0_di_4_788" x="209.198" y="93" width="246.241" height="240" filterUnits="userSpaceOnUse" color-interpolation-filters="sRGB">
<feFlood flood-opacity="0" result="BackgroundImageFix"/>
<feColorMatrix in="SourceAlpha" type="matrix" values="0 0 0 0 0 0 0 0 0 0 0 0 0 0 0 0 0 0 127 0" result="hardAlpha"/>
<feOffset dy="4"/>
<feGaussianBlur stdDeviation="2"/>
<feComposite in2="hardAlpha" operator="out"/>
<feColorMatrix type="matrix" values="0 0 0 0 0 0 0 0 0 0 0 0 0 0 0 0 0 0 0.25 0"/>
<feBlend mode="normal" in2="BackgroundImageFix" result="effect1_dropShadow_4_788"/>
<feBlend mode="normal" in="SourceGraphic" in2="effect1_dropShadow_4_788" result="shape"/>
<feColorMatrix in="SourceAlpha" type="matrix" values="0 0 0 0 0 0 0 0 0 0 0 0 0 0 0 0 0 0 127 0" result="hardAlpha"/>
<feOffset dx="-25" dy="15"/>
<feGaussianBlur stdDeviation="12.5"/>
<feComposite in2="hardAlpha" operator="arithmetic" k2="-1" k3="1"/>
<feColorMatrix type="matrix" values="0 0 0 0 0.607843 0 0 0 0 0.529412 0 0 0 0 0.921569 0 0 0 1 0"/>
<feBlend mode="normal" in2="shape" result="effect2_innerShadow_4_788"/>
</filter>
<filter id="filter1_i_4_788" x="21.4393" y="125" width="420" height="348.647" filterUnits="userSpaceOnUse" color-interpolation-filters="sRGB">
<feFlood flood-opacity="0" result="BackgroundImageFix"/>
<feBlend mode="normal" in="SourceGraphic" in2="BackgroundImageFix" result="shape"/>
<feColorMatrix in="SourceAlpha" type="matrix" values="0 0 0 0 0 0 0 0 0 0 0 0 0 0 0 0 0 0 127 0" result="hardAlpha"/>
<feOffset dy="48.6468"/>
<feGaussianBlur stdDeviation="30"/>
<feComposite in2="hardAlpha" operator="arithmetic" k2="-1" k3="1"/>
<feColorMatrix type="matrix" values="0 0 0 0 1 0 0 0 0 1 0 0 0 0 1 0 0 0 1 0"/>
<feBlend mode="normal" in2="shape" result="effect1_innerShadow_4_788"/>
</filter>
<linearGradient id="paint0_linear_4_788" x1="247.003" y1="93" x2="409.452" y2="350.137" gradientUnits="userSpaceOnUse">
<stop stop-color="#9B87EB"/>
<stop offset="0.659096" stop-color="#3010AC"/>
</linearGradient>
<linearGradient id="paint1_linear_4_788" x1="50.8627" y1="125" x2="440.899" y2="425.861" gradientUnits="userSpaceOnUse">
<stop stop-color="white"/>
<stop offset="1" stop-color="#C1C1C1"/>
</linearGradient>
<linearGradient id="paint2_linear_4_788" x1="15.1952" y1="307.75" x2="316.769" y2="322.643" gradientUnits="userSpaceOnUse">
<stop stop-color="#706F6F"/>
<stop offset="1" stop-color="#CFCFCF"/>
</linearGradient>
<linearGradient id="paint3_linear_4_788" x1="13.0939" y1="356.387" x2="314.667" y2="371.28" gradientUnits="userSpaceOnUse">
<stop stop-color="#706F6F"/>
<stop offset="1" stop-color="#CFCFCF"/>
</linearGradient>
<linearGradient id="paint4_linear_4_788" x1="13.0939" y1="402.701" x2="314.667" y2="417.594" gradientUnits="userSpaceOnUse">
<stop stop-color="#706F6F"/>
<stop offset="1" stop-color="#CFCFCF"/>
</linearGradient>
</defs>
</svg>
