<svg width="585" height="622" viewBox="0 0 585 622" fill="none" xmlns="http://www.w3.org/2000/svg">
<g filter="url(#filter0_di_6_841)">
<path fill-rule="evenodd" clip-rule="evenodd" d="M531.619 237.95C530.541 237.983 529.459 238 528.373 238C472.592 238 427.373 193.676 427.373 139C427.373 118.253 433.884 98.996 445.012 83.0861C439.97 82.3701 434.82 82 429.584 82C368.51 82 319 132.368 319 194.5C319 256.632 368.51 307 429.584 307C475.518 307 514.911 278.509 531.619 237.95Z" fill="url(#paint0_linear_6_841)"/>
</g>
<g filter="url(#filter1_dif_6_841)">
<path fill-rule="evenodd" clip-rule="evenodd" d="M150.946 407.031C216.716 385.108 282.359 385.108 348.129 407.031C417.001 429.988 485.998 429.988 554.869 407.031C558.827 405.712 560.966 401.433 559.647 397.475C558.327 393.517 554.049 391.378 550.091 392.697C518.37 403.271 486.678 408.745 454.987 409.119C455.284 408.143 455.444 407.107 455.444 406.034C455.444 400.193 450.709 395.457 444.868 395.457C439.026 395.457 434.291 400.193 434.291 406.034C434.291 406.94 434.405 407.819 434.619 408.657C407.391 407.102 380.16 401.782 352.907 392.697C284.036 369.74 215.039 369.74 146.168 392.697C142.21 394.017 140.07 398.295 141.39 402.253C142.709 406.211 146.987 408.351 150.946 407.031ZM201.605 409.727C207.017 409.727 211.479 413.792 212.106 419.035C259.045 413.375 306.006 418.362 352.907 433.996C397.161 448.747 441.357 453.573 485.573 448.473C485.52 448.045 485.493 447.608 485.493 447.165C485.493 441.324 490.228 436.588 496.07 436.588C501.282 436.588 505.614 440.359 506.486 445.322C521.017 442.618 535.551 438.843 550.091 433.996C554.049 432.677 558.327 434.816 559.647 438.774C560.966 442.732 558.827 447.011 554.869 448.33C485.998 471.287 417.001 471.287 348.129 448.33C282.359 426.407 216.716 426.407 150.946 448.33C146.987 449.649 142.709 447.51 141.39 443.552C140.07 439.594 142.21 435.315 146.168 433.996C161.176 428.993 176.191 425.081 191.209 422.258C191.091 421.625 191.029 420.972 191.029 420.304C191.029 414.463 195.764 409.727 201.605 409.727ZM347.233 470.316C347.832 468.99 348.166 467.518 348.166 465.968C348.166 460.126 343.431 455.391 337.589 455.391C332.111 455.391 327.605 459.557 327.067 464.894C268.178 450.976 209.224 453.828 150.363 473.448C146.404 474.768 144.265 479.046 145.585 483.004C146.904 486.963 151.182 489.102 155.141 487.782C187.748 476.913 220.324 471.433 252.901 471.341C252.197 472.757 251.802 474.352 251.802 476.041C251.802 481.882 256.537 486.617 262.378 486.617C268.22 486.617 272.955 481.882 272.955 476.041C272.955 474.576 272.657 473.181 272.119 471.912C298.844 473.576 325.574 478.866 352.324 487.782C421.195 510.739 490.193 510.739 559.064 487.782C563.022 486.463 565.161 482.185 563.842 478.226C562.522 474.268 558.244 472.129 554.286 473.448C488.516 495.372 422.872 495.372 357.102 473.448C353.813 472.352 350.523 471.308 347.233 470.316Z" fill="url(#paint1_linear_6_841)"/>
</g>
<g filter="url(#filter2_df_6_841)">
<path fill-rule="evenodd" clip-rule="evenodd" d="M333.056 345.596C341.016 351.821 346.565 358.794 349.102 366.235C417.642 388.861 486.306 388.751 554.845 365.904C558.803 364.585 560.942 360.306 559.623 356.348C558.303 352.39 554.025 350.251 550.067 351.57C484.297 373.494 418.653 373.494 352.883 351.57C346.275 349.368 339.666 347.376 333.056 345.596Z" fill="url(#paint2_linear_6_841)"/>
</g>
<g filter="url(#filter3_bdi_6_841)">
<mask id="path-4-inside-1_6_841" fill="white">
<path fill-rule="evenodd" clip-rule="evenodd" d="M398.444 215.244C381.341 162.859 331.988 125 273.771 125C201.371 125 142.679 183.552 142.679 255.78C142.679 328.007 201.371 386.56 273.771 386.56H421.34C421.382 386.56 421.425 386.56 421.468 386.56C469.734 386.56 508.862 347.525 508.862 299.373C508.862 251.221 469.734 212.187 421.468 212.187C413.499 212.187 405.779 213.251 398.444 215.244Z"/>
</mask>
<path fill-rule="evenodd" clip-rule="evenodd" d="M398.444 215.244C381.341 162.859 331.988 125 273.771 125C201.371 125 142.679 183.552 142.679 255.78C142.679 328.007 201.371 386.56 273.771 386.56H421.34C421.382 386.56 421.425 386.56 421.468 386.56C469.734 386.56 508.862 347.525 508.862 299.373C508.862 251.221 469.734 212.187 421.468 212.187C413.499 212.187 405.779 213.251 398.444 215.244Z" fill="url(#paint3_linear_6_841)"/>
<path d="M398.444 215.244L397.615 215.515L397.872 216.303L398.672 216.085L398.444 215.244ZM421.34 386.56L421.341 385.688H421.34V386.56ZM399.273 214.973C382.056 162.239 332.375 124.128 273.771 124.128V125.872C331.601 125.872 380.627 163.478 397.615 215.515L399.273 214.973ZM273.771 124.128C200.891 124.128 141.807 183.069 141.807 255.78H143.551C143.551 184.036 201.85 125.872 273.771 125.872V124.128ZM141.807 255.78C141.807 328.491 200.891 387.431 273.771 387.431V385.688C201.85 385.688 143.551 327.524 143.551 255.78H141.807ZM273.771 387.431H421.34V385.688H273.771V387.431ZM421.468 385.688C421.425 385.688 421.383 385.688 421.341 385.688L421.338 387.431C421.381 387.431 421.425 387.431 421.468 387.431V385.688ZM507.99 299.373C507.99 347.041 469.255 385.688 421.468 385.688V387.431C470.214 387.431 509.734 348.008 509.734 299.373H507.99ZM421.468 213.058C469.255 213.058 507.99 251.705 507.99 299.373H509.734C509.734 250.738 470.214 211.315 421.468 211.315V213.058ZM398.672 216.085C405.934 214.112 413.577 213.058 421.468 213.058V211.315C413.421 211.315 405.625 212.389 398.215 214.403L398.672 216.085Z" fill="#F6DCC5" fill-opacity="0.5" mask="url(#path-4-inside-1_6_841)"/>
</g>
<defs>
<filter id="filter0_di_6_841" x="294" y="82" width="241.619" height="240" filterUnits="userSpaceOnUse" color-interpolation-filters="sRGB">
<feFlood flood-opacity="0" result="BackgroundImageFix"/>
<feColorMatrix in="SourceAlpha" type="matrix" values="0 0 0 0 0 0 0 0 0 0 0 0 0 0 0 0 0 0 127 0" result="hardAlpha"/>
<feOffset dy="4"/>
<feGaussianBlur stdDeviation="2"/>
<feComposite in2="hardAlpha" operator="out"/>
<feColorMatrix type="matrix" values="0 0 0 0 0 0 0 0 0 0 0 0 0 0 0 0 0 0 0.25 0"/>
<feBlend mode="normal" in2="BackgroundImageFix" result="effect1_dropShadow_6_841"/>
<feBlend mode="normal" in="SourceGraphic" in2="effect1_dropShadow_6_841" result="shape"/>
<feColorMatrix in="SourceAlpha" type="matrix" values="0 0 0 0 0 0 0 0 0 0 0 0 0 0 0 0 0 0 127 0" result="hardAlpha"/>
<feOffset dx="-25" dy="15"/>
<feGaussianBlur stdDeviation="12.5"/>
<feComposite in2="hardAlpha" operator="arithmetic" k2="-1" k3="1"/>
<feColorMatrix type="matrix" values="0 0 0 0 0.607843 0 0 0 0 0.529412 0 0 0 0 0.921569 0 0 0 1 0"/>
<feBlend mode="normal" in2="shape" result="effect2_innerShadow_6_841"/>
</filter>
<filter id="filter1_dif_6_841" x="137.642" y="372.122" width="429.947" height="137.579" filterUnits="userSpaceOnUse" color-interpolation-filters="sRGB">
<feFlood flood-opacity="0" result="BackgroundImageFix"/>
<feColorMatrix in="SourceAlpha" type="matrix" values="0 0 0 0 0 0 0 0 0 0 0 0 0 0 0 0 0 0 127 0" result="hardAlpha"/>
<feOffset dy="1.34305"/>
<feGaussianBlur stdDeviation="1.67882"/>
<feComposite in2="hardAlpha" operator="out"/>
<feColorMatrix type="matrix" values="0 0 0 0 0.933333 0 0 0 0 0.827451 0 0 0 0 0.729412 0 0 0 1 0"/>
<feBlend mode="normal" in2="BackgroundImageFix" result="effect1_dropShadow_6_841"/>
<feBlend mode="normal" in="SourceGraphic" in2="effect1_dropShadow_6_841" result="shape"/>
<feColorMatrix in="SourceAlpha" type="matrix" values="0 0 0 0 0 0 0 0 0 0 0 0 0 0 0 0 0 0 127 0" result="hardAlpha"/>
<feOffset dx="-3.02187" dy="-3.35763"/>
<feGaussianBlur stdDeviation="4.5328"/>
<feComposite in2="hardAlpha" operator="arithmetic" k2="-1" k3="1"/>
<feColorMatrix type="matrix" values="0 0 0 0 0.933333 0 0 0 0 0.827451 0 0 0 0 0.733333 0 0 0 1 0"/>
<feBlend mode="normal" in2="shape" result="effect2_innerShadow_6_841"/>
<feGaussianBlur stdDeviation="0.839408" result="effect3_foregroundBlur_6_841"/>
</filter>
<filter id="filter2_df_6_841" x="330.37" y="342.91" width="232.329" height="42.8979" filterUnits="userSpaceOnUse" color-interpolation-filters="sRGB">
<feFlood flood-opacity="0" result="BackgroundImageFix"/>
<feColorMatrix in="SourceAlpha" type="matrix" values="0 0 0 0 0 0 0 0 0 0 0 0 0 0 0 0 0 0 127 0" result="hardAlpha"/>
<feOffset dy="1.34305"/>
<feGaussianBlur stdDeviation="0.671526"/>
<feComposite in2="hardAlpha" operator="out"/>
<feColorMatrix type="matrix" values="0 0 0 0 0 0 0 0 0 0 0 0 0 0 0 0 0 0 0.25 0"/>
<feBlend mode="normal" in2="BackgroundImageFix" result="effect1_dropShadow_6_841"/>
<feBlend mode="normal" in="SourceGraphic" in2="effect1_dropShadow_6_841" result="shape"/>
<feGaussianBlur stdDeviation="1.34305" result="effect2_foregroundBlur_6_841"/>
</filter>
<filter id="filter3_bdi_6_841" x="0.564827" y="99.8178" width="584.15" height="521.274" filterUnits="userSpaceOnUse" color-interpolation-filters="sRGB">
<feFlood flood-opacity="0" result="BackgroundImageFix"/>
<feGaussianBlur in="BackgroundImage" stdDeviation="12.5911"/>
<feComposite in2="SourceAlpha" operator="in" result="effect1_backgroundBlur_6_841"/>
<feColorMatrix in="SourceAlpha" type="matrix" values="0 0 0 0 0 0 0 0 0 0 0 0 0 0 0 0 0 0 127 0" result="hardAlpha"/>
<feOffset dx="-33.1309" dy="125.549"/>
<feGaussianBlur stdDeviation="54.4916"/>
<feComposite in2="hardAlpha" operator="out"/>
<feColorMatrix type="matrix" values="0 0 0 0 0.666667 0 0 0 0 0.578125 0 0 0 0 0.5 0 0 0 0.25 0"/>
<feBlend mode="normal" in2="effect1_backgroundBlur_6_841" result="effect2_dropShadow_6_841"/>
<feBlend mode="normal" in="SourceGraphic" in2="effect2_dropShadow_6_841" result="shape"/>
<feColorMatrix in="SourceAlpha" type="matrix" values="0 0 0 0 0 0 0 0 0 0 0 0 0 0 0 0 0 0 127 0" result="hardAlpha"/>
<feOffset dy="10.4624"/>
<feGaussianBlur stdDeviation="14.3858"/>
<feComposite in2="hardAlpha" operator="arithmetic" k2="-1" k3="1"/>
<feColorMatrix type="matrix" values="0 0 0 0 0.956863 0 0 0 0 0.854902 0 0 0 0 0.760784 0 0 0 1 0"/>
<feBlend mode="normal" in2="shape" result="effect3_innerShadow_6_841"/>
</filter>
<linearGradient id="paint0_linear_6_841" x1="331.533" y1="82" x2="495.458" y2="335.953" gradientUnits="userSpaceOnUse">
<stop stop-color="#9B87EB"/>
<stop offset="0.659096" stop-color="#3010AC"/>
</linearGradient>
<linearGradient id="paint1_linear_6_841" x1="79.6949" y1="325.75" x2="891.33" y2="334.21" gradientUnits="userSpaceOnUse">
<stop stop-color="#F3D9C1"/>
<stop offset="1" stop-color="#CCA887"/>
</linearGradient>
<linearGradient id="paint2_linear_6_841" x1="318.435" y1="364.312" x2="726.366" y2="375.509" gradientUnits="userSpaceOnUse">
<stop stop-color="#F3D9C1"/>
<stop offset="1" stop-color="#CCA887"/>
</linearGradient>
<linearGradient id="paint3_linear_6_841" x1="175.752" y1="125.839" x2="497.245" y2="413.588" gradientUnits="userSpaceOnUse">
<stop stop-color="#F2D8C0"/>
<stop offset="1" stop-color="#CDAB8D"/>
<stop offset="1" stop-color="#C8A483"/>
</linearGradient>
</defs>
</svg>
