<svg width="460" height="550" viewBox="0 0 460 550" fill="none" xmlns="http://www.w3.org/2000/svg">
<g filter="url(#filter0_i_6_876)">
<circle cx="349.082" cy="195.5" r="87.5" fill="url(#paint0_linear_6_876)"/>
</g>
<mask id="path-2-inside-1_6_876" fill="white">
<path fill-rule="evenodd" clip-rule="evenodd" d="M348.761 421L179.358 421C96.3176 421 29 353.843 29 271C29 188.157 96.3176 121 179.358 121C246.131 121 302.738 164.423 322.354 224.507C330.767 222.22 339.621 221 348.761 221C404.122 221 449 265.771 449 321C449 376.228 404.122 421 348.761 421Z"/>
</mask>
<g filter="url(#filter1_i_6_876)">
<path fill-rule="evenodd" clip-rule="evenodd" d="M348.761 421L179.358 421C96.3176 421 29 353.843 29 271C29 188.157 96.3176 121 179.358 121C246.131 121 302.738 164.423 322.354 224.507C330.767 222.22 339.621 221 348.761 221C404.122 221 449 265.771 449 321C449 376.228 404.122 421 348.761 421Z" fill="url(#paint1_linear_6_876)"/>
</g>
<path d="M179.358 421V420V421ZM348.761 421V422V421ZM322.354 224.507L321.403 224.817L321.698 225.721L322.616 225.472L322.354 224.507ZM179.358 422L348.761 422V420L179.358 420V422ZM28 271C28 354.397 95.7675 422 179.358 422V420C96.8676 420 30 353.288 30 271H28ZM179.358 120C95.7675 120 28 187.603 28 271H30C30 188.712 96.8676 122 179.358 122V120ZM323.304 224.196C303.558 163.712 246.575 120 179.358 120V122C245.687 122 301.918 165.133 321.403 224.817L323.304 224.196ZM322.616 225.472C330.945 223.208 339.711 222 348.761 222V220C339.532 220 330.59 221.232 322.091 223.542L322.616 225.472ZM348.761 222C403.572 222 448 266.326 448 321H450C450 265.217 404.672 220 348.761 220V222ZM448 321C448 375.674 403.572 420 348.761 420V422C404.672 422 450 376.783 450 321H448Z" fill="black" fill-opacity="0.05" mask="url(#path-2-inside-1_6_876)"/>
<path d="M24.0568 307.025C72.0473 292.325 120.038 292.325 168.028 307.025C216.019 321.724 264.009 321.724 312 307.025" stroke="url(#paint2_linear_6_876)" stroke-width="27.7134" stroke-linecap="round"/>
<path d="M22 355.662C69.9905 340.962 117.981 340.962 165.972 355.662C213.962 370.361 261.953 370.361 309.943 355.662" stroke="url(#paint3_linear_6_876)" stroke-width="27.7134" stroke-linecap="round"/>
<path d="M22 401.975C69.9905 387.276 117.981 387.276 165.972 401.975C213.962 416.675 261.953 416.675 309.943 401.975" stroke="url(#paint4_linear_6_876)" stroke-width="27.7134" stroke-linecap="round"/>
<defs>
<filter id="filter0_i_6_876" x="261.582" y="108" width="175" height="195" filterUnits="userSpaceOnUse" color-interpolation-filters="sRGB">
<feFlood flood-opacity="0" result="BackgroundImageFix"/>
<feBlend mode="normal" in="SourceGraphic" in2="BackgroundImageFix" result="shape"/>
<feColorMatrix in="SourceAlpha" type="matrix" values="0 0 0 0 0 0 0 0 0 0 0 0 0 0 0 0 0 0 127 0" result="hardAlpha"/>
<feOffset dy="20"/>
<feGaussianBlur stdDeviation="35"/>
<feComposite in2="hardAlpha" operator="arithmetic" k2="-1" k3="1"/>
<feColorMatrix type="matrix" values="0 0 0 0 1 0 0 0 0 1 0 0 0 0 1 0 0 0 1 0"/>
<feBlend mode="overlay" in2="shape" result="effect1_innerShadow_6_876"/>
</filter>
<filter id="filter1_i_6_876" x="29" y="121" width="420" height="348.647" filterUnits="userSpaceOnUse" color-interpolation-filters="sRGB">
<feFlood flood-opacity="0" result="BackgroundImageFix"/>
<feBlend mode="normal" in="SourceGraphic" in2="BackgroundImageFix" result="shape"/>
<feColorMatrix in="SourceAlpha" type="matrix" values="0 0 0 0 0 0 0 0 0 0 0 0 0 0 0 0 0 0 127 0" result="hardAlpha"/>
<feOffset dy="48.6468"/>
<feGaussianBlur stdDeviation="30"/>
<feComposite in2="hardAlpha" operator="arithmetic" k2="-1" k3="1"/>
<feColorMatrix type="matrix" values="0 0 0 0 1 0 0 0 0 1 0 0 0 0 1 0 0 0 1 0"/>
<feBlend mode="normal" in2="shape" result="effect1_innerShadow_6_876"/>
</filter>
<linearGradient id="paint0_linear_6_876" x1="349.082" y1="108" x2="349.082" y2="283" gradientUnits="userSpaceOnUse">
<stop stop-color="#FFD358"/>
<stop offset="1" stop-color="#FA6C21"/>
</linearGradient>
<linearGradient id="paint1_linear_6_876" x1="58.4233" y1="121" x2="448.459" y2="421.861" gradientUnits="userSpaceOnUse">
<stop stop-color="white"/>
<stop offset="1" stop-color="#C1C1C1"/>
</linearGradient>
<linearGradient id="paint2_linear_6_876" x1="5.88891" y1="295.75" x2="301.076" y2="310.018" gradientUnits="userSpaceOnUse">
<stop stop-color="#0F62DE"/>
<stop offset="1" stop-color="#CFCFCF"/>
</linearGradient>
<linearGradient id="paint3_linear_6_876" x1="3.83215" y1="344.387" x2="299.019" y2="358.655" gradientUnits="userSpaceOnUse">
<stop stop-color="#0F62DE"/>
<stop offset="1" stop-color="#CFCFCF"/>
</linearGradient>
<linearGradient id="paint4_linear_6_876" x1="3.83215" y1="390.701" x2="299.019" y2="404.968" gradientUnits="userSpaceOnUse">
<stop stop-color="#0F62DE"/>
<stop offset="1" stop-color="#CFCFCF"/>
</linearGradient>
</defs>
</svg>
