<svg width="460" height="550" viewBox="0 0 460 550" fill="none" xmlns="http://www.w3.org/2000/svg">
<g filter="url(#filter0_i_1_566)">
<circle cx="337.082" cy="195.5" r="87.5" fill="url(#paint0_linear_1_566)"/>
</g>
<mask id="path-2-inside-1_1_566" fill="white">
<path fill-rule="evenodd" clip-rule="evenodd" d="M336.761 421L167.358 421C84.3176 421 17 353.843 17 271C17 188.157 84.3176 121 167.358 121C234.131 121 290.738 164.423 310.354 224.507C318.767 222.22 327.621 221 336.761 221C392.122 221 437 265.771 437 321C437 376.228 392.122 421 336.761 421Z"/>
</mask>
<g filter="url(#filter1_i_1_566)">
<path fill-rule="evenodd" clip-rule="evenodd" d="M336.761 421L167.358 421C84.3176 421 17 353.843 17 271C17 188.157 84.3176 121 167.358 121C234.131 121 290.738 164.423 310.354 224.507C318.767 222.22 327.621 221 336.761 221C392.122 221 437 265.771 437 321C437 376.228 392.122 421 336.761 421Z" fill="url(#paint1_linear_1_566)"/>
</g>
<path d="M167.358 421V420V421ZM336.761 421V422V421ZM310.354 224.507L309.403 224.817L309.698 225.721L310.616 225.472L310.354 224.507ZM167.358 422L336.761 422V420L167.358 420V422ZM16 271C16 354.397 83.7675 422 167.358 422V420C84.8676 420 18 353.288 18 271H16ZM167.358 120C83.7675 120 16 187.603 16 271H18C18 188.712 84.8676 122 167.358 122V120ZM311.304 224.196C291.558 163.712 234.575 120 167.358 120V122C233.687 122 289.918 165.133 309.403 224.817L311.304 224.196ZM310.616 225.472C318.945 223.208 327.711 222 336.761 222V220C327.532 220 318.59 221.232 310.091 223.542L310.616 225.472ZM336.761 222C391.572 222 436 266.326 436 321H438C438 265.217 392.672 220 336.761 220V222ZM436 321C436 375.674 391.572 420 336.761 420V422C392.672 422 438 376.783 438 321H436Z" fill="black" fill-opacity="0.05" mask="url(#path-2-inside-1_1_566)"/>
<defs>
<filter id="filter0_i_1_566" x="249.582" y="108" width="175" height="195" filterUnits="userSpaceOnUse" color-interpolation-filters="sRGB">
<feFlood flood-opacity="0" result="BackgroundImageFix"/>
<feBlend mode="normal" in="SourceGraphic" in2="BackgroundImageFix" result="shape"/>
<feColorMatrix in="SourceAlpha" type="matrix" values="0 0 0 0 0 0 0 0 0 0 0 0 0 0 0 0 0 0 127 0" result="hardAlpha"/>
<feOffset dy="20"/>
<feGaussianBlur stdDeviation="35"/>
<feComposite in2="hardAlpha" operator="arithmetic" k2="-1" k3="1"/>
<feColorMatrix type="matrix" values="0 0 0 0 1 0 0 0 0 1 0 0 0 0 1 0 0 0 1 0"/>
<feBlend mode="overlay" in2="shape" result="effect1_innerShadow_1_566"/>
</filter>
<filter id="filter1_i_1_566" x="17" y="121" width="420" height="348.647" filterUnits="userSpaceOnUse" color-interpolation-filters="sRGB">
<feFlood flood-opacity="0" result="BackgroundImageFix"/>
<feBlend mode="normal" in="SourceGraphic" in2="BackgroundImageFix" result="shape"/>
<feColorMatrix in="SourceAlpha" type="matrix" values="0 0 0 0 0 0 0 0 0 0 0 0 0 0 0 0 0 0 127 0" result="hardAlpha"/>
<feOffset dy="48.6468"/>
<feGaussianBlur stdDeviation="30"/>
<feComposite in2="hardAlpha" operator="arithmetic" k2="-1" k3="1"/>
<feColorMatrix type="matrix" values="0 0 0 0 1 0 0 0 0 1 0 0 0 0 1 0 0 0 1 0"/>
<feBlend mode="normal" in2="shape" result="effect1_innerShadow_1_566"/>
</filter>
<linearGradient id="paint0_linear_1_566" x1="337.082" y1="108" x2="337.082" y2="283" gradientUnits="userSpaceOnUse">
<stop stop-color="#FFD358"/>
<stop offset="1" stop-color="#FA6C21"/>
</linearGradient>
<linearGradient id="paint1_linear_1_566" x1="46.4233" y1="121" x2="436.459" y2="421.861" gradientUnits="userSpaceOnUse">
<stop stop-color="white"/>
<stop offset="1" stop-color="#C1C1C1"/>
</linearGradient>
</defs>
</svg>
