<svg width="461" height="550" viewBox="0 0 461 550" fill="none" xmlns="http://www.w3.org/2000/svg">
<g filter="url(#filter0_di_1_178)">
<path fill-rule="evenodd" clip-rule="evenodd" d="M359.884 89.0861C354.733 88.3701 349.47 88 344.121 88C281.719 88 231.132 138.368 231.132 200.5C231.132 262.632 281.719 313 344.121 313C391.053 313 431.303 284.509 448.374 243.95C447.272 243.983 446.167 244 445.057 244C388.063 244 341.861 199.676 341.861 145C341.861 124.253 348.513 104.996 359.884 89.0861Z" fill="url(#paint0_linear_1_178)"/>
</g>
<mask id="path-2-inside-1_1_178" fill="white">
<path fill-rule="evenodd" clip-rule="evenodd" d="M334.048 425H164.645C81.6045 425 14.2871 357.843 14.2871 275C14.2871 192.157 81.6047 125 164.645 125C231.418 125 288.025 168.423 307.641 228.507C316.054 226.22 324.909 225 334.048 225C389.409 225 434.287 269.772 434.287 325C434.287 380.228 389.409 425 334.048 425C334.048 425 334.048 425 334.048 425Z"/>
</mask>
<g filter="url(#filter1_i_1_178)">
<path fill-rule="evenodd" clip-rule="evenodd" d="M334.048 425H164.645C81.6045 425 14.2871 357.843 14.2871 275C14.2871 192.157 81.6047 125 164.645 125C231.418 125 288.025 168.423 307.641 228.507C316.054 226.22 324.909 225 334.048 225C389.409 225 434.287 269.772 434.287 325C434.287 380.228 389.409 425 334.048 425C334.048 425 334.048 425 334.048 425Z" fill="url(#paint1_linear_1_178)"/>
</g>
<path d="M164.645 425V426V425ZM307.641 228.507L306.69 228.817L306.985 229.721L307.903 229.472L307.641 228.507ZM164.645 426H334.048V424H164.645V426ZM13.2871 275C13.2871 358.397 81.0545 426 164.645 426V424C82.1545 424 15.2871 357.288 15.2871 275H13.2871ZM164.645 124C81.0546 124 13.2871 191.603 13.2871 275H15.2871C15.2871 192.712 82.1547 126 164.645 126V124ZM308.591 228.196C288.845 167.712 231.862 124 164.645 124V126C230.974 126 287.205 169.133 306.69 228.817L308.591 228.196ZM307.903 229.472C316.232 227.208 324.998 226 334.048 226V224C324.819 224 315.877 225.232 307.379 227.542L307.903 229.472ZM334.048 226C388.859 226 433.287 270.326 433.287 325H435.287C435.287 269.217 389.959 224 334.048 224V226ZM433.287 325C433.287 379.674 388.859 424 334.048 424V426C389.959 426 435.287 380.783 435.287 325H433.287ZM334.048 424C334.007 424 333.969 424.003 333.936 424.006C333.903 424.01 333.874 424.015 333.849 424.02C333.823 424.025 333.801 424.031 333.782 424.036C333.763 424.041 333.746 424.047 333.732 424.051C333.718 424.056 333.706 424.06 333.696 424.064C333.687 424.068 333.679 424.071 333.673 424.073C333.667 424.076 333.662 424.078 333.659 424.079C333.657 424.08 333.656 424.08 333.655 424.08C333.655 424.081 333.655 424.081 333.655 424.081C333.654 424.081 333.654 424.081 333.654 424.081L333.654 424.081H333.654C333.654 424.081 333.656 424.08 333.659 424.079C333.662 424.078 333.666 424.076 333.672 424.073C333.679 424.071 333.687 424.068 333.696 424.064C333.706 424.06 333.718 424.056 333.732 424.051C333.746 424.047 333.762 424.041 333.782 424.036C333.801 424.031 333.823 424.025 333.848 424.02C333.874 424.015 333.903 424.01 333.936 424.006C333.969 424.003 334.007 424 334.048 424V426C334.09 426 334.127 425.997 334.16 425.994C334.193 425.99 334.223 425.985 334.248 425.98C334.273 425.975 334.296 425.969 334.315 425.964C334.334 425.959 334.35 425.953 334.364 425.949C334.378 425.944 334.39 425.94 334.4 425.936C334.41 425.932 334.418 425.929 334.424 425.927C334.43 425.924 334.435 425.922 334.438 425.921C334.439 425.92 334.44 425.92 334.441 425.92C334.441 425.919 334.442 425.919 334.442 425.919C334.442 425.919 334.442 425.919 334.442 425.919L334.442 425.919H334.442C334.443 425.919 334.44 425.92 334.438 425.921C334.435 425.922 334.43 425.924 334.424 425.927C334.418 425.929 334.41 425.932 334.4 425.936C334.39 425.94 334.378 425.944 334.365 425.949C334.351 425.953 334.334 425.958 334.315 425.964C334.296 425.969 334.273 425.975 334.248 425.98C334.223 425.985 334.193 425.99 334.16 425.994C334.127 425.997 334.09 426 334.048 426V424Z" fill="black" fill-opacity="0.05" mask="url(#path-2-inside-1_1_178)"/>
<defs>
<filter id="filter0_di_1_178" x="206.132" y="88" width="246.241" height="240" filterUnits="userSpaceOnUse" color-interpolation-filters="sRGB">
<feFlood flood-opacity="0" result="BackgroundImageFix"/>
<feColorMatrix in="SourceAlpha" type="matrix" values="0 0 0 0 0 0 0 0 0 0 0 0 0 0 0 0 0 0 127 0" result="hardAlpha"/>
<feOffset dy="4"/>
<feGaussianBlur stdDeviation="2"/>
<feComposite in2="hardAlpha" operator="out"/>
<feColorMatrix type="matrix" values="0 0 0 0 0 0 0 0 0 0 0 0 0 0 0 0 0 0 0.25 0"/>
<feBlend mode="normal" in2="BackgroundImageFix" result="effect1_dropShadow_1_178"/>
<feBlend mode="normal" in="SourceGraphic" in2="effect1_dropShadow_1_178" result="shape"/>
<feColorMatrix in="SourceAlpha" type="matrix" values="0 0 0 0 0 0 0 0 0 0 0 0 0 0 0 0 0 0 127 0" result="hardAlpha"/>
<feOffset dx="-25" dy="15"/>
<feGaussianBlur stdDeviation="12.5"/>
<feComposite in2="hardAlpha" operator="arithmetic" k2="-1" k3="1"/>
<feColorMatrix type="matrix" values="0 0 0 0 0.607843 0 0 0 0 0.529412 0 0 0 0 0.921569 0 0 0 1 0"/>
<feBlend mode="normal" in2="shape" result="effect2_innerShadow_1_178"/>
</filter>
<filter id="filter1_i_1_178" x="14.2871" y="125" width="420" height="348.647" filterUnits="userSpaceOnUse" color-interpolation-filters="sRGB">
<feFlood flood-opacity="0" result="BackgroundImageFix"/>
<feBlend mode="normal" in="SourceGraphic" in2="BackgroundImageFix" result="shape"/>
<feColorMatrix in="SourceAlpha" type="matrix" values="0 0 0 0 0 0 0 0 0 0 0 0 0 0 0 0 0 0 127 0" result="hardAlpha"/>
<feOffset dy="48.6468"/>
<feGaussianBlur stdDeviation="30"/>
<feComposite in2="hardAlpha" operator="arithmetic" k2="-1" k3="1"/>
<feColorMatrix type="matrix" values="0 0 0 0 1 0 0 0 0 1 0 0 0 0 1 0 0 0 1 0"/>
<feBlend mode="normal" in2="shape" result="effect1_innerShadow_1_178"/>
</filter>
<linearGradient id="paint0_linear_1_178" x1="243.938" y1="88" x2="406.386" y2="345.137" gradientUnits="userSpaceOnUse">
<stop stop-color="#9B87EB"/>
<stop offset="0.659096" stop-color="#3010AC"/>
</linearGradient>
<linearGradient id="paint1_linear_1_178" x1="43.7104" y1="125" x2="433.746" y2="425.861" gradientUnits="userSpaceOnUse">
<stop stop-color="white"/>
<stop offset="1" stop-color="#C1C1C1"/>
</linearGradient>
</defs>
</svg>
