<svg width="460" height="550" viewBox="0 0 460 550" fill="none" xmlns="http://www.w3.org/2000/svg">
<g style="mix-blend-mode:color-burn" opacity="0.5" filter="url(#filter0_f_1_463)">
<path fill-rule="evenodd" clip-rule="evenodd" d="M272.163 509.382C267.737 517.751 258.766 523.477 248.42 523.477C233.685 523.477 221.74 511.865 221.74 497.542C221.74 495.488 221.976 493.412 222.425 491.304C220.278 496.289 219.072 501.046 219.072 505.689C219.072 520.012 231.017 531.624 245.752 531.624C259.197 531.624 270.319 521.956 272.163 509.382Z" fill="url(#paint0_radial_1_463)" fill-opacity="0.3"/>
</g>
<path opacity="0.5" d="M272.165 505.561C272.165 519.884 260.22 531.495 245.485 531.495C230.75 531.495 218.806 519.884 218.806 505.561C218.806 491.237 230.278 475.824 245.485 456C258.291 475.281 272.165 491.237 272.165 505.561Z" fill="url(#paint1_radial_1_463)"/>
<g style="mix-blend-mode:screen" opacity="0.3">
<ellipse cx="252.288" cy="484.243" rx="27.3465" ry="27.1565" fill="url(#paint2_radial_1_463)"/>
</g>
<g style="mix-blend-mode:screen" opacity="0.3">
<ellipse cx="236.814" cy="513.843" rx="27.3465" ry="27.1565" fill="url(#paint3_radial_1_463)"/>
</g>
<g style="mix-blend-mode:color-burn" opacity="0.5" filter="url(#filter1_f_1_463)">
<path fill-rule="evenodd" clip-rule="evenodd" d="M169.047 447.566C165.886 453.769 159.478 458.012 152.088 458.012C141.563 458.012 133.031 449.406 133.031 438.79C133.031 437.268 133.2 435.729 133.52 434.166C131.986 437.861 131.125 441.387 131.125 444.828C131.125 455.444 139.658 464.05 150.182 464.05C159.786 464.05 167.73 456.885 169.047 447.566Z" fill="url(#paint4_radial_1_463)" fill-opacity="0.3"/>
</g>
<path opacity="0.5" d="M169.048 444.733C169.048 455.349 160.516 463.955 149.991 463.955C139.467 463.955 130.935 455.349 130.935 444.733C130.935 434.117 139.129 422.693 149.991 408C159.139 422.291 169.048 434.117 169.048 444.733Z" fill="url(#paint5_radial_1_463)"/>
<g style="mix-blend-mode:screen" opacity="0.3">
<ellipse cx="154.851" cy="428.933" rx="19.5332" ry="20.1278" fill="url(#paint6_radial_1_463)"/>
</g>
<g style="mix-blend-mode:screen" opacity="0.3">
<ellipse cx="143.798" cy="450.872" rx="19.5332" ry="20.1278" fill="url(#paint7_radial_1_463)"/>
</g>
<g filter="url(#filter2_f_1_463)">
<line x1="7.5" y1="-7.5" x2="87.3875" y2="-7.5" transform="matrix(-0.422558 0.906336 -0.907105 -0.420905 325.095 401)" stroke="url(#paint8_linear_1_463)" stroke-width="15" stroke-linecap="round"/>
</g>
<g filter="url(#filter3_f_1_463)">
<line x1="7.5" y1="-7.5" x2="87.3875" y2="-7.5" transform="matrix(-0.422558 0.906336 -0.907105 -0.420905 219.492 397)" stroke="url(#paint9_linear_1_463)" stroke-width="15" stroke-linecap="round"/>
</g>
<g filter="url(#filter4_i_1_463)">
<ellipse cx="345.291" cy="182.5" rx="87.7088" ry="87.5" fill="url(#paint10_linear_1_463)"/>
</g>
<mask id="path-12-inside-1_1_463" fill="white">
<path fill-rule="evenodd" clip-rule="evenodd" d="M338.761 395L169.358 395C86.3176 395 19 327.843 19 245C19 162.157 86.3176 95 169.358 95C236.131 95 292.738 138.423 312.354 198.507C320.767 196.22 329.621 195 338.761 195C394.122 195 439 239.771 439 295C439 350.228 394.122 395 338.761 395Z"/>
</mask>
<g filter="url(#filter5_i_1_463)">
<path fill-rule="evenodd" clip-rule="evenodd" d="M338.761 395L169.358 395C86.3176 395 19 327.843 19 245C19 162.157 86.3176 95 169.358 95C236.131 95 292.738 138.423 312.354 198.507C320.767 196.22 329.621 195 338.761 195C394.122 195 439 239.771 439 295C439 350.228 394.122 395 338.761 395Z" fill="url(#paint11_linear_1_463)"/>
</g>
<path d="M169.358 395V394V395ZM338.761 395V396V395ZM312.354 198.507L311.403 198.817L311.698 199.721L312.616 199.472L312.354 198.507ZM169.358 396L338.761 396V394L169.358 394V396ZM18 245C18 328.397 85.7675 396 169.358 396V394C86.8676 394 20 327.288 20 245H18ZM169.358 94C85.7675 94 18 161.603 18 245H20C20 162.712 86.8676 96 169.358 96V94ZM313.304 198.196C293.558 137.712 236.575 94 169.358 94V96C235.687 96 291.918 139.133 311.403 198.817L313.304 198.196ZM312.616 199.472C320.945 197.208 329.711 196 338.761 196V194C329.532 194 320.59 195.232 312.091 197.542L312.616 199.472ZM338.761 196C393.572 196 438 240.326 438 295H440C440 239.217 394.672 194 338.761 194V196ZM438 295C438 349.674 393.572 394 338.761 394V396C394.672 396 440 350.783 440 295H438Z" fill="black" fill-opacity="0.05" mask="url(#path-12-inside-1_1_463)"/>
<defs>
<filter id="filter0_f_1_463" x="211.072" y="483.304" width="69.0905" height="56.32" filterUnits="userSpaceOnUse" color-interpolation-filters="sRGB">
<feFlood flood-opacity="0" result="BackgroundImageFix"/>
<feBlend mode="normal" in="SourceGraphic" in2="BackgroundImageFix" result="shape"/>
<feGaussianBlur stdDeviation="4" result="effect1_foregroundBlur_1_463"/>
</filter>
<filter id="filter1_f_1_463" x="123.125" y="426.166" width="53.9218" height="45.884" filterUnits="userSpaceOnUse" color-interpolation-filters="sRGB">
<feFlood flood-opacity="0" result="BackgroundImageFix"/>
<feBlend mode="normal" in="SourceGraphic" in2="BackgroundImageFix" result="shape"/>
<feGaussianBlur stdDeviation="4" result="effect1_foregroundBlur_1_463"/>
</filter>
<filter id="filter2_f_1_463" x="285.465" y="401.458" width="52.7711" height="91.3981" filterUnits="userSpaceOnUse" color-interpolation-filters="sRGB">
<feFlood flood-opacity="0" result="BackgroundImageFix"/>
<feBlend mode="normal" in="SourceGraphic" in2="BackgroundImageFix" result="shape"/>
<feGaussianBlur stdDeviation="1" result="effect1_foregroundBlur_1_463"/>
</filter>
<filter id="filter3_f_1_463" x="179.862" y="397.458" width="52.7711" height="91.3981" filterUnits="userSpaceOnUse" color-interpolation-filters="sRGB">
<feFlood flood-opacity="0" result="BackgroundImageFix"/>
<feBlend mode="normal" in="SourceGraphic" in2="BackgroundImageFix" result="shape"/>
<feGaussianBlur stdDeviation="1" result="effect1_foregroundBlur_1_463"/>
</filter>
<filter id="filter4_i_1_463" x="257.582" y="95" width="175.418" height="195" filterUnits="userSpaceOnUse" color-interpolation-filters="sRGB">
<feFlood flood-opacity="0" result="BackgroundImageFix"/>
<feBlend mode="normal" in="SourceGraphic" in2="BackgroundImageFix" result="shape"/>
<feColorMatrix in="SourceAlpha" type="matrix" values="0 0 0 0 0 0 0 0 0 0 0 0 0 0 0 0 0 0 127 0" result="hardAlpha"/>
<feOffset dy="20"/>
<feGaussianBlur stdDeviation="35"/>
<feComposite in2="hardAlpha" operator="arithmetic" k2="-1" k3="1"/>
<feColorMatrix type="matrix" values="0 0 0 0 1 0 0 0 0 1 0 0 0 0 1 0 0 0 1 0"/>
<feBlend mode="overlay" in2="shape" result="effect1_innerShadow_1_463"/>
</filter>
<filter id="filter5_i_1_463" x="19" y="95" width="420" height="348.647" filterUnits="userSpaceOnUse" color-interpolation-filters="sRGB">
<feFlood flood-opacity="0" result="BackgroundImageFix"/>
<feBlend mode="normal" in="SourceGraphic" in2="BackgroundImageFix" result="shape"/>
<feColorMatrix in="SourceAlpha" type="matrix" values="0 0 0 0 0 0 0 0 0 0 0 0 0 0 0 0 0 0 127 0" result="hardAlpha"/>
<feOffset dy="48.6468"/>
<feGaussianBlur stdDeviation="30"/>
<feComposite in2="hardAlpha" operator="arithmetic" k2="-1" k3="1"/>
<feColorMatrix type="matrix" values="0 0 0 0 1 0 0 0 0 1 0 0 0 0 1 0 0 0 1 0"/>
<feBlend mode="normal" in2="shape" result="effect1_innerShadow_1_463"/>
</filter>
<radialGradient id="paint0_radial_1_463" cx="0" cy="0" r="1" gradientUnits="userSpaceOnUse" gradientTransform="translate(245.752 507.454) rotate(-38.1866) scale(44.8052 32.3736)">
<stop stop-color="#3CC7F5"/>
<stop offset="0.0001" stop-color="#3CC7F5"/>
<stop offset="1" stop-color="#004DFF"/>
</radialGradient>
<radialGradient id="paint1_radial_1_463" cx="0" cy="0" r="1" gradientUnits="userSpaceOnUse" gradientTransform="translate(245.485 507.326) rotate(-38.1866) scale(44.8052 32.3736)">
<stop stop-color="#3CC7F5"/>
<stop offset="0.0001" stop-color="#3CC7F5"/>
<stop offset="1" stop-color="#004DFF"/>
</radialGradient>
<radialGradient id="paint2_radial_1_463" cx="0" cy="0" r="1" gradientUnits="userSpaceOnUse" gradientTransform="translate(252.288 484.243) rotate(56.4667) scale(38.1172 11.064)">
<stop stop-color="white"/>
<stop offset="0.555017" stop-color="#BDDBF1" stop-opacity="0.25"/>
<stop offset="1" stop-color="#5686F5" stop-opacity="0"/>
</radialGradient>
<radialGradient id="paint3_radial_1_463" cx="0" cy="0" r="1" gradientUnits="userSpaceOnUse" gradientTransform="translate(235.347 513.843) rotate(50.2202) scale(20.8486 10.104)">
<stop stop-color="white"/>
<stop offset="0.673987" stop-color="#BDDBF1" stop-opacity="0.25"/>
<stop offset="1" stop-color="#5686F5" stop-opacity="0"/>
</radialGradient>
<radialGradient id="paint4_radial_1_463" cx="0" cy="0" r="1" gradientUnits="userSpaceOnUse" gradientTransform="translate(150.182 446.137) rotate(-39.2197) scale(32.4694 23.6503)">
<stop stop-color="#3CC7F5"/>
<stop offset="0.0001" stop-color="#3CC7F5"/>
<stop offset="1" stop-color="#004DFF"/>
</radialGradient>
<radialGradient id="paint5_radial_1_463" cx="0" cy="0" r="1" gradientUnits="userSpaceOnUse" gradientTransform="translate(149.991 446.042) rotate(-39.2198) scale(32.4695 23.6504)">
<stop stop-color="#3CC7F5"/>
<stop offset="0.0001" stop-color="#3CC7F5"/>
<stop offset="1" stop-color="#004DFF"/>
</radialGradient>
<radialGradient id="paint6_radial_1_463" cx="0" cy="0" r="1" gradientUnits="userSpaceOnUse" gradientTransform="translate(154.851 428.933) rotate(57.4345) scale(27.9428 7.9902)">
<stop stop-color="white"/>
<stop offset="0.555017" stop-color="#BDDBF1" stop-opacity="0.25"/>
<stop offset="1" stop-color="#5686F5" stop-opacity="0"/>
</radialGradient>
<radialGradient id="paint7_radial_1_463" cx="0" cy="0" r="1" gradientUnits="userSpaceOnUse" gradientTransform="translate(142.75 450.872) rotate(51.2577) scale(15.2255 7.32477)">
<stop stop-color="white"/>
<stop offset="0.673987" stop-color="#BDDBF1" stop-opacity="0.25"/>
<stop offset="1" stop-color="#5686F5" stop-opacity="0"/>
</radialGradient>
<linearGradient id="paint8_linear_1_463" x1="0.206932" y1="0.445665" x2="71.7593" y2="1.54794" gradientUnits="userSpaceOnUse">
<stop stop-color="white"/>
<stop offset="1" stop-color="#E8E8E8"/>
</linearGradient>
<linearGradient id="paint9_linear_1_463" x1="0.206932" y1="0.445665" x2="71.7593" y2="1.54794" gradientUnits="userSpaceOnUse">
<stop stop-color="white"/>
<stop offset="1" stop-color="#E8E8E8"/>
</linearGradient>
<linearGradient id="paint10_linear_1_463" x1="345.291" y1="95" x2="345.291" y2="270" gradientUnits="userSpaceOnUse">
<stop stop-color="#FFD358"/>
<stop offset="1" stop-color="#FA6C21"/>
</linearGradient>
<linearGradient id="paint11_linear_1_463" x1="48.4233" y1="95" x2="438.459" y2="395.861" gradientUnits="userSpaceOnUse">
<stop stop-color="white"/>
<stop offset="1" stop-color="#C1C1C1"/>
</linearGradient>
</defs>
</svg>
