<svg width="460" height="550" viewBox="0 0 460 550" fill="none" xmlns="http://www.w3.org/2000/svg">
<g style="mix-blend-mode:color-burn" opacity="0.5" filter="url(#filter0_f_1_488)">
<path fill-rule="evenodd" clip-rule="evenodd" d="M216.058 479.523C211.632 488.384 202.661 494.446 192.315 494.446C177.58 494.446 165.635 482.151 165.635 466.986C165.635 464.811 165.871 462.613 166.32 460.38C164.173 465.658 162.967 470.696 162.967 475.612C162.967 490.778 174.912 503.072 189.647 503.072C203.092 503.072 214.214 492.836 216.058 479.523Z" fill="url(#paint0_radial_1_488)" fill-opacity="0.3"/>
</g>
<path opacity="0.5" d="M216.06 475.476C216.06 490.642 204.115 502.936 189.38 502.936C174.645 502.936 162.701 490.642 162.701 475.476C162.701 460.31 174.173 443.99 189.38 423C202.186 443.415 216.06 460.31 216.06 475.476Z" fill="url(#paint1_radial_1_488)"/>
<g style="mix-blend-mode:screen" opacity="0.3">
<ellipse cx="196.183" cy="452.904" rx="27.3465" ry="28.754" fill="url(#paint2_radial_1_488)"/>
</g>
<g style="mix-blend-mode:screen" opacity="0.3">
<ellipse cx="180.709" cy="484.246" rx="27.3465" ry="28.754" fill="url(#paint3_radial_1_488)"/>
</g>
<g style="mix-blend-mode:color-burn" opacity="0.5" filter="url(#filter1_f_1_488)">
<path fill-rule="evenodd" clip-rule="evenodd" d="M262.467 408.193C258.516 415.592 250.506 420.654 241.268 420.654C228.112 420.654 217.447 410.388 217.447 397.726C217.447 395.91 217.657 394.075 218.058 392.211C216.141 396.618 215.065 400.824 215.065 404.928C215.065 417.591 225.73 427.856 238.886 427.856C250.89 427.856 260.821 419.309 262.467 408.193Z" fill="url(#paint4_radial_1_488)" fill-opacity="0.3"/>
</g>
<path opacity="0.5" d="M262.469 404.815C262.469 417.478 251.804 427.743 238.648 427.743C225.492 427.743 214.827 417.478 214.827 404.815C214.827 392.152 225.07 378.526 238.648 361C250.082 378.046 262.469 392.152 262.469 404.815Z" fill="url(#paint5_radial_1_488)"/>
<g style="mix-blend-mode:screen" opacity="0.3">
<ellipse cx="244.722" cy="385.969" rx="24.4165" ry="24.0083" fill="url(#paint6_radial_1_488)"/>
</g>
<g style="mix-blend-mode:screen" opacity="0.3">
<ellipse cx="230.906" cy="412.138" rx="24.4165" ry="24.0083" fill="url(#paint7_radial_1_488)"/>
</g>
<g style="mix-blend-mode:color-burn" opacity="0.5" filter="url(#filter2_f_1_488)">
<path fill-rule="evenodd" clip-rule="evenodd" d="M316.297 479.522C311.871 488.384 302.9 494.446 292.553 494.446C277.819 494.446 265.874 482.151 265.874 466.985C265.874 464.811 266.11 462.613 266.559 460.38C264.411 465.658 263.206 470.696 263.206 475.612C263.206 490.777 275.151 503.072 289.886 503.072C303.33 503.072 314.452 492.836 316.297 479.522Z" fill="url(#paint8_radial_1_488)" fill-opacity="0.3"/>
</g>
<path opacity="0.5" d="M316.298 475.476C316.298 490.642 304.354 502.936 289.619 502.936C274.884 502.936 262.939 490.642 262.939 475.476C262.939 460.31 274.412 443.99 289.619 423C302.425 443.415 316.298 460.31 316.298 475.476Z" fill="url(#paint9_radial_1_488)"/>
<g style="mix-blend-mode:screen" opacity="0.3">
<ellipse cx="296.422" cy="452.904" rx="27.3465" ry="28.754" fill="url(#paint10_radial_1_488)"/>
</g>
<g style="mix-blend-mode:screen" opacity="0.3">
<ellipse cx="280.948" cy="484.246" rx="27.3465" ry="28.754" fill="url(#paint11_radial_1_488)"/>
</g>
<g style="mix-blend-mode:color-burn" opacity="0.5" filter="url(#filter3_f_1_488)">
<path fill-rule="evenodd" clip-rule="evenodd" d="M164.233 407.804C160.282 415.203 152.272 420.265 143.034 420.265C129.878 420.265 119.213 409.999 119.213 397.337C119.213 395.521 119.424 393.686 119.824 391.822C117.907 396.229 116.831 400.435 116.831 404.539C116.831 417.202 127.496 427.467 140.652 427.467C152.656 427.467 162.587 418.92 164.233 407.804Z" fill="url(#paint12_radial_1_488)" fill-opacity="0.3"/>
</g>
<path opacity="0.5" d="M164.235 404.426C164.235 417.089 153.57 427.354 140.414 427.354C127.258 427.354 116.593 417.089 116.593 404.426C116.593 391.763 126.836 378.137 140.414 360.611C151.848 377.657 164.235 391.763 164.235 404.426Z" fill="url(#paint13_radial_1_488)"/>
<g style="mix-blend-mode:screen" opacity="0.3">
<ellipse cx="146.488" cy="385.579" rx="24.4165" ry="24.0083" fill="url(#paint14_radial_1_488)"/>
</g>
<g style="mix-blend-mode:screen" opacity="0.3">
<ellipse cx="132.672" cy="411.748" rx="24.4165" ry="24.0083" fill="url(#paint15_radial_1_488)"/>
</g>
<g style="mix-blend-mode:color-burn" opacity="0.5" filter="url(#filter4_f_1_488)">
<path fill-rule="evenodd" clip-rule="evenodd" d="M359.699 408.194C355.747 415.592 347.737 420.654 338.499 420.654C325.343 420.654 314.678 410.389 314.678 397.726C314.678 395.91 314.889 394.075 315.29 392.211C313.373 396.618 312.296 400.824 312.296 404.928C312.296 417.591 322.961 427.856 336.117 427.856C348.122 427.856 358.052 419.31 359.699 408.194Z" fill="url(#paint16_radial_1_488)" fill-opacity="0.3"/>
</g>
<path opacity="0.5" d="M359.7 404.815C359.7 417.478 349.035 427.743 335.879 427.743C322.723 427.743 312.058 417.478 312.058 404.815C312.058 392.152 322.301 378.526 335.879 361C347.313 378.046 359.7 392.152 359.7 404.815Z" fill="url(#paint17_radial_1_488)"/>
<g style="mix-blend-mode:screen" opacity="0.3">
<ellipse cx="341.953" cy="385.969" rx="24.4165" ry="24.0083" fill="url(#paint18_radial_1_488)"/>
</g>
<g style="mix-blend-mode:screen" opacity="0.3">
<ellipse cx="328.137" cy="412.138" rx="24.4165" ry="24.0083" fill="url(#paint19_radial_1_488)"/>
</g>
<g filter="url(#filter5_i_1_488)">
<ellipse cx="323.291" cy="133.67" rx="87.7088" ry="87.6702" fill="url(#paint20_linear_1_488)"/>
</g>
<mask id="path-22-inside-1_1_488" fill="white">
<path fill-rule="evenodd" clip-rule="evenodd" d="M329.761 351L160.358 351C77.3176 351 10 283.843 10 201C10 118.157 77.3176 51 160.358 51C227.131 51 283.738 94.4226 303.354 154.507C311.767 152.22 320.621 151 329.761 151C385.122 151 430 195.771 430 251C430 306.228 385.122 351 329.761 351Z"/>
</mask>
<g filter="url(#filter6_i_1_488)">
<path fill-rule="evenodd" clip-rule="evenodd" d="M329.761 351L160.358 351C77.3176 351 10 283.843 10 201C10 118.157 77.3176 51 160.358 51C227.131 51 283.738 94.4226 303.354 154.507C311.767 152.22 320.621 151 329.761 151C385.122 151 430 195.771 430 251C430 306.228 385.122 351 329.761 351Z" fill="url(#paint21_linear_1_488)"/>
</g>
<path d="M160.358 351V350V351ZM329.761 351V352V351ZM303.354 154.507L302.403 154.817L302.698 155.721L303.616 155.472L303.354 154.507ZM160.358 352L329.761 352V350L160.358 350V352ZM9 201C9 284.397 76.7675 352 160.358 352V350C77.8676 350 11 283.288 11 201H9ZM160.358 50C76.7675 50 9 117.603 9 201H11C11 118.712 77.8676 52 160.358 52V50ZM304.304 154.196C284.558 93.7118 227.575 50 160.358 50V52C226.687 52 282.918 95.1334 302.403 154.817L304.304 154.196ZM303.616 155.472C311.945 153.208 320.711 152 329.761 152V150C320.532 150 311.59 151.232 303.091 153.542L303.616 155.472ZM329.761 152C384.572 152 429 196.326 429 251H431C431 195.217 385.672 150 329.761 150V152ZM429 251C429 305.674 384.572 350 329.761 350V352C385.672 352 431 306.783 431 251H429Z" fill="black" fill-opacity="0.05" mask="url(#path-22-inside-1_1_488)"/>
<defs>
<filter id="filter0_f_1_488" x="154.967" y="452.38" width="69.0905" height="58.6918" filterUnits="userSpaceOnUse" color-interpolation-filters="sRGB">
<feFlood flood-opacity="0" result="BackgroundImageFix"/>
<feBlend mode="normal" in="SourceGraphic" in2="BackgroundImageFix" result="shape"/>
<feGaussianBlur stdDeviation="4" result="effect1_foregroundBlur_1_488"/>
</filter>
<filter id="filter1_f_1_488" x="207.065" y="384.211" width="63.4022" height="51.6453" filterUnits="userSpaceOnUse" color-interpolation-filters="sRGB">
<feFlood flood-opacity="0" result="BackgroundImageFix"/>
<feBlend mode="normal" in="SourceGraphic" in2="BackgroundImageFix" result="shape"/>
<feGaussianBlur stdDeviation="4" result="effect1_foregroundBlur_1_488"/>
</filter>
<filter id="filter2_f_1_488" x="255.206" y="452.38" width="69.0905" height="58.6916" filterUnits="userSpaceOnUse" color-interpolation-filters="sRGB">
<feFlood flood-opacity="0" result="BackgroundImageFix"/>
<feBlend mode="normal" in="SourceGraphic" in2="BackgroundImageFix" result="shape"/>
<feGaussianBlur stdDeviation="4" result="effect1_foregroundBlur_1_488"/>
</filter>
<filter id="filter3_f_1_488" x="108.831" y="383.822" width="63.4022" height="51.6453" filterUnits="userSpaceOnUse" color-interpolation-filters="sRGB">
<feFlood flood-opacity="0" result="BackgroundImageFix"/>
<feBlend mode="normal" in="SourceGraphic" in2="BackgroundImageFix" result="shape"/>
<feGaussianBlur stdDeviation="4" result="effect1_foregroundBlur_1_488"/>
</filter>
<filter id="filter4_f_1_488" x="304.296" y="384.211" width="63.4022" height="51.6455" filterUnits="userSpaceOnUse" color-interpolation-filters="sRGB">
<feFlood flood-opacity="0" result="BackgroundImageFix"/>
<feBlend mode="normal" in="SourceGraphic" in2="BackgroundImageFix" result="shape"/>
<feGaussianBlur stdDeviation="4" result="effect1_foregroundBlur_1_488"/>
</filter>
<filter id="filter5_i_1_488" x="235.582" y="46" width="175.418" height="195.34" filterUnits="userSpaceOnUse" color-interpolation-filters="sRGB">
<feFlood flood-opacity="0" result="BackgroundImageFix"/>
<feBlend mode="normal" in="SourceGraphic" in2="BackgroundImageFix" result="shape"/>
<feColorMatrix in="SourceAlpha" type="matrix" values="0 0 0 0 0 0 0 0 0 0 0 0 0 0 0 0 0 0 127 0" result="hardAlpha"/>
<feOffset dy="20"/>
<feGaussianBlur stdDeviation="35"/>
<feComposite in2="hardAlpha" operator="arithmetic" k2="-1" k3="1"/>
<feColorMatrix type="matrix" values="0 0 0 0 1 0 0 0 0 1 0 0 0 0 1 0 0 0 1 0"/>
<feBlend mode="overlay" in2="shape" result="effect1_innerShadow_1_488"/>
</filter>
<filter id="filter6_i_1_488" x="10" y="51" width="420" height="348.647" filterUnits="userSpaceOnUse" color-interpolation-filters="sRGB">
<feFlood flood-opacity="0" result="BackgroundImageFix"/>
<feBlend mode="normal" in="SourceGraphic" in2="BackgroundImageFix" result="shape"/>
<feColorMatrix in="SourceAlpha" type="matrix" values="0 0 0 0 0 0 0 0 0 0 0 0 0 0 0 0 0 0 127 0" result="hardAlpha"/>
<feOffset dy="48.6468"/>
<feGaussianBlur stdDeviation="30"/>
<feComposite in2="hardAlpha" operator="arithmetic" k2="-1" k3="1"/>
<feColorMatrix type="matrix" values="0 0 0 0 1 0 0 0 0 1 0 0 0 0 1 0 0 0 1 0"/>
<feBlend mode="normal" in2="shape" result="effect1_innerShadow_1_488"/>
</filter>
<radialGradient id="paint0_radial_1_488" cx="0" cy="0" r="1" gradientUnits="userSpaceOnUse" gradientTransform="translate(189.647 477.481) rotate(-39.7879) scale(45.8304 33.5111)">
<stop stop-color="#3CC7F5"/>
<stop offset="0.0001" stop-color="#3CC7F5"/>
<stop offset="1" stop-color="#004DFF"/>
</radialGradient>
<radialGradient id="paint1_radial_1_488" cx="0" cy="0" r="1" gradientUnits="userSpaceOnUse" gradientTransform="translate(189.38 477.345) rotate(-39.7879) scale(45.8304 33.5111)">
<stop stop-color="#3CC7F5"/>
<stop offset="0.0001" stop-color="#3CC7F5"/>
<stop offset="1" stop-color="#004DFF"/>
</radialGradient>
<radialGradient id="paint2_radial_1_488" cx="0" cy="0" r="1" gradientUnits="userSpaceOnUse" gradientTransform="translate(196.183 452.904) rotate(57.9574) scale(39.6886 11.251)">
<stop stop-color="white"/>
<stop offset="0.555017" stop-color="#BDDBF1" stop-opacity="0.25"/>
<stop offset="1" stop-color="#5686F5" stop-opacity="0"/>
</radialGradient>
<radialGradient id="paint3_radial_1_488" cx="0" cy="0" r="1" gradientUnits="userSpaceOnUse" gradientTransform="translate(179.242 484.246) rotate(51.8214) scale(21.5814 10.3351)">
<stop stop-color="white"/>
<stop offset="0.673987" stop-color="#BDDBF1" stop-opacity="0.25"/>
<stop offset="1" stop-color="#5686F5" stop-opacity="0"/>
</radialGradient>
<radialGradient id="paint4_radial_1_488" cx="0" cy="0" r="1" gradientUnits="userSpaceOnUse" gradientTransform="translate(238.886 406.489) rotate(-37.9113) scale(39.8545 28.7281)">
<stop stop-color="#3CC7F5"/>
<stop offset="0.0001" stop-color="#3CC7F5"/>
<stop offset="1" stop-color="#004DFF"/>
</radialGradient>
<radialGradient id="paint5_radial_1_488" cx="0" cy="0" r="1" gradientUnits="userSpaceOnUse" gradientTransform="translate(238.648 406.376) rotate(-37.9116) scale(39.8546 28.7283)">
<stop stop-color="#3CC7F5"/>
<stop offset="0.0001" stop-color="#3CC7F5"/>
<stop offset="1" stop-color="#004DFF"/>
</radialGradient>
<radialGradient id="paint6_radial_1_488" cx="0" cy="0" r="1" gradientUnits="userSpaceOnUse" gradientTransform="translate(244.722 385.969) rotate(56.2052) scale(33.8008 9.8486)">
<stop stop-color="white"/>
<stop offset="0.555017" stop-color="#BDDBF1" stop-opacity="0.25"/>
<stop offset="1" stop-color="#5686F5" stop-opacity="0"/>
</radialGradient>
<radialGradient id="paint7_radial_1_488" cx="0" cy="0" r="1" gradientUnits="userSpaceOnUse" gradientTransform="translate(229.596 412.138) rotate(49.9413) scale(18.5069 8.98477)">
<stop stop-color="white"/>
<stop offset="0.673987" stop-color="#BDDBF1" stop-opacity="0.25"/>
<stop offset="1" stop-color="#5686F5" stop-opacity="0"/>
</radialGradient>
<radialGradient id="paint8_radial_1_488" cx="0" cy="0" r="1" gradientUnits="userSpaceOnUse" gradientTransform="translate(289.886 477.481) rotate(-39.7879) scale(45.8304 33.5111)">
<stop stop-color="#3CC7F5"/>
<stop offset="0.0001" stop-color="#3CC7F5"/>
<stop offset="1" stop-color="#004DFF"/>
</radialGradient>
<radialGradient id="paint9_radial_1_488" cx="0" cy="0" r="1" gradientUnits="userSpaceOnUse" gradientTransform="translate(289.619 477.345) rotate(-39.7879) scale(45.8304 33.5111)">
<stop stop-color="#3CC7F5"/>
<stop offset="0.0001" stop-color="#3CC7F5"/>
<stop offset="1" stop-color="#004DFF"/>
</radialGradient>
<radialGradient id="paint10_radial_1_488" cx="0" cy="0" r="1" gradientUnits="userSpaceOnUse" gradientTransform="translate(296.422 452.904) rotate(57.9574) scale(39.6886 11.251)">
<stop stop-color="white"/>
<stop offset="0.555017" stop-color="#BDDBF1" stop-opacity="0.25"/>
<stop offset="1" stop-color="#5686F5" stop-opacity="0"/>
</radialGradient>
<radialGradient id="paint11_radial_1_488" cx="0" cy="0" r="1" gradientUnits="userSpaceOnUse" gradientTransform="translate(279.481 484.246) rotate(51.8214) scale(21.5814 10.3351)">
<stop stop-color="white"/>
<stop offset="0.673987" stop-color="#BDDBF1" stop-opacity="0.25"/>
<stop offset="1" stop-color="#5686F5" stop-opacity="0"/>
</radialGradient>
<radialGradient id="paint12_radial_1_488" cx="0" cy="0" r="1" gradientUnits="userSpaceOnUse" gradientTransform="translate(140.652 406.1) rotate(-37.9113) scale(39.8545 28.7281)">
<stop stop-color="#3CC7F5"/>
<stop offset="0.0001" stop-color="#3CC7F5"/>
<stop offset="1" stop-color="#004DFF"/>
</radialGradient>
<radialGradient id="paint13_radial_1_488" cx="0" cy="0" r="1" gradientUnits="userSpaceOnUse" gradientTransform="translate(140.414 405.986) rotate(-37.9116) scale(39.8546 28.7283)">
<stop stop-color="#3CC7F5"/>
<stop offset="0.0001" stop-color="#3CC7F5"/>
<stop offset="1" stop-color="#004DFF"/>
</radialGradient>
<radialGradient id="paint14_radial_1_488" cx="0" cy="0" r="1" gradientUnits="userSpaceOnUse" gradientTransform="translate(146.488 385.579) rotate(56.2052) scale(33.8008 9.8486)">
<stop stop-color="white"/>
<stop offset="0.555017" stop-color="#BDDBF1" stop-opacity="0.25"/>
<stop offset="1" stop-color="#5686F5" stop-opacity="0"/>
</radialGradient>
<radialGradient id="paint15_radial_1_488" cx="0" cy="0" r="1" gradientUnits="userSpaceOnUse" gradientTransform="translate(131.362 411.748) rotate(49.9413) scale(18.5069 8.98477)">
<stop stop-color="white"/>
<stop offset="0.673987" stop-color="#BDDBF1" stop-opacity="0.25"/>
<stop offset="1" stop-color="#5686F5" stop-opacity="0"/>
</radialGradient>
<radialGradient id="paint16_radial_1_488" cx="0" cy="0" r="1" gradientUnits="userSpaceOnUse" gradientTransform="translate(336.117 406.489) rotate(-37.9116) scale(39.8546 28.7283)">
<stop stop-color="#3CC7F5"/>
<stop offset="0.0001" stop-color="#3CC7F5"/>
<stop offset="1" stop-color="#004DFF"/>
</radialGradient>
<radialGradient id="paint17_radial_1_488" cx="0" cy="0" r="1" gradientUnits="userSpaceOnUse" gradientTransform="translate(335.879 406.376) rotate(-37.9116) scale(39.8546 28.7283)">
<stop stop-color="#3CC7F5"/>
<stop offset="0.0001" stop-color="#3CC7F5"/>
<stop offset="1" stop-color="#004DFF"/>
</radialGradient>
<radialGradient id="paint18_radial_1_488" cx="0" cy="0" r="1" gradientUnits="userSpaceOnUse" gradientTransform="translate(341.953 385.969) rotate(56.2052) scale(33.8008 9.8486)">
<stop stop-color="white"/>
<stop offset="0.555017" stop-color="#BDDBF1" stop-opacity="0.25"/>
<stop offset="1" stop-color="#5686F5" stop-opacity="0"/>
</radialGradient>
<radialGradient id="paint19_radial_1_488" cx="0" cy="0" r="1" gradientUnits="userSpaceOnUse" gradientTransform="translate(326.827 412.138) rotate(49.9413) scale(18.5069 8.98477)">
<stop stop-color="white"/>
<stop offset="0.673987" stop-color="#BDDBF1" stop-opacity="0.25"/>
<stop offset="1" stop-color="#5686F5" stop-opacity="0"/>
</radialGradient>
<linearGradient id="paint20_linear_1_488" x1="323.291" y1="46" x2="323.291" y2="221.34" gradientUnits="userSpaceOnUse">
<stop stop-color="#FFD358"/>
<stop offset="1" stop-color="#FA6C21"/>
</linearGradient>
<linearGradient id="paint21_linear_1_488" x1="39.4233" y1="51" x2="429.459" y2="351.861" gradientUnits="userSpaceOnUse">
<stop stop-color="white"/>
<stop offset="1" stop-color="#C1C1C1"/>
</linearGradient>
</defs>
</svg>
