<svg width="460" height="550" viewBox="0 0 460 550" fill="none" xmlns="http://www.w3.org/2000/svg">
<g style="mix-blend-mode:color-burn" opacity="0.5" filter="url(#filter0_f_1_69)">
<path fill-rule="evenodd" clip-rule="evenodd" d="M224.636 513.522C220.383 522.384 211.762 528.446 201.819 528.446C187.658 528.446 176.179 516.151 176.179 500.986C176.179 498.811 176.406 496.613 176.837 494.38C174.774 499.658 173.615 504.696 173.615 509.612C173.615 524.778 185.094 537.072 199.255 537.072C212.175 537.072 222.863 526.836 224.636 513.522Z" fill="url(#paint0_radial_1_69)" fill-opacity="0.3"/>
</g>
<path opacity="0.5" d="M224.637 509.476C224.637 524.642 213.158 536.936 198.998 536.936C184.838 536.936 173.359 524.642 173.359 509.476C173.359 494.31 184.384 477.99 198.998 457C211.305 477.415 224.637 494.31 224.637 509.476Z" fill="url(#paint1_radial_1_69)"/>
<g style="mix-blend-mode:screen" opacity="0.3">
<ellipse cx="205.536" cy="486.904" rx="26.2802" ry="28.754" fill="url(#paint2_radial_1_69)"/>
</g>
<g style="mix-blend-mode:screen" opacity="0.3">
<ellipse cx="190.665" cy="518.246" rx="26.2802" ry="28.754" fill="url(#paint3_radial_1_69)"/>
</g>
<g style="mix-blend-mode:color-burn" opacity="0.5" filter="url(#filter1_f_1_69)">
<path fill-rule="evenodd" clip-rule="evenodd" d="M269.235 442.193C265.438 449.592 257.741 454.654 248.863 454.654C236.22 454.654 225.971 444.389 225.971 431.726C225.971 429.91 226.173 428.075 226.558 426.211C224.716 430.618 223.681 434.824 223.681 438.928C223.681 451.591 233.931 461.856 246.574 461.856C258.11 461.856 267.653 453.31 269.235 442.193Z" fill="url(#paint4_radial_1_69)" fill-opacity="0.3"/>
</g>
<path opacity="0.5" d="M269.237 438.815C269.237 451.478 258.988 461.743 246.345 461.743C233.702 461.743 223.452 451.478 223.452 438.815C223.452 426.152 233.296 412.526 246.345 395C257.333 412.046 269.237 426.152 269.237 438.815Z" fill="url(#paint5_radial_1_69)"/>
<g style="mix-blend-mode:screen" opacity="0.3">
<ellipse cx="252.182" cy="419.969" rx="23.4645" ry="24.0083" fill="url(#paint6_radial_1_69)"/>
</g>
<g style="mix-blend-mode:screen" opacity="0.3">
<ellipse cx="238.905" cy="446.138" rx="23.4645" ry="24.0083" fill="url(#paint7_radial_1_69)"/>
</g>
<g style="mix-blend-mode:color-burn" opacity="0.5" filter="url(#filter2_f_1_69)">
<path fill-rule="evenodd" clip-rule="evenodd" d="M320.966 513.522C316.713 522.384 308.092 528.445 298.149 528.445C283.989 528.445 272.51 516.151 272.51 500.985C272.51 498.811 272.736 496.613 273.168 494.38C271.104 499.658 269.946 504.696 269.946 509.612C269.946 524.777 281.425 537.072 295.585 537.072C308.505 537.072 319.194 526.836 320.966 513.522Z" fill="url(#paint8_radial_1_69)" fill-opacity="0.3"/>
</g>
<path opacity="0.5" d="M320.968 509.476C320.968 524.642 309.489 536.936 295.329 536.936C281.168 536.936 269.689 524.642 269.689 509.476C269.689 494.31 280.714 477.99 295.329 457C307.635 477.415 320.968 494.31 320.968 509.476Z" fill="url(#paint9_radial_1_69)"/>
<g style="mix-blend-mode:screen" opacity="0.3">
<ellipse cx="301.866" cy="486.904" rx="26.2802" ry="28.754" fill="url(#paint10_radial_1_69)"/>
</g>
<g style="mix-blend-mode:screen" opacity="0.3">
<ellipse cx="286.996" cy="518.246" rx="26.2802" ry="28.754" fill="url(#paint11_radial_1_69)"/>
</g>
<g style="mix-blend-mode:color-burn" opacity="0.5" filter="url(#filter3_f_1_69)">
<path fill-rule="evenodd" clip-rule="evenodd" d="M174.832 441.804C171.034 449.203 163.337 454.265 154.459 454.265C141.816 454.265 131.567 443.999 131.567 431.337C131.567 429.521 131.769 427.686 132.155 425.822C130.312 430.229 129.278 434.435 129.278 438.539C129.278 451.202 139.527 461.467 152.17 461.467C163.706 461.467 173.249 452.921 174.832 441.804Z" fill="url(#paint12_radial_1_69)" fill-opacity="0.3"/>
</g>
<path opacity="0.5" d="M174.833 438.426C174.833 451.089 164.584 461.354 151.941 461.354C139.298 461.354 129.049 451.089 129.049 438.426C129.049 425.763 138.892 412.137 151.941 394.611C162.929 411.657 174.833 425.763 174.833 438.426Z" fill="url(#paint13_radial_1_69)"/>
<g style="mix-blend-mode:screen" opacity="0.3">
<ellipse cx="157.778" cy="419.579" rx="23.4645" ry="24.0083" fill="url(#paint14_radial_1_69)"/>
</g>
<g style="mix-blend-mode:screen" opacity="0.3">
<ellipse cx="144.501" cy="445.748" rx="23.4645" ry="24.0083" fill="url(#paint15_radial_1_69)"/>
</g>
<g style="mix-blend-mode:color-burn" opacity="0.5" filter="url(#filter4_f_1_69)">
<path fill-rule="evenodd" clip-rule="evenodd" d="M362.676 442.193C358.878 449.592 351.181 454.654 342.303 454.654C329.66 454.654 319.411 444.389 319.411 431.726C319.411 429.91 319.613 428.075 319.998 426.211C318.156 430.618 317.122 434.824 317.122 438.928C317.122 451.591 327.371 461.856 340.014 461.856C351.55 461.856 361.093 453.31 362.676 442.193Z" fill="url(#paint16_radial_1_69)" fill-opacity="0.3"/>
</g>
<path opacity="0.5" d="M362.677 438.815C362.677 451.478 352.428 461.743 339.785 461.743C327.142 461.743 316.893 451.478 316.893 438.815C316.893 426.152 326.736 412.526 339.785 395C350.773 412.046 362.677 426.152 362.677 438.815Z" fill="url(#paint17_radial_1_69)"/>
<g style="mix-blend-mode:screen" opacity="0.3">
<ellipse cx="345.622" cy="419.969" rx="23.4645" ry="24.0083" fill="url(#paint18_radial_1_69)"/>
</g>
<g style="mix-blend-mode:screen" opacity="0.3">
<ellipse cx="332.345" cy="446.138" rx="23.4645" ry="24.0083" fill="url(#paint19_radial_1_69)"/>
</g>
<g filter="url(#filter5_di_1_69)">
<path fill-rule="evenodd" clip-rule="evenodd" d="M348.51 38.0861C343.359 37.3701 338.096 37 332.747 37C270.345 37 219.759 87.368 219.759 149.5C219.759 211.632 270.345 262 332.747 262C379.68 262 419.929 233.509 437 192.95C435.899 192.983 434.793 193 433.683 193C376.69 193 330.487 148.676 330.487 94C330.487 73.2527 337.14 53.996 348.51 38.0861Z" fill="url(#paint20_linear_1_69)"/>
</g>
<mask id="path-22-inside-1_1_69" fill="white">
<path fill-rule="evenodd" clip-rule="evenodd" d="M336.761 387L167.358 387C84.3176 387 17 319.843 17 237C17 154.157 84.3176 87 167.358 87C234.131 87 290.738 130.423 310.354 190.507C318.767 188.22 327.622 187 336.761 187C392.122 187 437 231.772 437 287C437 342.228 392.122 387 336.761 387Z"/>
</mask>
<g filter="url(#filter6_i_1_69)">
<path fill-rule="evenodd" clip-rule="evenodd" d="M336.761 387L167.358 387C84.3176 387 17 319.843 17 237C17 154.157 84.3176 87 167.358 87C234.131 87 290.738 130.423 310.354 190.507C318.767 188.22 327.622 187 336.761 187C392.122 187 437 231.772 437 287C437 342.228 392.122 387 336.761 387Z" fill="url(#paint21_linear_1_69)"/>
</g>
<path d="M167.358 387V386V387ZM336.761 387V388V387ZM310.354 190.507L309.403 190.817L309.698 191.721L310.616 191.472L310.354 190.507ZM167.358 388L336.761 388V386L167.358 386V388ZM16 237C16 320.397 83.7675 388 167.358 388V386C84.8676 386 18 319.288 18 237H16ZM167.358 86C83.7675 86 16 153.603 16 237H18C18 154.712 84.8676 88 167.358 88V86ZM311.304 190.196C291.558 129.712 234.575 86 167.358 86V88C233.687 88 289.918 131.133 309.403 190.817L311.304 190.196ZM310.616 191.472C318.945 189.208 327.711 188 336.761 188V186C327.532 186 318.59 187.232 310.091 189.542L310.616 191.472ZM336.761 188C391.572 188 436 232.326 436 287H438C438 231.217 392.672 186 336.761 186V188ZM436 287C436 341.674 391.572 386 336.761 386V388C392.672 388 438 342.783 438 287H436Z" fill="black" fill-opacity="0.05" mask="url(#path-22-inside-1_1_69)"/>
<defs>
<filter id="filter0_f_1_69" x="165.615" y="486.38" width="67.0205" height="58.6917" filterUnits="userSpaceOnUse" color-interpolation-filters="sRGB">
<feFlood flood-opacity="0" result="BackgroundImageFix"/>
<feBlend mode="normal" in="SourceGraphic" in2="BackgroundImageFix" result="shape"/>
<feGaussianBlur stdDeviation="4" result="effect1_foregroundBlur_1_69"/>
</filter>
<filter id="filter1_f_1_69" x="215.681" y="418.211" width="61.554" height="51.6454" filterUnits="userSpaceOnUse" color-interpolation-filters="sRGB">
<feFlood flood-opacity="0" result="BackgroundImageFix"/>
<feBlend mode="normal" in="SourceGraphic" in2="BackgroundImageFix" result="shape"/>
<feGaussianBlur stdDeviation="4" result="effect1_foregroundBlur_1_69"/>
</filter>
<filter id="filter2_f_1_69" x="261.946" y="486.38" width="67.0205" height="58.6915" filterUnits="userSpaceOnUse" color-interpolation-filters="sRGB">
<feFlood flood-opacity="0" result="BackgroundImageFix"/>
<feBlend mode="normal" in="SourceGraphic" in2="BackgroundImageFix" result="shape"/>
<feGaussianBlur stdDeviation="4" result="effect1_foregroundBlur_1_69"/>
</filter>
<filter id="filter3_f_1_69" x="121.278" y="417.822" width="61.554" height="51.6455" filterUnits="userSpaceOnUse" color-interpolation-filters="sRGB">
<feFlood flood-opacity="0" result="BackgroundImageFix"/>
<feBlend mode="normal" in="SourceGraphic" in2="BackgroundImageFix" result="shape"/>
<feGaussianBlur stdDeviation="4" result="effect1_foregroundBlur_1_69"/>
</filter>
<filter id="filter4_f_1_69" x="309.122" y="418.211" width="61.5541" height="51.6451" filterUnits="userSpaceOnUse" color-interpolation-filters="sRGB">
<feFlood flood-opacity="0" result="BackgroundImageFix"/>
<feBlend mode="normal" in="SourceGraphic" in2="BackgroundImageFix" result="shape"/>
<feGaussianBlur stdDeviation="4" result="effect1_foregroundBlur_1_69"/>
</filter>
<filter id="filter5_di_1_69" x="194.759" y="37" width="246.241" height="240" filterUnits="userSpaceOnUse" color-interpolation-filters="sRGB">
<feFlood flood-opacity="0" result="BackgroundImageFix"/>
<feColorMatrix in="SourceAlpha" type="matrix" values="0 0 0 0 0 0 0 0 0 0 0 0 0 0 0 0 0 0 127 0" result="hardAlpha"/>
<feOffset dy="4"/>
<feGaussianBlur stdDeviation="2"/>
<feComposite in2="hardAlpha" operator="out"/>
<feColorMatrix type="matrix" values="0 0 0 0 0 0 0 0 0 0 0 0 0 0 0 0 0 0 0.25 0"/>
<feBlend mode="normal" in2="BackgroundImageFix" result="effect1_dropShadow_1_69"/>
<feBlend mode="normal" in="SourceGraphic" in2="effect1_dropShadow_1_69" result="shape"/>
<feColorMatrix in="SourceAlpha" type="matrix" values="0 0 0 0 0 0 0 0 0 0 0 0 0 0 0 0 0 0 127 0" result="hardAlpha"/>
<feOffset dx="-25" dy="15"/>
<feGaussianBlur stdDeviation="12.5"/>
<feComposite in2="hardAlpha" operator="arithmetic" k2="-1" k3="1"/>
<feColorMatrix type="matrix" values="0 0 0 0 0.607843 0 0 0 0 0.529412 0 0 0 0 0.921569 0 0 0 1 0"/>
<feBlend mode="normal" in2="shape" result="effect2_innerShadow_1_69"/>
</filter>
<filter id="filter6_i_1_69" x="17" y="87" width="420" height="348.647" filterUnits="userSpaceOnUse" color-interpolation-filters="sRGB">
<feFlood flood-opacity="0" result="BackgroundImageFix"/>
<feBlend mode="normal" in="SourceGraphic" in2="BackgroundImageFix" result="shape"/>
<feColorMatrix in="SourceAlpha" type="matrix" values="0 0 0 0 0 0 0 0 0 0 0 0 0 0 0 0 0 0 127 0" result="hardAlpha"/>
<feOffset dy="48.6468"/>
<feGaussianBlur stdDeviation="30"/>
<feComposite in2="hardAlpha" operator="arithmetic" k2="-1" k3="1"/>
<feColorMatrix type="matrix" values="0 0 0 0 1 0 0 0 0 1 0 0 0 0 1 0 0 0 1 0"/>
<feBlend mode="normal" in2="shape" result="effect1_innerShadow_1_69"/>
</filter>
<radialGradient id="paint0_radial_1_69" cx="0" cy="0" r="1" gradientUnits="userSpaceOnUse" gradientTransform="translate(199.255 511.481) rotate(-40.9122) scale(44.7839 32.9571)">
<stop stop-color="#3CC7F5"/>
<stop offset="0.0001" stop-color="#3CC7F5"/>
<stop offset="1" stop-color="#004DFF"/>
</radialGradient>
<radialGradient id="paint1_radial_1_69" cx="0" cy="0" r="1" gradientUnits="userSpaceOnUse" gradientTransform="translate(198.998 511.345) rotate(-40.9122) scale(44.7839 32.9571)">
<stop stop-color="#3CC7F5"/>
<stop offset="0.0001" stop-color="#3CC7F5"/>
<stop offset="1" stop-color="#004DFF"/>
</radialGradient>
<radialGradient id="paint2_radial_1_69" cx="0" cy="0" r="1" gradientUnits="userSpaceOnUse" gradientTransform="translate(205.536 486.904) rotate(58.9731) scale(39.2592 10.9306)">
<stop stop-color="white"/>
<stop offset="0.555017" stop-color="#BDDBF1" stop-opacity="0.25"/>
<stop offset="1" stop-color="#5686F5" stop-opacity="0"/>
</radialGradient>
<radialGradient id="paint3_radial_1_69" cx="0" cy="0" r="1" gradientUnits="userSpaceOnUse" gradientTransform="translate(189.255 518.246) rotate(52.9232) scale(21.2638 10.0805)">
<stop stop-color="white"/>
<stop offset="0.673987" stop-color="#BDDBF1" stop-opacity="0.25"/>
<stop offset="1" stop-color="#5686F5" stop-opacity="0"/>
</radialGradient>
<radialGradient id="paint4_radial_1_69" cx="0" cy="0" r="1" gradientUnits="userSpaceOnUse" gradientTransform="translate(246.574 440.489) rotate(-39.0214) scale(38.8946 28.2895)">
<stop stop-color="#3CC7F5"/>
<stop offset="0.0001" stop-color="#3CC7F5"/>
<stop offset="1" stop-color="#004DFF"/>
</radialGradient>
<radialGradient id="paint5_radial_1_69" cx="0" cy="0" r="1" gradientUnits="userSpaceOnUse" gradientTransform="translate(246.345 440.376) rotate(-39.0214) scale(38.8946 28.2895)">
<stop stop-color="#3CC7F5"/>
<stop offset="0.0001" stop-color="#3CC7F5"/>
<stop offset="1" stop-color="#004DFF"/>
</radialGradient>
<radialGradient id="paint6_radial_1_69" cx="0" cy="0" r="1" gradientUnits="userSpaceOnUse" gradientTransform="translate(252.182 419.969) rotate(57.2503) scale(33.3987 9.57856)">
<stop stop-color="white"/>
<stop offset="0.555017" stop-color="#BDDBF1" stop-opacity="0.25"/>
<stop offset="1" stop-color="#5686F5" stop-opacity="0"/>
</radialGradient>
<radialGradient id="paint7_radial_1_69" cx="0" cy="0" r="1" gradientUnits="userSpaceOnUse" gradientTransform="translate(237.646 446.138) rotate(51.0597) scale(18.2114 8.77451)">
<stop stop-color="white"/>
<stop offset="0.673987" stop-color="#BDDBF1" stop-opacity="0.25"/>
<stop offset="1" stop-color="#5686F5" stop-opacity="0"/>
</radialGradient>
<radialGradient id="paint8_radial_1_69" cx="0" cy="0" r="1" gradientUnits="userSpaceOnUse" gradientTransform="translate(295.585 511.481) rotate(-40.9122) scale(44.7839 32.9571)">
<stop stop-color="#3CC7F5"/>
<stop offset="0.0001" stop-color="#3CC7F5"/>
<stop offset="1" stop-color="#004DFF"/>
</radialGradient>
<radialGradient id="paint9_radial_1_69" cx="0" cy="0" r="1" gradientUnits="userSpaceOnUse" gradientTransform="translate(295.329 511.345) rotate(-40.9122) scale(44.7839 32.9571)">
<stop stop-color="#3CC7F5"/>
<stop offset="0.0001" stop-color="#3CC7F5"/>
<stop offset="1" stop-color="#004DFF"/>
</radialGradient>
<radialGradient id="paint10_radial_1_69" cx="0" cy="0" r="1" gradientUnits="userSpaceOnUse" gradientTransform="translate(301.866 486.904) rotate(58.9731) scale(39.2592 10.9306)">
<stop stop-color="white"/>
<stop offset="0.555017" stop-color="#BDDBF1" stop-opacity="0.25"/>
<stop offset="1" stop-color="#5686F5" stop-opacity="0"/>
</radialGradient>
<radialGradient id="paint11_radial_1_69" cx="0" cy="0" r="1" gradientUnits="userSpaceOnUse" gradientTransform="translate(285.586 518.246) rotate(52.9232) scale(21.2638 10.0805)">
<stop stop-color="white"/>
<stop offset="0.673987" stop-color="#BDDBF1" stop-opacity="0.25"/>
<stop offset="1" stop-color="#5686F5" stop-opacity="0"/>
</radialGradient>
<radialGradient id="paint12_radial_1_69" cx="0" cy="0" r="1" gradientUnits="userSpaceOnUse" gradientTransform="translate(152.17 440.1) rotate(-39.0214) scale(38.8946 28.2895)">
<stop stop-color="#3CC7F5"/>
<stop offset="0.0001" stop-color="#3CC7F5"/>
<stop offset="1" stop-color="#004DFF"/>
</radialGradient>
<radialGradient id="paint13_radial_1_69" cx="0" cy="0" r="1" gradientUnits="userSpaceOnUse" gradientTransform="translate(151.941 439.986) rotate(-39.0214) scale(38.8946 28.2895)">
<stop stop-color="#3CC7F5"/>
<stop offset="0.0001" stop-color="#3CC7F5"/>
<stop offset="1" stop-color="#004DFF"/>
</radialGradient>
<radialGradient id="paint14_radial_1_69" cx="0" cy="0" r="1" gradientUnits="userSpaceOnUse" gradientTransform="translate(157.778 419.579) rotate(57.2503) scale(33.3987 9.57856)">
<stop stop-color="white"/>
<stop offset="0.555017" stop-color="#BDDBF1" stop-opacity="0.25"/>
<stop offset="1" stop-color="#5686F5" stop-opacity="0"/>
</radialGradient>
<radialGradient id="paint15_radial_1_69" cx="0" cy="0" r="1" gradientUnits="userSpaceOnUse" gradientTransform="translate(143.242 445.748) rotate(51.0597) scale(18.2114 8.77451)">
<stop stop-color="white"/>
<stop offset="0.673987" stop-color="#BDDBF1" stop-opacity="0.25"/>
<stop offset="1" stop-color="#5686F5" stop-opacity="0"/>
</radialGradient>
<radialGradient id="paint16_radial_1_69" cx="0" cy="0" r="1" gradientUnits="userSpaceOnUse" gradientTransform="translate(340.014 440.489) rotate(-39.021) scale(38.8945 28.2893)">
<stop stop-color="#3CC7F5"/>
<stop offset="0.0001" stop-color="#3CC7F5"/>
<stop offset="1" stop-color="#004DFF"/>
</radialGradient>
<radialGradient id="paint17_radial_1_69" cx="0" cy="0" r="1" gradientUnits="userSpaceOnUse" gradientTransform="translate(339.785 440.376) rotate(-39.0214) scale(38.8946 28.2895)">
<stop stop-color="#3CC7F5"/>
<stop offset="0.0001" stop-color="#3CC7F5"/>
<stop offset="1" stop-color="#004DFF"/>
</radialGradient>
<radialGradient id="paint18_radial_1_69" cx="0" cy="0" r="1" gradientUnits="userSpaceOnUse" gradientTransform="translate(345.622 419.969) rotate(57.2503) scale(33.3987 9.57856)">
<stop stop-color="white"/>
<stop offset="0.555017" stop-color="#BDDBF1" stop-opacity="0.25"/>
<stop offset="1" stop-color="#5686F5" stop-opacity="0"/>
</radialGradient>
<radialGradient id="paint19_radial_1_69" cx="0" cy="0" r="1" gradientUnits="userSpaceOnUse" gradientTransform="translate(331.086 446.138) rotate(51.0597) scale(18.2114 8.77451)">
<stop stop-color="white"/>
<stop offset="0.673987" stop-color="#BDDBF1" stop-opacity="0.25"/>
<stop offset="1" stop-color="#5686F5" stop-opacity="0"/>
</radialGradient>
<linearGradient id="paint20_linear_1_69" x1="232.564" y1="37" x2="395.013" y2="294.137" gradientUnits="userSpaceOnUse">
<stop stop-color="#9B87EB"/>
<stop offset="0.659096" stop-color="#3010AC"/>
</linearGradient>
<linearGradient id="paint21_linear_1_69" x1="46.4233" y1="87" x2="436.459" y2="387.861" gradientUnits="userSpaceOnUse">
<stop stop-color="white"/>
<stop offset="1" stop-color="#C1C1C1"/>
</linearGradient>
</defs>
</svg>
