<svg width="460" height="550" viewBox="0 0 460 550" fill="none" xmlns="http://www.w3.org/2000/svg">
<g filter="url(#filter0_f_10_1508)">
<path fill-rule="evenodd" clip-rule="evenodd" d="M178.262 283H110.843L80 381.638H114.227L85.7336 483L180.239 359.565L129.919 359.565L178.262 283Z" fill="url(#paint0_linear_10_1508)"/>
</g>
<g style="mix-blend-mode:color-burn" opacity="0.5" filter="url(#filter1_f_10_1508)">
<path fill-rule="evenodd" clip-rule="evenodd" d="M254.279 457.933C251.229 464.039 245.048 468.216 237.919 468.216C227.767 468.216 219.536 459.745 219.536 449.295C219.536 447.797 219.699 446.282 220.008 444.744C218.529 448.38 217.698 451.851 217.698 455.239C217.698 465.688 225.928 474.159 236.081 474.159C245.345 474.159 253.008 467.106 254.279 457.933Z" fill="url(#paint1_radial_10_1508)" fill-opacity="0.3"/>
</g>
<path opacity="0.5" d="M254.28 455.145C254.28 465.595 246.05 474.066 235.897 474.066C225.744 474.066 217.514 465.595 217.514 455.145C217.514 444.695 225.419 433.451 235.897 418.988C244.721 433.054 254.28 444.695 254.28 455.145Z" fill="url(#paint2_radial_10_1508)"/>
<g style="mix-blend-mode:screen" opacity="0.3">
<ellipse cx="240.585" cy="439.592" rx="18.8424" ry="19.8122" fill="url(#paint3_radial_10_1508)"/>
</g>
<g style="mix-blend-mode:screen" opacity="0.3">
<ellipse cx="229.923" cy="461.188" rx="18.8424" ry="19.8122" fill="url(#paint4_radial_10_1508)"/>
</g>
<g style="mix-blend-mode:color-burn" opacity="0.5" filter="url(#filter2_f_10_1508)">
<path fill-rule="evenodd" clip-rule="evenodd" d="M286.256 408.786C283.533 413.884 278.014 417.371 271.649 417.371C262.584 417.371 255.236 410.298 255.236 401.573C255.236 400.322 255.381 399.057 255.657 397.773C254.336 400.81 253.594 403.708 253.594 406.536C253.594 415.261 260.943 422.334 270.008 422.334C278.279 422.334 285.121 416.445 286.256 408.786Z" fill="url(#paint5_radial_10_1508)" fill-opacity="0.3"/>
</g>
<path opacity="0.5" d="M286.257 406.458C286.257 415.183 278.908 422.256 269.843 422.256C260.779 422.256 253.43 415.183 253.43 406.458C253.43 397.733 260.488 388.344 269.843 376.268C277.722 388.013 286.257 397.733 286.257 406.458Z" fill="url(#paint6_radial_10_1508)"/>
<g style="mix-blend-mode:screen" opacity="0.3">
<ellipse cx="274.029" cy="393.472" rx="16.8236" ry="16.5423" fill="url(#paint7_radial_10_1508)"/>
</g>
<g style="mix-blend-mode:screen" opacity="0.3">
<ellipse cx="264.509" cy="411.503" rx="16.8236" ry="16.5423" fill="url(#paint8_radial_10_1508)"/>
</g>
<g style="mix-blend-mode:color-burn" opacity="0.5" filter="url(#filter3_f_10_1508)">
<path fill-rule="evenodd" clip-rule="evenodd" d="M323.346 457.933C320.296 464.039 314.115 468.216 306.986 468.216C296.834 468.216 288.603 459.745 288.603 449.295C288.603 447.797 288.766 446.282 289.075 444.744C287.596 448.38 286.765 451.851 286.765 455.239C286.765 465.688 294.995 474.159 305.148 474.159C314.412 474.159 322.075 467.106 323.346 457.933Z" fill="url(#paint9_radial_10_1508)" fill-opacity="0.3"/>
</g>
<path opacity="0.5" d="M323.347 455.145C323.347 465.595 315.117 474.066 304.964 474.066C294.812 474.066 286.581 465.595 286.581 455.145C286.581 444.695 294.486 433.451 304.964 418.988C313.788 433.054 323.347 444.695 323.347 455.145Z" fill="url(#paint10_radial_10_1508)"/>
<g style="mix-blend-mode:screen" opacity="0.3">
<ellipse cx="309.652" cy="439.592" rx="18.8424" ry="19.8122" fill="url(#paint11_radial_10_1508)"/>
</g>
<g style="mix-blend-mode:screen" opacity="0.3">
<ellipse cx="298.99" cy="461.188" rx="18.8424" ry="19.8122" fill="url(#paint12_radial_10_1508)"/>
</g>
<g style="mix-blend-mode:color-burn" opacity="0.5" filter="url(#filter4_f_10_1508)">
<path fill-rule="evenodd" clip-rule="evenodd" d="M218.57 408.518C215.848 413.616 210.329 417.103 203.964 417.103C194.899 417.103 187.55 410.03 187.55 401.305C187.55 400.054 187.695 398.789 187.972 397.505C186.651 400.542 185.909 403.44 185.909 406.268C185.909 414.993 193.257 422.066 202.322 422.066C210.593 422.066 217.436 416.177 218.57 408.518Z" fill="url(#paint13_radial_10_1508)" fill-opacity="0.3"/>
</g>
<path opacity="0.5" d="M218.571 406.19C218.571 414.915 211.223 421.988 202.158 421.988C193.093 421.988 185.745 414.915 185.745 406.19C185.745 397.465 192.802 388.076 202.158 376C210.036 387.745 218.571 397.465 218.571 406.19Z" fill="url(#paint14_radial_10_1508)"/>
<g style="mix-blend-mode:screen" opacity="0.3">
<ellipse cx="206.343" cy="393.204" rx="16.8236" ry="16.5423" fill="url(#paint15_radial_10_1508)"/>
</g>
<g style="mix-blend-mode:screen" opacity="0.3">
<ellipse cx="196.824" cy="411.235" rx="16.8236" ry="16.5423" fill="url(#paint16_radial_10_1508)"/>
</g>
<g style="mix-blend-mode:color-burn" opacity="0.5" filter="url(#filter5_f_10_1508)">
<path fill-rule="evenodd" clip-rule="evenodd" d="M353.251 408.786C350.528 413.884 345.009 417.371 338.644 417.371C329.579 417.371 322.231 410.298 322.231 401.573C322.231 400.322 322.376 399.057 322.652 397.773C321.331 400.81 320.59 403.708 320.59 406.536C320.59 415.261 327.938 422.334 337.003 422.334C345.274 422.334 352.116 416.445 353.251 408.786Z" fill="url(#paint17_radial_10_1508)" fill-opacity="0.3"/>
</g>
<path opacity="0.5" d="M353.252 406.458C353.252 415.183 345.903 422.256 336.839 422.256C327.774 422.256 320.425 415.183 320.425 406.458C320.425 397.733 327.483 388.344 336.839 376.268C344.717 388.013 353.252 397.733 353.252 406.458Z" fill="url(#paint18_radial_10_1508)"/>
<g style="mix-blend-mode:screen" opacity="0.3">
<ellipse cx="341.024" cy="393.472" rx="16.8236" ry="16.5423" fill="url(#paint19_radial_10_1508)"/>
</g>
<g style="mix-blend-mode:screen" opacity="0.3">
<ellipse cx="331.504" cy="411.503" rx="16.8236" ry="16.5423" fill="url(#paint20_radial_10_1508)"/>
</g>
<g filter="url(#filter6_i_10_1508)">
<ellipse cx="323.291" cy="133.67" rx="87.7088" ry="87.6702" fill="url(#paint21_linear_10_1508)"/>
</g>
<mask id="path-23-inside-1_10_1508" fill="white">
<path fill-rule="evenodd" clip-rule="evenodd" d="M329.761 351L160.358 351C77.3176 351 10 283.843 10 201C10 118.157 77.3176 51 160.358 51C227.131 51 283.738 94.4226 303.354 154.507C311.767 152.22 320.621 151 329.761 151C385.122 151 430 195.771 430 251C430 306.228 385.122 351 329.761 351Z"/>
</mask>
<g filter="url(#filter7_i_10_1508)">
<path fill-rule="evenodd" clip-rule="evenodd" d="M329.761 351L160.358 351C77.3176 351 10 283.843 10 201C10 118.157 77.3176 51 160.358 51C227.131 51 283.738 94.4226 303.354 154.507C311.767 152.22 320.621 151 329.761 151C385.122 151 430 195.771 430 251C430 306.228 385.122 351 329.761 351Z" fill="url(#paint22_linear_10_1508)"/>
</g>
<path d="M160.358 351V350V351ZM329.761 351V352V351ZM303.354 154.507L302.403 154.817L302.698 155.721L303.616 155.472L303.354 154.507ZM160.358 352L329.761 352V350L160.358 350V352ZM9 201C9 284.397 76.7675 352 160.358 352V350C77.8676 350 11 283.288 11 201H9ZM160.358 50C76.7675 50 9 117.603 9 201H11C11 118.712 77.8676 52 160.358 52V50ZM304.304 154.196C284.558 93.7118 227.575 50 160.358 50V52C226.687 52 282.918 95.1334 302.403 154.817L304.304 154.196ZM303.616 155.472C311.945 153.208 320.711 152 329.761 152V150C320.532 150 311.59 151.232 303.091 153.542L303.616 155.472ZM329.761 152C384.572 152 429 196.326 429 251H431C431 195.217 385.672 150 329.761 150V152ZM429 251C429 305.674 384.572 350 329.761 350V352C385.672 352 431 306.783 431 251H429Z" fill="black" fill-opacity="0.05" mask="url(#path-23-inside-1_10_1508)"/>
<defs>
<filter id="filter0_f_10_1508" x="75" y="278" width="110.239" height="210" filterUnits="userSpaceOnUse" color-interpolation-filters="sRGB">
<feFlood flood-opacity="0" result="BackgroundImageFix"/>
<feBlend mode="normal" in="SourceGraphic" in2="BackgroundImageFix" result="shape"/>
<feGaussianBlur stdDeviation="2.5" result="effect1_foregroundBlur_10_1508"/>
</filter>
<filter id="filter1_f_10_1508" x="209.698" y="436.744" width="52.5808" height="45.4157" filterUnits="userSpaceOnUse" color-interpolation-filters="sRGB">
<feFlood flood-opacity="0" result="BackgroundImageFix"/>
<feBlend mode="normal" in="SourceGraphic" in2="BackgroundImageFix" result="shape"/>
<feGaussianBlur stdDeviation="4" result="effect1_foregroundBlur_10_1508"/>
</filter>
<filter id="filter2_f_10_1508" x="245.594" y="389.773" width="48.6614" height="40.5606" filterUnits="userSpaceOnUse" color-interpolation-filters="sRGB">
<feFlood flood-opacity="0" result="BackgroundImageFix"/>
<feBlend mode="normal" in="SourceGraphic" in2="BackgroundImageFix" result="shape"/>
<feGaussianBlur stdDeviation="4" result="effect1_foregroundBlur_10_1508"/>
</filter>
<filter id="filter3_f_10_1508" x="278.765" y="436.744" width="52.5808" height="45.4157" filterUnits="userSpaceOnUse" color-interpolation-filters="sRGB">
<feFlood flood-opacity="0" result="BackgroundImageFix"/>
<feBlend mode="normal" in="SourceGraphic" in2="BackgroundImageFix" result="shape"/>
<feGaussianBlur stdDeviation="4" result="effect1_foregroundBlur_10_1508"/>
</filter>
<filter id="filter4_f_10_1508" x="177.909" y="389.505" width="48.6614" height="40.5606" filterUnits="userSpaceOnUse" color-interpolation-filters="sRGB">
<feFlood flood-opacity="0" result="BackgroundImageFix"/>
<feBlend mode="normal" in="SourceGraphic" in2="BackgroundImageFix" result="shape"/>
<feGaussianBlur stdDeviation="4" result="effect1_foregroundBlur_10_1508"/>
</filter>
<filter id="filter5_f_10_1508" x="312.59" y="389.773" width="48.6614" height="40.5606" filterUnits="userSpaceOnUse" color-interpolation-filters="sRGB">
<feFlood flood-opacity="0" result="BackgroundImageFix"/>
<feBlend mode="normal" in="SourceGraphic" in2="BackgroundImageFix" result="shape"/>
<feGaussianBlur stdDeviation="4" result="effect1_foregroundBlur_10_1508"/>
</filter>
<filter id="filter6_i_10_1508" x="235.582" y="46" width="175.418" height="195.34" filterUnits="userSpaceOnUse" color-interpolation-filters="sRGB">
<feFlood flood-opacity="0" result="BackgroundImageFix"/>
<feBlend mode="normal" in="SourceGraphic" in2="BackgroundImageFix" result="shape"/>
<feColorMatrix in="SourceAlpha" type="matrix" values="0 0 0 0 0 0 0 0 0 0 0 0 0 0 0 0 0 0 127 0" result="hardAlpha"/>
<feOffset dy="20"/>
<feGaussianBlur stdDeviation="35"/>
<feComposite in2="hardAlpha" operator="arithmetic" k2="-1" k3="1"/>
<feColorMatrix type="matrix" values="0 0 0 0 1 0 0 0 0 1 0 0 0 0 1 0 0 0 1 0"/>
<feBlend mode="overlay" in2="shape" result="effect1_innerShadow_10_1508"/>
</filter>
<filter id="filter7_i_10_1508" x="10" y="51" width="420" height="348.647" filterUnits="userSpaceOnUse" color-interpolation-filters="sRGB">
<feFlood flood-opacity="0" result="BackgroundImageFix"/>
<feBlend mode="normal" in="SourceGraphic" in2="BackgroundImageFix" result="shape"/>
<feColorMatrix in="SourceAlpha" type="matrix" values="0 0 0 0 0 0 0 0 0 0 0 0 0 0 0 0 0 0 127 0" result="hardAlpha"/>
<feOffset dy="48.6468"/>
<feGaussianBlur stdDeviation="30"/>
<feComposite in2="hardAlpha" operator="arithmetic" k2="-1" k3="1"/>
<feColorMatrix type="matrix" values="0 0 0 0 1 0 0 0 0 1 0 0 0 0 1 0 0 0 1 0"/>
<feBlend mode="normal" in2="shape" result="effect1_innerShadow_10_1508"/>
</filter>
<linearGradient id="paint0_linear_10_1508" x1="130.119" y1="283" x2="130.119" y2="483" gradientUnits="userSpaceOnUse">
<stop stop-color="#FFE176"/>
<stop offset="0.47859" stop-color="#FEC255"/>
<stop offset="1" stop-color="#FEA031"/>
</linearGradient>
<radialGradient id="paint1_radial_10_1508" cx="0" cy="0" r="1" gradientUnits="userSpaceOnUse" gradientTransform="translate(236.081 456.526) rotate(-39.7879) scale(31.5783 23.09)">
<stop stop-color="#3CC7F5"/>
<stop offset="0.0001" stop-color="#3CC7F5"/>
<stop offset="1" stop-color="#004DFF"/>
</radialGradient>
<radialGradient id="paint2_radial_10_1508" cx="0" cy="0" r="1" gradientUnits="userSpaceOnUse" gradientTransform="translate(235.897 456.433) rotate(-39.7879) scale(31.5783 23.09)">
<stop stop-color="#3CC7F5"/>
<stop offset="0.0001" stop-color="#3CC7F5"/>
<stop offset="1" stop-color="#004DFF"/>
</radialGradient>
<radialGradient id="paint3_radial_10_1508" cx="0" cy="0" r="1" gradientUnits="userSpaceOnUse" gradientTransform="translate(240.585 439.593) rotate(57.9574) scale(27.3464 7.75223)">
<stop stop-color="white"/>
<stop offset="0.555017" stop-color="#BDDBF1" stop-opacity="0.25"/>
<stop offset="1" stop-color="#5686F5" stop-opacity="0"/>
</radialGradient>
<radialGradient id="paint4_radial_10_1508" cx="0" cy="0" r="1" gradientUnits="userSpaceOnUse" gradientTransform="translate(228.911 461.188) rotate(51.8214) scale(14.8701 7.12117)">
<stop stop-color="white"/>
<stop offset="0.673987" stop-color="#BDDBF1" stop-opacity="0.25"/>
<stop offset="1" stop-color="#5686F5" stop-opacity="0"/>
</radialGradient>
<radialGradient id="paint5_radial_10_1508" cx="0" cy="0" r="1" gradientUnits="userSpaceOnUse" gradientTransform="translate(270.008 407.611) rotate(-37.9113) scale(27.4608 19.7944)">
<stop stop-color="#3CC7F5"/>
<stop offset="0.0001" stop-color="#3CC7F5"/>
<stop offset="1" stop-color="#004DFF"/>
</radialGradient>
<radialGradient id="paint6_radial_10_1508" cx="0" cy="0" r="1" gradientUnits="userSpaceOnUse" gradientTransform="translate(269.843 407.533) rotate(-37.9116) scale(27.4608 19.7945)">
<stop stop-color="#3CC7F5"/>
<stop offset="0.0001" stop-color="#3CC7F5"/>
<stop offset="1" stop-color="#004DFF"/>
</radialGradient>
<radialGradient id="paint7_radial_10_1508" cx="0" cy="0" r="1" gradientUnits="userSpaceOnUse" gradientTransform="translate(274.029 393.472) rotate(56.2052) scale(23.2896 6.78593)">
<stop stop-color="white"/>
<stop offset="0.555017" stop-color="#BDDBF1" stop-opacity="0.25"/>
<stop offset="1" stop-color="#5686F5" stop-opacity="0"/>
</radialGradient>
<radialGradient id="paint8_radial_10_1508" cx="0" cy="0" r="1" gradientUnits="userSpaceOnUse" gradientTransform="translate(263.606 411.503) rotate(49.9413) scale(12.7517 6.19074)">
<stop stop-color="white"/>
<stop offset="0.673987" stop-color="#BDDBF1" stop-opacity="0.25"/>
<stop offset="1" stop-color="#5686F5" stop-opacity="0"/>
</radialGradient>
<radialGradient id="paint9_radial_10_1508" cx="0" cy="0" r="1" gradientUnits="userSpaceOnUse" gradientTransform="translate(305.148 456.526) rotate(-39.7879) scale(31.5783 23.09)">
<stop stop-color="#3CC7F5"/>
<stop offset="0.0001" stop-color="#3CC7F5"/>
<stop offset="1" stop-color="#004DFF"/>
</radialGradient>
<radialGradient id="paint10_radial_10_1508" cx="0" cy="0" r="1" gradientUnits="userSpaceOnUse" gradientTransform="translate(304.964 456.433) rotate(-39.7879) scale(31.5783 23.09)">
<stop stop-color="#3CC7F5"/>
<stop offset="0.0001" stop-color="#3CC7F5"/>
<stop offset="1" stop-color="#004DFF"/>
</radialGradient>
<radialGradient id="paint11_radial_10_1508" cx="0" cy="0" r="1" gradientUnits="userSpaceOnUse" gradientTransform="translate(309.652 439.593) rotate(57.9574) scale(27.3464 7.75223)">
<stop stop-color="white"/>
<stop offset="0.555017" stop-color="#BDDBF1" stop-opacity="0.25"/>
<stop offset="1" stop-color="#5686F5" stop-opacity="0"/>
</radialGradient>
<radialGradient id="paint12_radial_10_1508" cx="0" cy="0" r="1" gradientUnits="userSpaceOnUse" gradientTransform="translate(297.979 461.188) rotate(51.8214) scale(14.8701 7.12117)">
<stop stop-color="white"/>
<stop offset="0.673987" stop-color="#BDDBF1" stop-opacity="0.25"/>
<stop offset="1" stop-color="#5686F5" stop-opacity="0"/>
</radialGradient>
<radialGradient id="paint13_radial_10_1508" cx="0" cy="0" r="1" gradientUnits="userSpaceOnUse" gradientTransform="translate(202.322 407.343) rotate(-37.9113) scale(27.4608 19.7944)">
<stop stop-color="#3CC7F5"/>
<stop offset="0.0001" stop-color="#3CC7F5"/>
<stop offset="1" stop-color="#004DFF"/>
</radialGradient>
<radialGradient id="paint14_radial_10_1508" cx="0" cy="0" r="1" gradientUnits="userSpaceOnUse" gradientTransform="translate(202.158 407.265) rotate(-37.9116) scale(27.4608 19.7945)">
<stop stop-color="#3CC7F5"/>
<stop offset="0.0001" stop-color="#3CC7F5"/>
<stop offset="1" stop-color="#004DFF"/>
</radialGradient>
<radialGradient id="paint15_radial_10_1508" cx="0" cy="0" r="1" gradientUnits="userSpaceOnUse" gradientTransform="translate(206.343 393.204) rotate(56.2052) scale(23.2896 6.78593)">
<stop stop-color="white"/>
<stop offset="0.555017" stop-color="#BDDBF1" stop-opacity="0.25"/>
<stop offset="1" stop-color="#5686F5" stop-opacity="0"/>
</radialGradient>
<radialGradient id="paint16_radial_10_1508" cx="0" cy="0" r="1" gradientUnits="userSpaceOnUse" gradientTransform="translate(195.921 411.235) rotate(49.9413) scale(12.7517 6.19074)">
<stop stop-color="white"/>
<stop offset="0.673987" stop-color="#BDDBF1" stop-opacity="0.25"/>
<stop offset="1" stop-color="#5686F5" stop-opacity="0"/>
</radialGradient>
<radialGradient id="paint17_radial_10_1508" cx="0" cy="0" r="1" gradientUnits="userSpaceOnUse" gradientTransform="translate(337.003 407.611) rotate(-37.9116) scale(27.4608 19.7945)">
<stop stop-color="#3CC7F5"/>
<stop offset="0.0001" stop-color="#3CC7F5"/>
<stop offset="1" stop-color="#004DFF"/>
</radialGradient>
<radialGradient id="paint18_radial_10_1508" cx="0" cy="0" r="1" gradientUnits="userSpaceOnUse" gradientTransform="translate(336.839 407.533) rotate(-37.9116) scale(27.4608 19.7945)">
<stop stop-color="#3CC7F5"/>
<stop offset="0.0001" stop-color="#3CC7F5"/>
<stop offset="1" stop-color="#004DFF"/>
</radialGradient>
<radialGradient id="paint19_radial_10_1508" cx="0" cy="0" r="1" gradientUnits="userSpaceOnUse" gradientTransform="translate(341.024 393.472) rotate(56.2052) scale(23.2896 6.78593)">
<stop stop-color="white"/>
<stop offset="0.555017" stop-color="#BDDBF1" stop-opacity="0.25"/>
<stop offset="1" stop-color="#5686F5" stop-opacity="0"/>
</radialGradient>
<radialGradient id="paint20_radial_10_1508" cx="0" cy="0" r="1" gradientUnits="userSpaceOnUse" gradientTransform="translate(330.602 411.503) rotate(49.9413) scale(12.7517 6.19074)">
<stop stop-color="white"/>
<stop offset="0.673987" stop-color="#BDDBF1" stop-opacity="0.25"/>
<stop offset="1" stop-color="#5686F5" stop-opacity="0"/>
</radialGradient>
<linearGradient id="paint21_linear_10_1508" x1="323.291" y1="46" x2="323.291" y2="221.34" gradientUnits="userSpaceOnUse">
<stop stop-color="#FFD358"/>
<stop offset="1" stop-color="#FA6C21"/>
</linearGradient>
<linearGradient id="paint22_linear_10_1508" x1="39.4233" y1="51" x2="429.459" y2="351.861" gradientUnits="userSpaceOnUse">
<stop stop-color="white"/>
<stop offset="1" stop-color="#C1C1C1"/>
</linearGradient>
</defs>
</svg>
