<svg width="460" height="550" viewBox="0 0 460 550" fill="none" xmlns="http://www.w3.org/2000/svg">
<g style="mix-blend-mode:color-burn" opacity="0.5" filter="url(#filter0_f_10_1556)">
<path fill-rule="evenodd" clip-rule="evenodd" d="M287.28 478.933C284.231 485.039 278.049 489.216 270.92 489.216C260.767 489.216 252.537 480.744 252.537 470.295C252.537 468.797 252.699 467.282 253.009 465.744C251.529 469.381 250.699 472.852 250.699 476.239C250.699 486.688 258.929 495.159 269.082 495.159C278.346 495.159 286.009 488.106 287.28 478.933Z" fill="url(#paint0_radial_10_1556)" fill-opacity="0.3"/>
</g>
<path opacity="0.5" d="M287.281 476.145C287.281 486.595 279.05 495.066 268.898 495.066C258.745 495.066 250.515 486.595 250.515 476.145C250.515 465.695 258.419 454.451 268.898 439.988C277.722 454.054 287.281 465.695 287.281 476.145Z" fill="url(#paint1_radial_10_1556)"/>
<g style="mix-blend-mode:screen" opacity="0.3">
<ellipse cx="273.585" cy="460.592" rx="18.8427" ry="19.8122" fill="url(#paint2_radial_10_1556)"/>
</g>
<g style="mix-blend-mode:screen" opacity="0.3">
<ellipse cx="262.923" cy="482.188" rx="18.8427" ry="19.8122" fill="url(#paint3_radial_10_1556)"/>
</g>
<g style="mix-blend-mode:color-burn" opacity="0.5" filter="url(#filter1_f_10_1556)">
<path fill-rule="evenodd" clip-rule="evenodd" d="M319.257 429.786C316.534 434.884 311.016 438.371 304.651 438.371C295.586 438.371 288.237 431.298 288.237 422.573C288.237 421.322 288.382 420.057 288.659 418.772C287.337 421.809 286.595 424.707 286.595 427.536C286.595 436.261 293.944 443.334 303.009 443.334C311.28 443.334 318.122 437.445 319.257 429.786Z" fill="url(#paint4_radial_10_1556)" fill-opacity="0.3"/>
</g>
<path opacity="0.5" d="M319.258 427.458C319.258 436.183 311.91 443.256 302.845 443.256C293.78 443.256 286.431 436.183 286.431 427.458C286.431 418.733 293.489 409.344 302.845 397.268C310.723 409.013 319.258 418.733 319.258 427.458Z" fill="url(#paint5_radial_10_1556)"/>
<g style="mix-blend-mode:screen" opacity="0.3">
<ellipse cx="307.03" cy="414.472" rx="16.8238" ry="16.5423" fill="url(#paint6_radial_10_1556)"/>
</g>
<g style="mix-blend-mode:screen" opacity="0.3">
<ellipse cx="297.511" cy="432.503" rx="16.8238" ry="16.5423" fill="url(#paint7_radial_10_1556)"/>
</g>
<g style="mix-blend-mode:color-burn" opacity="0.5" filter="url(#filter2_f_10_1556)">
<path fill-rule="evenodd" clip-rule="evenodd" d="M356.348 478.933C353.299 485.039 347.117 489.216 339.988 489.216C329.835 489.216 321.605 480.744 321.605 470.295C321.605 468.797 321.767 467.282 322.076 465.744C320.597 469.381 319.767 472.852 319.767 476.239C319.767 486.688 327.997 495.159 338.15 495.159C347.414 495.159 355.077 488.106 356.348 478.933Z" fill="url(#paint8_radial_10_1556)" fill-opacity="0.3"/>
</g>
<path opacity="0.5" d="M356.349 476.145C356.349 486.595 348.119 495.066 337.966 495.066C327.813 495.066 319.583 486.595 319.583 476.145C319.583 465.695 327.488 454.451 337.966 439.988C346.79 454.054 356.349 465.695 356.349 476.145Z" fill="url(#paint9_radial_10_1556)"/>
<g style="mix-blend-mode:screen" opacity="0.3">
<ellipse cx="342.653" cy="460.592" rx="18.8427" ry="19.8122" fill="url(#paint10_radial_10_1556)"/>
</g>
<g style="mix-blend-mode:screen" opacity="0.3">
<ellipse cx="331.991" cy="482.188" rx="18.8427" ry="19.8122" fill="url(#paint11_radial_10_1556)"/>
</g>
<g style="mix-blend-mode:color-burn" opacity="0.5" filter="url(#filter3_f_10_1556)">
<path fill-rule="evenodd" clip-rule="evenodd" d="M251.57 429.518C248.848 434.616 243.329 438.103 236.964 438.103C227.899 438.103 220.55 431.03 220.55 422.305C220.55 421.054 220.695 419.789 220.971 418.505C219.65 421.542 218.909 424.44 218.909 427.268C218.909 435.993 226.257 443.066 235.322 443.066C243.594 443.066 250.436 437.177 251.57 429.518Z" fill="url(#paint12_radial_10_1556)" fill-opacity="0.3"/>
</g>
<path opacity="0.5" d="M251.572 427.19C251.572 435.915 244.223 442.988 235.158 442.988C226.093 442.988 218.745 435.915 218.745 427.19C218.745 418.465 225.803 409.076 235.158 397C243.037 408.745 251.572 418.465 251.572 427.19Z" fill="url(#paint13_radial_10_1556)"/>
<g style="mix-blend-mode:screen" opacity="0.3">
<ellipse cx="239.344" cy="414.204" rx="16.8238" ry="16.5423" fill="url(#paint14_radial_10_1556)"/>
</g>
<g style="mix-blend-mode:screen" opacity="0.3">
<ellipse cx="229.824" cy="432.235" rx="16.8238" ry="16.5423" fill="url(#paint15_radial_10_1556)"/>
</g>
<g style="mix-blend-mode:color-burn" opacity="0.5" filter="url(#filter4_f_10_1556)">
<path fill-rule="evenodd" clip-rule="evenodd" d="M386.253 429.785C383.531 434.884 378.012 438.371 371.646 438.371C362.581 438.371 355.233 431.298 355.233 422.573C355.233 421.322 355.378 420.058 355.654 418.774C354.333 421.81 353.592 424.708 353.592 427.536C353.592 436.261 360.94 443.334 370.005 443.334C378.276 443.334 385.119 437.445 386.253 429.785Z" fill="url(#paint16_radial_10_1556)" fill-opacity="0.3"/>
</g>
<path opacity="0.5" d="M386.254 427.458C386.254 436.183 378.905 443.256 369.84 443.256C360.776 443.256 353.427 436.183 353.427 427.458C353.427 418.733 360.485 409.344 369.84 397.268C377.719 409.013 386.254 418.733 386.254 427.458Z" fill="url(#paint17_radial_10_1556)"/>
<g style="mix-blend-mode:screen" opacity="0.3">
<ellipse cx="374.026" cy="414.472" rx="16.8238" ry="16.5423" fill="url(#paint18_radial_10_1556)"/>
</g>
<g style="mix-blend-mode:screen" opacity="0.3">
<ellipse cx="364.506" cy="432.503" rx="16.8238" ry="16.5423" fill="url(#paint19_radial_10_1556)"/>
</g>
<g filter="url(#filter5_di_10_1556)">
<path fill-rule="evenodd" clip-rule="evenodd" d="M348.51 38.0861C343.359 37.3701 338.096 37 332.747 37C270.345 37 219.759 87.368 219.759 149.5C219.759 211.632 270.345 262 332.747 262C379.68 262 419.929 233.509 437 192.95C435.899 192.983 434.793 193 433.683 193C376.69 193 330.487 148.676 330.487 94C330.487 73.2527 337.14 53.996 348.51 38.0861Z" fill="url(#paint20_linear_10_1556)"/>
</g>
<mask id="path-22-inside-1_10_1556" fill="white">
<path fill-rule="evenodd" clip-rule="evenodd" d="M336.761 387L167.358 387C84.3176 387 17 319.843 17 237C17 154.157 84.3176 87 167.358 87C234.131 87 290.738 130.423 310.354 190.507C318.767 188.22 327.622 187 336.761 187C392.122 187 437 231.772 437 287C437 342.228 392.122 387 336.761 387Z"/>
</mask>
<g filter="url(#filter6_i_10_1556)">
<path fill-rule="evenodd" clip-rule="evenodd" d="M336.761 387L167.358 387C84.3176 387 17 319.843 17 237C17 154.157 84.3176 87 167.358 87C234.131 87 290.738 130.423 310.354 190.507C318.767 188.22 327.622 187 336.761 187C392.122 187 437 231.772 437 287C437 342.228 392.122 387 336.761 387Z" fill="url(#paint21_linear_10_1556)"/>
</g>
<path d="M167.358 387V386V387ZM336.761 387V388V387ZM310.354 190.507L309.403 190.817L309.698 191.721L310.616 191.472L310.354 190.507ZM167.358 388L336.761 388V386L167.358 386V388ZM16 237C16 320.397 83.7675 388 167.358 388V386C84.8676 386 18 319.288 18 237H16ZM167.358 86C83.7675 86 16 153.603 16 237H18C18 154.712 84.8676 88 167.358 88V86ZM311.304 190.196C291.558 129.712 234.575 86 167.358 86V88C233.687 88 289.918 131.133 309.403 190.817L311.304 190.196ZM310.616 191.472C318.945 189.208 327.711 188 336.761 188V186C327.532 186 318.59 187.232 310.091 189.542L310.616 191.472ZM336.761 188C391.572 188 436 232.326 436 287H438C438 231.217 392.672 186 336.761 186V188ZM436 287C436 341.674 391.572 386 336.761 386V388C392.672 388 438 342.783 438 287H436Z" fill="black" fill-opacity="0.05" mask="url(#path-22-inside-1_10_1556)"/>
<defs>
<filter id="filter0_f_10_1556" x="242.699" y="457.744" width="52.5813" height="45.4148" filterUnits="userSpaceOnUse" color-interpolation-filters="sRGB">
<feFlood flood-opacity="0" result="BackgroundImageFix"/>
<feBlend mode="normal" in="SourceGraphic" in2="BackgroundImageFix" result="shape"/>
<feGaussianBlur stdDeviation="4" result="effect1_foregroundBlur_10_1556"/>
</filter>
<filter id="filter1_f_10_1556" x="278.595" y="410.772" width="48.6616" height="40.5618" filterUnits="userSpaceOnUse" color-interpolation-filters="sRGB">
<feFlood flood-opacity="0" result="BackgroundImageFix"/>
<feBlend mode="normal" in="SourceGraphic" in2="BackgroundImageFix" result="shape"/>
<feGaussianBlur stdDeviation="4" result="effect1_foregroundBlur_10_1556"/>
</filter>
<filter id="filter2_f_10_1556" x="311.767" y="457.744" width="52.5813" height="45.4148" filterUnits="userSpaceOnUse" color-interpolation-filters="sRGB">
<feFlood flood-opacity="0" result="BackgroundImageFix"/>
<feBlend mode="normal" in="SourceGraphic" in2="BackgroundImageFix" result="shape"/>
<feGaussianBlur stdDeviation="4" result="effect1_foregroundBlur_10_1556"/>
</filter>
<filter id="filter3_f_10_1556" x="210.909" y="410.505" width="48.6619" height="40.5608" filterUnits="userSpaceOnUse" color-interpolation-filters="sRGB">
<feFlood flood-opacity="0" result="BackgroundImageFix"/>
<feBlend mode="normal" in="SourceGraphic" in2="BackgroundImageFix" result="shape"/>
<feGaussianBlur stdDeviation="4" result="effect1_foregroundBlur_10_1556"/>
</filter>
<filter id="filter4_f_10_1556" x="345.592" y="410.774" width="48.6619" height="40.5602" filterUnits="userSpaceOnUse" color-interpolation-filters="sRGB">
<feFlood flood-opacity="0" result="BackgroundImageFix"/>
<feBlend mode="normal" in="SourceGraphic" in2="BackgroundImageFix" result="shape"/>
<feGaussianBlur stdDeviation="4" result="effect1_foregroundBlur_10_1556"/>
</filter>
<filter id="filter5_di_10_1556" x="194.759" y="37" width="246.241" height="240" filterUnits="userSpaceOnUse" color-interpolation-filters="sRGB">
<feFlood flood-opacity="0" result="BackgroundImageFix"/>
<feColorMatrix in="SourceAlpha" type="matrix" values="0 0 0 0 0 0 0 0 0 0 0 0 0 0 0 0 0 0 127 0" result="hardAlpha"/>
<feOffset dy="4"/>
<feGaussianBlur stdDeviation="2"/>
<feComposite in2="hardAlpha" operator="out"/>
<feColorMatrix type="matrix" values="0 0 0 0 0 0 0 0 0 0 0 0 0 0 0 0 0 0 0.25 0"/>
<feBlend mode="normal" in2="BackgroundImageFix" result="effect1_dropShadow_10_1556"/>
<feBlend mode="normal" in="SourceGraphic" in2="effect1_dropShadow_10_1556" result="shape"/>
<feColorMatrix in="SourceAlpha" type="matrix" values="0 0 0 0 0 0 0 0 0 0 0 0 0 0 0 0 0 0 127 0" result="hardAlpha"/>
<feOffset dx="-25" dy="15"/>
<feGaussianBlur stdDeviation="12.5"/>
<feComposite in2="hardAlpha" operator="arithmetic" k2="-1" k3="1"/>
<feColorMatrix type="matrix" values="0 0 0 0 0.607843 0 0 0 0 0.529412 0 0 0 0 0.921569 0 0 0 1 0"/>
<feBlend mode="normal" in2="shape" result="effect2_innerShadow_10_1556"/>
</filter>
<filter id="filter6_i_10_1556" x="17" y="87" width="420" height="348.647" filterUnits="userSpaceOnUse" color-interpolation-filters="sRGB">
<feFlood flood-opacity="0" result="BackgroundImageFix"/>
<feBlend mode="normal" in="SourceGraphic" in2="BackgroundImageFix" result="shape"/>
<feColorMatrix in="SourceAlpha" type="matrix" values="0 0 0 0 0 0 0 0 0 0 0 0 0 0 0 0 0 0 127 0" result="hardAlpha"/>
<feOffset dy="48.6468"/>
<feGaussianBlur stdDeviation="30"/>
<feComposite in2="hardAlpha" operator="arithmetic" k2="-1" k3="1"/>
<feColorMatrix type="matrix" values="0 0 0 0 1 0 0 0 0 1 0 0 0 0 1 0 0 0 1 0"/>
<feBlend mode="normal" in2="shape" result="effect1_innerShadow_10_1556"/>
</filter>
<radialGradient id="paint0_radial_10_1556" cx="0" cy="0" r="1" gradientUnits="userSpaceOnUse" gradientTransform="translate(269.082 477.527) rotate(-39.7867) scale(31.5782 23.0898)">
<stop stop-color="#3CC7F5"/>
<stop offset="0.0001" stop-color="#3CC7F5"/>
<stop offset="1" stop-color="#004DFF"/>
</radialGradient>
<radialGradient id="paint1_radial_10_1556" cx="0" cy="0" r="1" gradientUnits="userSpaceOnUse" gradientTransform="translate(268.898 477.433) rotate(-39.7875) scale(31.5786 23.0902)">
<stop stop-color="#3CC7F5"/>
<stop offset="0.0001" stop-color="#3CC7F5"/>
<stop offset="1" stop-color="#004DFF"/>
</radialGradient>
<radialGradient id="paint2_radial_10_1556" cx="0" cy="0" r="1" gradientUnits="userSpaceOnUse" gradientTransform="translate(273.585 460.593) rotate(57.957) scale(27.3465 7.75231)">
<stop stop-color="white"/>
<stop offset="0.555017" stop-color="#BDDBF1" stop-opacity="0.25"/>
<stop offset="1" stop-color="#5686F5" stop-opacity="0"/>
</radialGradient>
<radialGradient id="paint3_radial_10_1556" cx="0" cy="0" r="1" gradientUnits="userSpaceOnUse" gradientTransform="translate(261.912 482.188) rotate(51.8211) scale(14.8702 7.12123)">
<stop stop-color="white"/>
<stop offset="0.673987" stop-color="#BDDBF1" stop-opacity="0.25"/>
<stop offset="1" stop-color="#5686F5" stop-opacity="0"/>
</radialGradient>
<radialGradient id="paint4_radial_10_1556" cx="0" cy="0" r="1" gradientUnits="userSpaceOnUse" gradientTransform="translate(303.009 428.61) rotate(-37.9126) scale(27.4615 19.7952)">
<stop stop-color="#3CC7F5"/>
<stop offset="0.0001" stop-color="#3CC7F5"/>
<stop offset="1" stop-color="#004DFF"/>
</radialGradient>
<radialGradient id="paint5_radial_10_1556" cx="0" cy="0" r="1" gradientUnits="userSpaceOnUse" gradientTransform="translate(302.845 428.533) rotate(-37.9112) scale(27.4611 19.7946)">
<stop stop-color="#3CC7F5"/>
<stop offset="0.0001" stop-color="#3CC7F5"/>
<stop offset="1" stop-color="#004DFF"/>
</radialGradient>
<radialGradient id="paint6_radial_10_1556" cx="0" cy="0" r="1" gradientUnits="userSpaceOnUse" gradientTransform="translate(307.03 414.472) rotate(56.2048) scale(23.2897 6.786)">
<stop stop-color="white"/>
<stop offset="0.555017" stop-color="#BDDBF1" stop-opacity="0.25"/>
<stop offset="1" stop-color="#5686F5" stop-opacity="0"/>
</radialGradient>
<radialGradient id="paint7_radial_10_1556" cx="0" cy="0" r="1" gradientUnits="userSpaceOnUse" gradientTransform="translate(296.608 432.503) rotate(49.9409) scale(12.7518 6.19079)">
<stop stop-color="white"/>
<stop offset="0.673987" stop-color="#BDDBF1" stop-opacity="0.25"/>
<stop offset="1" stop-color="#5686F5" stop-opacity="0"/>
</radialGradient>
<radialGradient id="paint8_radial_10_1556" cx="0" cy="0" r="1" gradientUnits="userSpaceOnUse" gradientTransform="translate(338.15 477.527) rotate(-39.7867) scale(31.5782 23.0898)">
<stop stop-color="#3CC7F5"/>
<stop offset="0.0001" stop-color="#3CC7F5"/>
<stop offset="1" stop-color="#004DFF"/>
</radialGradient>
<radialGradient id="paint9_radial_10_1556" cx="0" cy="0" r="1" gradientUnits="userSpaceOnUse" gradientTransform="translate(337.966 477.433) rotate(-39.7875) scale(31.5786 23.0902)">
<stop stop-color="#3CC7F5"/>
<stop offset="0.0001" stop-color="#3CC7F5"/>
<stop offset="1" stop-color="#004DFF"/>
</radialGradient>
<radialGradient id="paint10_radial_10_1556" cx="0" cy="0" r="1" gradientUnits="userSpaceOnUse" gradientTransform="translate(342.653 460.593) rotate(57.957) scale(27.3465 7.75231)">
<stop stop-color="white"/>
<stop offset="0.555017" stop-color="#BDDBF1" stop-opacity="0.25"/>
<stop offset="1" stop-color="#5686F5" stop-opacity="0"/>
</radialGradient>
<radialGradient id="paint11_radial_10_1556" cx="0" cy="0" r="1" gradientUnits="userSpaceOnUse" gradientTransform="translate(330.98 482.188) rotate(51.8211) scale(14.8702 7.12123)">
<stop stop-color="white"/>
<stop offset="0.673987" stop-color="#BDDBF1" stop-opacity="0.25"/>
<stop offset="1" stop-color="#5686F5" stop-opacity="0"/>
</radialGradient>
<radialGradient id="paint12_radial_10_1556" cx="0" cy="0" r="1" gradientUnits="userSpaceOnUse" gradientTransform="translate(235.322 428.343) rotate(-37.9111) scale(27.461 19.7946)">
<stop stop-color="#3CC7F5"/>
<stop offset="0.0001" stop-color="#3CC7F5"/>
<stop offset="1" stop-color="#004DFF"/>
</radialGradient>
<radialGradient id="paint13_radial_10_1556" cx="0" cy="0" r="1" gradientUnits="userSpaceOnUse" gradientTransform="translate(235.158 428.265) rotate(-37.9112) scale(27.4611 19.7946)">
<stop stop-color="#3CC7F5"/>
<stop offset="0.0001" stop-color="#3CC7F5"/>
<stop offset="1" stop-color="#004DFF"/>
</radialGradient>
<radialGradient id="paint14_radial_10_1556" cx="0" cy="0" r="1" gradientUnits="userSpaceOnUse" gradientTransform="translate(239.344 414.204) rotate(56.2048) scale(23.2897 6.786)">
<stop stop-color="white"/>
<stop offset="0.555017" stop-color="#BDDBF1" stop-opacity="0.25"/>
<stop offset="1" stop-color="#5686F5" stop-opacity="0"/>
</radialGradient>
<radialGradient id="paint15_radial_10_1556" cx="0" cy="0" r="1" gradientUnits="userSpaceOnUse" gradientTransform="translate(228.921 432.235) rotate(49.9409) scale(12.7518 6.19079)">
<stop stop-color="white"/>
<stop offset="0.673987" stop-color="#BDDBF1" stop-opacity="0.25"/>
<stop offset="1" stop-color="#5686F5" stop-opacity="0"/>
</radialGradient>
<radialGradient id="paint16_radial_10_1556" cx="0" cy="0" r="1" gradientUnits="userSpaceOnUse" gradientTransform="translate(370.005 428.612) rotate(-37.9108) scale(27.461 19.7945)">
<stop stop-color="#3CC7F5"/>
<stop offset="0.0001" stop-color="#3CC7F5"/>
<stop offset="1" stop-color="#004DFF"/>
</radialGradient>
<radialGradient id="paint17_radial_10_1556" cx="0" cy="0" r="1" gradientUnits="userSpaceOnUse" gradientTransform="translate(369.84 428.533) rotate(-37.9112) scale(27.4611 19.7946)">
<stop stop-color="#3CC7F5"/>
<stop offset="0.0001" stop-color="#3CC7F5"/>
<stop offset="1" stop-color="#004DFF"/>
</radialGradient>
<radialGradient id="paint18_radial_10_1556" cx="0" cy="0" r="1" gradientUnits="userSpaceOnUse" gradientTransform="translate(374.026 414.472) rotate(56.2048) scale(23.2897 6.786)">
<stop stop-color="white"/>
<stop offset="0.555017" stop-color="#BDDBF1" stop-opacity="0.25"/>
<stop offset="1" stop-color="#5686F5" stop-opacity="0"/>
</radialGradient>
<radialGradient id="paint19_radial_10_1556" cx="0" cy="0" r="1" gradientUnits="userSpaceOnUse" gradientTransform="translate(363.604 432.503) rotate(49.9409) scale(12.7518 6.19079)">
<stop stop-color="white"/>
<stop offset="0.673987" stop-color="#BDDBF1" stop-opacity="0.25"/>
<stop offset="1" stop-color="#5686F5" stop-opacity="0"/>
</radialGradient>
<linearGradient id="paint20_linear_10_1556" x1="232.564" y1="37" x2="395.013" y2="294.137" gradientUnits="userSpaceOnUse">
<stop stop-color="#9B87EB"/>
<stop offset="0.659096" stop-color="#3010AC"/>
</linearGradient>
<linearGradient id="paint21_linear_10_1556" x1="46.4233" y1="87" x2="436.459" y2="387.861" gradientUnits="userSpaceOnUse">
<stop stop-color="white"/>
<stop offset="1" stop-color="#C1C1C1"/>
</linearGradient>
</defs>
</svg>
