<svg width="460" height="550" viewBox="0 0 460 550" fill="none" xmlns="http://www.w3.org/2000/svg">
<g filter="url(#filter0_i_10_1677)">
<circle cx="260" cy="424" r="21" fill="url(#paint0_linear_10_1677)"/>
</g>
<g filter="url(#filter1_i_10_1677)">
<circle cx="326" cy="424" r="21" fill="url(#paint1_linear_10_1677)"/>
</g>
<g filter="url(#filter2_i_10_1677)">
<circle cx="291" cy="473" r="21" fill="url(#paint2_linear_10_1677)"/>
</g>
<g filter="url(#filter3_f_10_1677)">
<path fill-rule="evenodd" clip-rule="evenodd" d="M168.43 329H103.64L74 427.638H106.892L79.5099 529L170.33 405.565L121.973 405.565L168.43 329Z" fill="url(#paint3_linear_10_1677)"/>
</g>
<g filter="url(#filter4_di_10_1677)">
<path fill-rule="evenodd" clip-rule="evenodd" d="M360.51 57.0861C355.359 56.3701 350.096 56 344.747 56C282.345 56 231.758 106.368 231.758 168.5C231.758 230.632 282.345 281 344.747 281C391.679 281 431.929 252.509 449 211.95C447.898 211.983 446.793 212 445.683 212C388.689 212 342.487 167.676 342.487 113C342.487 92.2527 349.139 72.996 360.51 57.0861Z" fill="url(#paint4_linear_10_1677)"/>
</g>
<mask id="path-6-inside-1_10_1677" fill="white">
<path fill-rule="evenodd" clip-rule="evenodd" d="M327.761 388L158.358 388C75.3176 388 8 320.843 8 238C8 155.157 75.3176 88 158.358 88C225.131 88 281.738 131.423 301.354 191.507C309.767 189.22 318.621 188 327.761 188C383.122 188 428 232.772 428 288C428 343.228 383.122 388 327.761 388Z"/>
</mask>
<g filter="url(#filter5_i_10_1677)">
<path fill-rule="evenodd" clip-rule="evenodd" d="M327.761 388L158.358 388C75.3176 388 8 320.843 8 238C8 155.157 75.3176 88 158.358 88C225.131 88 281.738 131.423 301.354 191.507C309.767 189.22 318.621 188 327.761 188C383.122 188 428 232.772 428 288C428 343.228 383.122 388 327.761 388Z" fill="url(#paint5_linear_10_1677)"/>
</g>
<path d="M158.358 388V387V388ZM327.761 388V389V388ZM301.354 191.507L300.403 191.817L300.698 192.721L301.616 192.472L301.354 191.507ZM158.358 389L327.761 389V387L158.358 387V389ZM7 238C7 321.397 74.7675 389 158.358 389V387C75.8676 387 9 320.288 9 238H7ZM158.358 87C74.7675 87 7 154.603 7 238H9C9 155.712 75.8676 89 158.358 89V87ZM302.304 191.196C282.558 130.712 225.575 87 158.358 87V89C224.687 89 280.918 132.133 300.403 191.817L302.304 191.196ZM301.616 192.472C309.945 190.208 318.711 189 327.761 189V187C318.532 187 309.59 188.232 301.091 190.542L301.616 192.472ZM327.761 189C382.572 189 427 233.326 427 288H429C429 232.217 383.672 187 327.761 187V189ZM427 288C427 342.674 382.572 387 327.761 387V389C383.672 389 429 343.783 429 288H427Z" fill="black" fill-opacity="0.05" mask="url(#path-6-inside-1_10_1677)"/>
<defs>
<filter id="filter0_i_10_1677" x="239" y="403" width="42" height="62" filterUnits="userSpaceOnUse" color-interpolation-filters="sRGB">
<feFlood flood-opacity="0" result="BackgroundImageFix"/>
<feBlend mode="normal" in="SourceGraphic" in2="BackgroundImageFix" result="shape"/>
<feColorMatrix in="SourceAlpha" type="matrix" values="0 0 0 0 0 0 0 0 0 0 0 0 0 0 0 0 0 0 127 0" result="hardAlpha"/>
<feOffset dy="20"/>
<feGaussianBlur stdDeviation="35"/>
<feComposite in2="hardAlpha" operator="arithmetic" k2="-1" k3="1"/>
<feColorMatrix type="matrix" values="0 0 0 0 1 0 0 0 0 1 0 0 0 0 1 0 0 0 1 0"/>
<feBlend mode="overlay" in2="shape" result="effect1_innerShadow_10_1677"/>
</filter>
<filter id="filter1_i_10_1677" x="305" y="403" width="42" height="62" filterUnits="userSpaceOnUse" color-interpolation-filters="sRGB">
<feFlood flood-opacity="0" result="BackgroundImageFix"/>
<feBlend mode="normal" in="SourceGraphic" in2="BackgroundImageFix" result="shape"/>
<feColorMatrix in="SourceAlpha" type="matrix" values="0 0 0 0 0 0 0 0 0 0 0 0 0 0 0 0 0 0 127 0" result="hardAlpha"/>
<feOffset dy="20"/>
<feGaussianBlur stdDeviation="35"/>
<feComposite in2="hardAlpha" operator="arithmetic" k2="-1" k3="1"/>
<feColorMatrix type="matrix" values="0 0 0 0 1 0 0 0 0 1 0 0 0 0 1 0 0 0 1 0"/>
<feBlend mode="overlay" in2="shape" result="effect1_innerShadow_10_1677"/>
</filter>
<filter id="filter2_i_10_1677" x="270" y="452" width="42" height="62" filterUnits="userSpaceOnUse" color-interpolation-filters="sRGB">
<feFlood flood-opacity="0" result="BackgroundImageFix"/>
<feBlend mode="normal" in="SourceGraphic" in2="BackgroundImageFix" result="shape"/>
<feColorMatrix in="SourceAlpha" type="matrix" values="0 0 0 0 0 0 0 0 0 0 0 0 0 0 0 0 0 0 127 0" result="hardAlpha"/>
<feOffset dy="20"/>
<feGaussianBlur stdDeviation="35"/>
<feComposite in2="hardAlpha" operator="arithmetic" k2="-1" k3="1"/>
<feColorMatrix type="matrix" values="0 0 0 0 1 0 0 0 0 1 0 0 0 0 1 0 0 0 1 0"/>
<feBlend mode="overlay" in2="shape" result="effect1_innerShadow_10_1677"/>
</filter>
<filter id="filter3_f_10_1677" x="69" y="324" width="106.33" height="210" filterUnits="userSpaceOnUse" color-interpolation-filters="sRGB">
<feFlood flood-opacity="0" result="BackgroundImageFix"/>
<feBlend mode="normal" in="SourceGraphic" in2="BackgroundImageFix" result="shape"/>
<feGaussianBlur stdDeviation="2.5" result="effect1_foregroundBlur_10_1677"/>
</filter>
<filter id="filter4_di_10_1677" x="206.758" y="56" width="246.241" height="240" filterUnits="userSpaceOnUse" color-interpolation-filters="sRGB">
<feFlood flood-opacity="0" result="BackgroundImageFix"/>
<feColorMatrix in="SourceAlpha" type="matrix" values="0 0 0 0 0 0 0 0 0 0 0 0 0 0 0 0 0 0 127 0" result="hardAlpha"/>
<feOffset dy="4"/>
<feGaussianBlur stdDeviation="2"/>
<feComposite in2="hardAlpha" operator="out"/>
<feColorMatrix type="matrix" values="0 0 0 0 0 0 0 0 0 0 0 0 0 0 0 0 0 0 0.25 0"/>
<feBlend mode="normal" in2="BackgroundImageFix" result="effect1_dropShadow_10_1677"/>
<feBlend mode="normal" in="SourceGraphic" in2="effect1_dropShadow_10_1677" result="shape"/>
<feColorMatrix in="SourceAlpha" type="matrix" values="0 0 0 0 0 0 0 0 0 0 0 0 0 0 0 0 0 0 127 0" result="hardAlpha"/>
<feOffset dx="-25" dy="15"/>
<feGaussianBlur stdDeviation="12.5"/>
<feComposite in2="hardAlpha" operator="arithmetic" k2="-1" k3="1"/>
<feColorMatrix type="matrix" values="0 0 0 0 0.607843 0 0 0 0 0.529412 0 0 0 0 0.921569 0 0 0 1 0"/>
<feBlend mode="normal" in2="shape" result="effect2_innerShadow_10_1677"/>
</filter>
<filter id="filter5_i_10_1677" x="8" y="88" width="420" height="348.647" filterUnits="userSpaceOnUse" color-interpolation-filters="sRGB">
<feFlood flood-opacity="0" result="BackgroundImageFix"/>
<feBlend mode="normal" in="SourceGraphic" in2="BackgroundImageFix" result="shape"/>
<feColorMatrix in="SourceAlpha" type="matrix" values="0 0 0 0 0 0 0 0 0 0 0 0 0 0 0 0 0 0 127 0" result="hardAlpha"/>
<feOffset dy="48.6468"/>
<feGaussianBlur stdDeviation="30"/>
<feComposite in2="hardAlpha" operator="arithmetic" k2="-1" k3="1"/>
<feColorMatrix type="matrix" values="0 0 0 0 1 0 0 0 0 1 0 0 0 0 1 0 0 0 1 0"/>
<feBlend mode="normal" in2="shape" result="effect1_innerShadow_10_1677"/>
</filter>
<linearGradient id="paint0_linear_10_1677" x1="260" y1="378" x2="272" y2="438" gradientUnits="userSpaceOnUse">
<stop stop-color="#A0A7E3"/>
<stop offset="1" stop-color="#678CCC"/>
</linearGradient>
<linearGradient id="paint1_linear_10_1677" x1="326" y1="378" x2="338" y2="438" gradientUnits="userSpaceOnUse">
<stop stop-color="#A0A7E3"/>
<stop offset="1" stop-color="#678CCC"/>
</linearGradient>
<linearGradient id="paint2_linear_10_1677" x1="291" y1="427" x2="303" y2="487" gradientUnits="userSpaceOnUse">
<stop stop-color="#A0A7E3"/>
<stop offset="1" stop-color="#678CCC"/>
</linearGradient>
<linearGradient id="paint3_linear_10_1677" x1="122.165" y1="329" x2="122.165" y2="529" gradientUnits="userSpaceOnUse">
<stop stop-color="#FFE176"/>
<stop offset="0.47859" stop-color="#FEC255"/>
<stop offset="1" stop-color="#FEA031"/>
</linearGradient>
<linearGradient id="paint4_linear_10_1677" x1="244.564" y1="56" x2="407.012" y2="313.137" gradientUnits="userSpaceOnUse">
<stop stop-color="#9B87EB"/>
<stop offset="0.659096" stop-color="#3010AC"/>
</linearGradient>
<linearGradient id="paint5_linear_10_1677" x1="37.4233" y1="88" x2="427.459" y2="388.861" gradientUnits="userSpaceOnUse">
<stop stop-color="white"/>
<stop offset="1" stop-color="#C1C1C1"/>
</linearGradient>
</defs>
</svg>
