<svg width="460" height="550" viewBox="0 0 460 550" fill="none" xmlns="http://www.w3.org/2000/svg">
<g style="mix-blend-mode:color-burn" opacity="0.5" filter="url(#filter0_f_2_587)">
<path fill-rule="evenodd" clip-rule="evenodd" d="M215.058 492.523C210.632 501.384 201.661 507.446 191.315 507.446C176.58 507.446 164.636 495.151 164.636 479.986C164.636 477.811 164.871 475.613 165.32 473.38C163.173 478.658 161.968 483.696 161.968 488.612C161.968 503.778 173.912 516.072 188.647 516.072C202.092 516.072 213.214 505.836 215.058 492.523Z" fill="url(#paint0_radial_2_587)" fill-opacity="0.3"/>
</g>
<path opacity="0.5" d="M215.06 488.476C215.06 503.642 203.115 515.936 188.38 515.936C173.645 515.936 161.701 503.642 161.701 488.476C161.701 473.31 173.173 456.99 188.38 436C201.186 456.415 215.06 473.31 215.06 488.476Z" fill="url(#paint1_radial_2_587)"/>
<g style="mix-blend-mode:screen" opacity="0.3">
<ellipse cx="195.183" cy="465.904" rx="27.3465" ry="28.754" fill="url(#paint2_radial_2_587)"/>
</g>
<g style="mix-blend-mode:screen" opacity="0.3">
<ellipse cx="179.709" cy="497.246" rx="27.3465" ry="28.754" fill="url(#paint3_radial_2_587)"/>
</g>
<g style="mix-blend-mode:color-burn" opacity="0.5" filter="url(#filter1_f_2_587)">
<path fill-rule="evenodd" clip-rule="evenodd" d="M261.467 421.193C257.516 428.592 249.506 433.653 240.268 433.653C227.112 433.653 216.447 423.388 216.447 410.726C216.447 408.91 216.658 407.075 217.058 405.211C215.141 409.618 214.065 413.824 214.065 417.928C214.065 430.591 224.73 440.856 237.886 440.856C249.89 440.856 259.821 432.309 261.467 421.193Z" fill="url(#paint4_radial_2_587)" fill-opacity="0.3"/>
</g>
<path opacity="0.5" d="M261.469 417.815C261.469 430.478 250.804 440.743 237.648 440.743C224.492 440.743 213.827 430.478 213.827 417.815C213.827 405.152 224.07 391.526 237.648 374C249.082 391.046 261.469 405.152 261.469 417.815Z" fill="url(#paint5_radial_2_587)"/>
<g style="mix-blend-mode:screen" opacity="0.3">
<ellipse cx="243.722" cy="398.969" rx="24.4165" ry="24.0083" fill="url(#paint6_radial_2_587)"/>
</g>
<g style="mix-blend-mode:screen" opacity="0.3">
<ellipse cx="229.906" cy="425.138" rx="24.4165" ry="24.0083" fill="url(#paint7_radial_2_587)"/>
</g>
<g style="mix-blend-mode:color-burn" opacity="0.5" filter="url(#filter2_f_2_587)">
<path fill-rule="evenodd" clip-rule="evenodd" d="M315.297 492.522C310.871 501.384 301.9 507.446 291.553 507.446C276.819 507.446 264.874 495.151 264.874 479.985C264.874 477.811 265.11 475.613 265.559 473.38C263.411 478.658 262.206 483.696 262.206 488.612C262.206 503.777 274.151 516.072 288.886 516.072C302.33 516.072 313.452 505.836 315.297 492.522Z" fill="url(#paint8_radial_2_587)" fill-opacity="0.3"/>
</g>
<path opacity="0.5" d="M315.298 488.476C315.298 503.642 303.353 515.936 288.619 515.936C273.884 515.936 261.939 503.642 261.939 488.476C261.939 473.31 273.411 456.99 288.619 436C301.425 456.415 315.298 473.31 315.298 488.476Z" fill="url(#paint9_radial_2_587)"/>
<g style="mix-blend-mode:screen" opacity="0.3">
<ellipse cx="295.422" cy="465.904" rx="27.3465" ry="28.754" fill="url(#paint10_radial_2_587)"/>
</g>
<g style="mix-blend-mode:screen" opacity="0.3">
<ellipse cx="279.948" cy="497.246" rx="27.3465" ry="28.754" fill="url(#paint11_radial_2_587)"/>
</g>
<g style="mix-blend-mode:color-burn" opacity="0.5" filter="url(#filter3_f_2_587)">
<path fill-rule="evenodd" clip-rule="evenodd" d="M163.233 420.804C159.282 428.203 151.272 433.265 142.034 433.265C128.878 433.265 118.213 423 118.213 410.337C118.213 408.521 118.424 406.686 118.824 404.822C116.907 409.229 115.831 413.435 115.831 417.539C115.831 430.202 126.496 440.467 139.652 440.467C151.656 440.467 161.587 431.92 163.233 420.804Z" fill="url(#paint12_radial_2_587)" fill-opacity="0.3"/>
</g>
<path opacity="0.5" d="M163.235 417.426C163.235 430.089 152.57 440.354 139.414 440.354C126.258 440.354 115.593 430.089 115.593 417.426C115.593 404.763 125.836 391.137 139.414 373.611C150.848 390.657 163.235 404.763 163.235 417.426Z" fill="url(#paint13_radial_2_587)"/>
<g style="mix-blend-mode:screen" opacity="0.3">
<ellipse cx="145.488" cy="398.579" rx="24.4165" ry="24.0083" fill="url(#paint14_radial_2_587)"/>
</g>
<g style="mix-blend-mode:screen" opacity="0.3">
<ellipse cx="131.672" cy="424.749" rx="24.4165" ry="24.0083" fill="url(#paint15_radial_2_587)"/>
</g>
<g style="mix-blend-mode:color-burn" opacity="0.5" filter="url(#filter4_f_2_587)">
<path fill-rule="evenodd" clip-rule="evenodd" d="M358.699 421.193C354.747 428.592 346.737 433.654 337.499 433.654C324.343 433.654 313.678 423.389 313.678 410.726C313.678 408.91 313.889 407.075 314.29 405.211C312.373 409.618 311.296 413.824 311.296 417.928C311.296 430.591 321.961 440.856 335.117 440.856C347.122 440.856 357.052 432.31 358.699 421.193Z" fill="url(#paint16_radial_2_587)" fill-opacity="0.3"/>
</g>
<path opacity="0.5" d="M358.7 417.815C358.7 430.478 348.035 440.743 334.879 440.743C321.723 440.743 311.058 430.478 311.058 417.815C311.058 405.152 321.301 391.526 334.879 374C346.313 391.046 358.7 405.152 358.7 417.815Z" fill="url(#paint17_radial_2_587)"/>
<g style="mix-blend-mode:screen" opacity="0.3">
<ellipse cx="340.953" cy="398.969" rx="24.4165" ry="24.0083" fill="url(#paint18_radial_2_587)"/>
</g>
<g style="mix-blend-mode:screen" opacity="0.3">
<ellipse cx="327.137" cy="425.138" rx="24.4165" ry="24.0083" fill="url(#paint19_radial_2_587)"/>
</g>
<mask id="path-21-inside-1_2_587" fill="white">
<path fill-rule="evenodd" clip-rule="evenodd" d="M328.761 364L159.358 364C76.3176 364 9 296.843 9 214C9 131.157 76.3176 64 159.358 64C226.131 64 282.738 107.423 302.354 167.507C310.767 165.22 319.621 164 328.761 164C384.122 164 429 208.771 429 264C429 319.228 384.122 364 328.761 364Z"/>
</mask>
<g filter="url(#filter5_i_2_587)">
<path fill-rule="evenodd" clip-rule="evenodd" d="M328.761 364L159.358 364C76.3176 364 9 296.843 9 214C9 131.157 76.3176 64 159.358 64C226.131 64 282.738 107.423 302.354 167.507C310.767 165.22 319.621 164 328.761 164C384.122 164 429 208.771 429 264C429 319.228 384.122 364 328.761 364Z" fill="url(#paint20_linear_2_587)"/>
</g>
<path d="M159.358 364V363V364ZM328.761 364V365V364ZM302.354 167.507L301.403 167.817L301.698 168.721L302.616 168.472L302.354 167.507ZM159.358 365L328.761 365V363L159.358 363V365ZM8 214C8 297.397 75.7675 365 159.358 365V363C76.8676 363 10 296.288 10 214H8ZM159.358 63C75.7675 63 8 130.603 8 214H10C10 131.712 76.8676 65 159.358 65V63ZM303.304 167.196C283.558 106.712 226.575 63 159.358 63V65C225.687 65 281.918 108.133 301.403 167.817L303.304 167.196ZM302.616 168.472C310.945 166.208 319.711 165 328.761 165V163C319.532 163 310.59 164.232 302.091 166.542L302.616 168.472ZM328.761 165C383.572 165 428 209.326 428 264H430C430 208.217 384.672 163 328.761 163V165ZM428 264C428 318.674 383.572 363 328.761 363V365C384.672 365 430 319.783 430 264H428Z" fill="black" fill-opacity="0.05" mask="url(#path-21-inside-1_2_587)"/>
<defs>
<filter id="filter0_f_2_587" x="153.968" y="465.38" width="69.0906" height="58.6918" filterUnits="userSpaceOnUse" color-interpolation-filters="sRGB">
<feFlood flood-opacity="0" result="BackgroundImageFix"/>
<feBlend mode="normal" in="SourceGraphic" in2="BackgroundImageFix" result="shape"/>
<feGaussianBlur stdDeviation="4" result="effect1_foregroundBlur_2_587"/>
</filter>
<filter id="filter1_f_2_587" x="206.065" y="397.211" width="63.4023" height="51.6453" filterUnits="userSpaceOnUse" color-interpolation-filters="sRGB">
<feFlood flood-opacity="0" result="BackgroundImageFix"/>
<feBlend mode="normal" in="SourceGraphic" in2="BackgroundImageFix" result="shape"/>
<feGaussianBlur stdDeviation="4" result="effect1_foregroundBlur_2_587"/>
</filter>
<filter id="filter2_f_2_587" x="254.206" y="465.38" width="69.0906" height="58.6915" filterUnits="userSpaceOnUse" color-interpolation-filters="sRGB">
<feFlood flood-opacity="0" result="BackgroundImageFix"/>
<feBlend mode="normal" in="SourceGraphic" in2="BackgroundImageFix" result="shape"/>
<feGaussianBlur stdDeviation="4" result="effect1_foregroundBlur_2_587"/>
</filter>
<filter id="filter3_f_2_587" x="107.831" y="396.822" width="63.4023" height="51.6453" filterUnits="userSpaceOnUse" color-interpolation-filters="sRGB">
<feFlood flood-opacity="0" result="BackgroundImageFix"/>
<feBlend mode="normal" in="SourceGraphic" in2="BackgroundImageFix" result="shape"/>
<feGaussianBlur stdDeviation="4" result="effect1_foregroundBlur_2_587"/>
</filter>
<filter id="filter4_f_2_587" x="303.296" y="397.211" width="63.4023" height="51.6455" filterUnits="userSpaceOnUse" color-interpolation-filters="sRGB">
<feFlood flood-opacity="0" result="BackgroundImageFix"/>
<feBlend mode="normal" in="SourceGraphic" in2="BackgroundImageFix" result="shape"/>
<feGaussianBlur stdDeviation="4" result="effect1_foregroundBlur_2_587"/>
</filter>
<filter id="filter5_i_2_587" x="9" y="64" width="420" height="348.647" filterUnits="userSpaceOnUse" color-interpolation-filters="sRGB">
<feFlood flood-opacity="0" result="BackgroundImageFix"/>
<feBlend mode="normal" in="SourceGraphic" in2="BackgroundImageFix" result="shape"/>
<feColorMatrix in="SourceAlpha" type="matrix" values="0 0 0 0 0 0 0 0 0 0 0 0 0 0 0 0 0 0 127 0" result="hardAlpha"/>
<feOffset dy="48.6468"/>
<feGaussianBlur stdDeviation="30"/>
<feComposite in2="hardAlpha" operator="arithmetic" k2="-1" k3="1"/>
<feColorMatrix type="matrix" values="0 0 0 0 1 0 0 0 0 1 0 0 0 0 1 0 0 0 1 0"/>
<feBlend mode="normal" in2="shape" result="effect1_innerShadow_2_587"/>
</filter>
<radialGradient id="paint0_radial_2_587" cx="0" cy="0" r="1" gradientUnits="userSpaceOnUse" gradientTransform="translate(188.647 490.481) rotate(-39.7879) scale(45.8304 33.5111)">
<stop stop-color="#3CC7F5"/>
<stop offset="0.0001" stop-color="#3CC7F5"/>
<stop offset="1" stop-color="#004DFF"/>
</radialGradient>
<radialGradient id="paint1_radial_2_587" cx="0" cy="0" r="1" gradientUnits="userSpaceOnUse" gradientTransform="translate(188.38 490.345) rotate(-39.7879) scale(45.8304 33.5111)">
<stop stop-color="#3CC7F5"/>
<stop offset="0.0001" stop-color="#3CC7F5"/>
<stop offset="1" stop-color="#004DFF"/>
</radialGradient>
<radialGradient id="paint2_radial_2_587" cx="0" cy="0" r="1" gradientUnits="userSpaceOnUse" gradientTransform="translate(195.183 465.904) rotate(57.9574) scale(39.6886 11.251)">
<stop stop-color="white"/>
<stop offset="0.555017" stop-color="#BDDBF1" stop-opacity="0.25"/>
<stop offset="1" stop-color="#5686F5" stop-opacity="0"/>
</radialGradient>
<radialGradient id="paint3_radial_2_587" cx="0" cy="0" r="1" gradientUnits="userSpaceOnUse" gradientTransform="translate(178.242 497.246) rotate(51.8214) scale(21.5814 10.3351)">
<stop stop-color="white"/>
<stop offset="0.673987" stop-color="#BDDBF1" stop-opacity="0.25"/>
<stop offset="1" stop-color="#5686F5" stop-opacity="0"/>
</radialGradient>
<radialGradient id="paint4_radial_2_587" cx="0" cy="0" r="1" gradientUnits="userSpaceOnUse" gradientTransform="translate(237.886 419.489) rotate(-37.9113) scale(39.8545 28.7281)">
<stop stop-color="#3CC7F5"/>
<stop offset="0.0001" stop-color="#3CC7F5"/>
<stop offset="1" stop-color="#004DFF"/>
</radialGradient>
<radialGradient id="paint5_radial_2_587" cx="0" cy="0" r="1" gradientUnits="userSpaceOnUse" gradientTransform="translate(237.648 419.376) rotate(-37.9116) scale(39.8546 28.7283)">
<stop stop-color="#3CC7F5"/>
<stop offset="0.0001" stop-color="#3CC7F5"/>
<stop offset="1" stop-color="#004DFF"/>
</radialGradient>
<radialGradient id="paint6_radial_2_587" cx="0" cy="0" r="1" gradientUnits="userSpaceOnUse" gradientTransform="translate(243.722 398.969) rotate(56.2052) scale(33.8008 9.8486)">
<stop stop-color="white"/>
<stop offset="0.555017" stop-color="#BDDBF1" stop-opacity="0.25"/>
<stop offset="1" stop-color="#5686F5" stop-opacity="0"/>
</radialGradient>
<radialGradient id="paint7_radial_2_587" cx="0" cy="0" r="1" gradientUnits="userSpaceOnUse" gradientTransform="translate(228.596 425.138) rotate(49.9413) scale(18.5069 8.98477)">
<stop stop-color="white"/>
<stop offset="0.673987" stop-color="#BDDBF1" stop-opacity="0.25"/>
<stop offset="1" stop-color="#5686F5" stop-opacity="0"/>
</radialGradient>
<radialGradient id="paint8_radial_2_587" cx="0" cy="0" r="1" gradientUnits="userSpaceOnUse" gradientTransform="translate(288.886 490.481) rotate(-39.7879) scale(45.8304 33.5111)">
<stop stop-color="#3CC7F5"/>
<stop offset="0.0001" stop-color="#3CC7F5"/>
<stop offset="1" stop-color="#004DFF"/>
</radialGradient>
<radialGradient id="paint9_radial_2_587" cx="0" cy="0" r="1" gradientUnits="userSpaceOnUse" gradientTransform="translate(288.619 490.345) rotate(-39.7879) scale(45.8304 33.5111)">
<stop stop-color="#3CC7F5"/>
<stop offset="0.0001" stop-color="#3CC7F5"/>
<stop offset="1" stop-color="#004DFF"/>
</radialGradient>
<radialGradient id="paint10_radial_2_587" cx="0" cy="0" r="1" gradientUnits="userSpaceOnUse" gradientTransform="translate(295.422 465.904) rotate(57.9574) scale(39.6886 11.251)">
<stop stop-color="white"/>
<stop offset="0.555017" stop-color="#BDDBF1" stop-opacity="0.25"/>
<stop offset="1" stop-color="#5686F5" stop-opacity="0"/>
</radialGradient>
<radialGradient id="paint11_radial_2_587" cx="0" cy="0" r="1" gradientUnits="userSpaceOnUse" gradientTransform="translate(278.48 497.246) rotate(51.8214) scale(21.5814 10.3351)">
<stop stop-color="white"/>
<stop offset="0.673987" stop-color="#BDDBF1" stop-opacity="0.25"/>
<stop offset="1" stop-color="#5686F5" stop-opacity="0"/>
</radialGradient>
<radialGradient id="paint12_radial_2_587" cx="0" cy="0" r="1" gradientUnits="userSpaceOnUse" gradientTransform="translate(139.652 419.1) rotate(-37.9113) scale(39.8545 28.7281)">
<stop stop-color="#3CC7F5"/>
<stop offset="0.0001" stop-color="#3CC7F5"/>
<stop offset="1" stop-color="#004DFF"/>
</radialGradient>
<radialGradient id="paint13_radial_2_587" cx="0" cy="0" r="1" gradientUnits="userSpaceOnUse" gradientTransform="translate(139.414 418.986) rotate(-37.9116) scale(39.8546 28.7283)">
<stop stop-color="#3CC7F5"/>
<stop offset="0.0001" stop-color="#3CC7F5"/>
<stop offset="1" stop-color="#004DFF"/>
</radialGradient>
<radialGradient id="paint14_radial_2_587" cx="0" cy="0" r="1" gradientUnits="userSpaceOnUse" gradientTransform="translate(145.488 398.579) rotate(56.2052) scale(33.8008 9.8486)">
<stop stop-color="white"/>
<stop offset="0.555017" stop-color="#BDDBF1" stop-opacity="0.25"/>
<stop offset="1" stop-color="#5686F5" stop-opacity="0"/>
</radialGradient>
<radialGradient id="paint15_radial_2_587" cx="0" cy="0" r="1" gradientUnits="userSpaceOnUse" gradientTransform="translate(130.362 424.749) rotate(49.9413) scale(18.5069 8.98477)">
<stop stop-color="white"/>
<stop offset="0.673987" stop-color="#BDDBF1" stop-opacity="0.25"/>
<stop offset="1" stop-color="#5686F5" stop-opacity="0"/>
</radialGradient>
<radialGradient id="paint16_radial_2_587" cx="0" cy="0" r="1" gradientUnits="userSpaceOnUse" gradientTransform="translate(335.117 419.489) rotate(-37.9116) scale(39.8546 28.7283)">
<stop stop-color="#3CC7F5"/>
<stop offset="0.0001" stop-color="#3CC7F5"/>
<stop offset="1" stop-color="#004DFF"/>
</radialGradient>
<radialGradient id="paint17_radial_2_587" cx="0" cy="0" r="1" gradientUnits="userSpaceOnUse" gradientTransform="translate(334.879 419.376) rotate(-37.9116) scale(39.8546 28.7283)">
<stop stop-color="#3CC7F5"/>
<stop offset="0.0001" stop-color="#3CC7F5"/>
<stop offset="1" stop-color="#004DFF"/>
</radialGradient>
<radialGradient id="paint18_radial_2_587" cx="0" cy="0" r="1" gradientUnits="userSpaceOnUse" gradientTransform="translate(340.953 398.969) rotate(56.2052) scale(33.8008 9.8486)">
<stop stop-color="white"/>
<stop offset="0.555017" stop-color="#BDDBF1" stop-opacity="0.25"/>
<stop offset="1" stop-color="#5686F5" stop-opacity="0"/>
</radialGradient>
<radialGradient id="paint19_radial_2_587" cx="0" cy="0" r="1" gradientUnits="userSpaceOnUse" gradientTransform="translate(325.827 425.138) rotate(49.9413) scale(18.5069 8.98477)">
<stop stop-color="white"/>
<stop offset="0.673987" stop-color="#BDDBF1" stop-opacity="0.25"/>
<stop offset="1" stop-color="#5686F5" stop-opacity="0"/>
</radialGradient>
<linearGradient id="paint20_linear_2_587" x1="38.4233" y1="64" x2="428.459" y2="364.861" gradientUnits="userSpaceOnUse">
<stop stop-color="white"/>
<stop offset="1" stop-color="#C1C1C1"/>
</linearGradient>
</defs>
</svg>
